<?xml version="1.0" encoding="UTF-8" standalone="yes"?><svg xmlns="http://www.w3.org/2000/svg" xmlns:xlink="http://www.w3.org/1999/xlink" height="1062px" style="width:1541px;height:1062px;" version="1.1" viewBox="0 0 1541 1062" width="1541px"><defs><filter height="300%" id="f1" width="300%" x="-1" y="-1"><feGaussianBlur result="blurOut" stdDeviation="2.0"/><feColorMatrix in="blurOut" result="blurOut2" type="matrix" values="0 0 0 0 0 0 0 0 0 0 0 0 0 0 0 0 0 0 .4 0"/><feOffset dx="4.0" dy="4.0" in="blurOut2" result="blurOut3"/><feBlend in="SourceGraphic" in2="blurOut3" mode="normal"/></filter></defs><g><polygon fill="#FFFFFF" filter="url(#f1)" points="22,24.5,46,24.5,53,46.9883,1534,46.9883,1534,919,22,919,22,24.5" style="stroke: #000000; stroke-width: 2.0;"/><line style="stroke: #000000; stroke-width: 2.0;" x1="22" x2="53" y1="46.9883" y2="46.9883"/><text fill="#000000" font-family="sans-serif" font-size="14" font-weight="bold" lengthAdjust="spacingAndGlyphs" textLength="18" x="26" y="40.0352">bp</text><polygon fill="#FFFFFF" filter="url(#f1)" points="855,67.5,931,67.5,938,89.9883,1510,89.9883,1510,557.5,855,557.5,855,67.5" style="stroke: #000000; stroke-width: 2.0;"/><line style="stroke: #000000; stroke-width: 2.0;" x1="855" x2="938" y1="89.9883" y2="89.9883"/><text fill="#000000" font-family="sans-serif" font-size="14" font-weight="bold" lengthAdjust="spacingAndGlyphs" textLength="70" x="859" y="83.0352">bprogram</text><polygon fill="#FFFFFF" filter="url(#f1)" points="1149,110.5,1224,110.5,1231,132.9883,1486,132.9883,1486,379.5,1149,379.5,1149,110.5" style="stroke: #000000; stroke-width: 2.0;"/><line style="stroke: #000000; stroke-width: 2.0;" x1="1149" x2="1231" y1="132.9883" y2="132.9883"/><text fill="#000000" font-family="sans-serif" font-size="14" font-weight="bold" lengthAdjust="spacingAndGlyphs" textLength="69" x="1153" y="126.0352">listenters</text><polygon fill="#FFFFFF" filter="url(#f1)" points="729,439.5,782,439.5,789,461.9883,831,461.9883,831,557.5,729,557.5,729,439.5" style="stroke: #000000; stroke-width: 2.0;"/><line style="stroke: #000000; stroke-width: 2.0;" x1="729" x2="789" y1="461.9883" y2="461.9883"/><text fill="#000000" font-family="sans-serif" font-size="14" font-weight="bold" lengthAdjust="spacingAndGlyphs" textLength="47" x="733" y="455.0352">events</text><polygon fill="#FFFFFF" filter="url(#f1)" points="648,616,723,616,730,638.4883,953,638.4883,953,895,648,895,648,616" style="stroke: #000000; stroke-width: 2.0;"/><line style="stroke: #000000; stroke-width: 2.0;" x1="648" x2="730" y1="638.4883" y2="638.4883"/><text fill="#000000" font-family="sans-serif" font-size="14" font-weight="bold" lengthAdjust="spacingAndGlyphs" textLength="69" x="652" y="631.5352">eventsets</text><polygon fill="#FFFFFF" filter="url(#f1)" points="46,104,156,104,163,126.4883,705,126.4883,705,567,46,567,46,104" style="stroke: #000000; stroke-width: 2.0;"/><line style="stroke: #000000; stroke-width: 2.0;" x1="46" x2="163" y1="126.4883" y2="126.4883"/><text fill="#000000" font-family="sans-serif" font-size="14" font-weight="bold" lengthAdjust="spacingAndGlyphs" textLength="104" x="50" y="119.5352">eventselection</text><rect fill="#FEFECE" filter="url(#f1)" height="73.9102" style="stroke: #A80036; stroke-width: 1.5;" width="121" x="1009.5" y="151.5"/><ellipse cx="1039.35" cy="167.5" fill="#ADD1B2" rx="11" ry="11" style="stroke: #A80036; stroke-width: 1.0;"/><path d="M1042.3231,173.1431 Q1041.7421,173.4419 1041.1029,173.5913 Q1040.4638,173.7407 1039.7582,173.7407 Q1037.2514,173.7407 1035.9315,172.0889 Q1034.6117,170.437 1034.6117,167.3159 Q1034.6117,164.1865 1035.9315,162.5347 Q1037.2514,160.8828 1039.7582,160.8828 Q1040.4638,160.8828 1041.1112,161.0322 Q1041.7587,161.1816 1042.3231,161.4805 L1042.3231,164.2031 Q1041.6923,163.6221 1041.0988,163.3523 Q1040.5053,163.0825 1039.8744,163.0825 Q1038.5297,163.0825 1037.8449,164.1492 Q1037.1601,165.2158 1037.1601,167.3159 Q1037.1601,169.4077 1037.8449,170.4744 Q1038.5297,171.541 1039.8744,171.541 Q1040.5053,171.541 1041.0988,171.2712 Q1041.6923,171.0015 1042.3231,170.4204 Z "/><text fill="#000000" font-family="sans-serif" font-size="12" lengthAdjust="spacingAndGlyphs" textLength="56" x="1056.65" y="172.0352">BProgram</text><line style="stroke: #A80036; stroke-width: 1.5;" x1="1010.5" x2="1129.5" y1="183.5" y2="183.5"/><rect fill="none" height="6" style="stroke: #C82930; stroke-width: 1.0;" width="6" x="1017.5" y="192.4775"/><text fill="#000000" font-family="sans-serif" font-size="11" lengthAdjust="spacingAndGlyphs" textLength="95" x="1029.5" y="198.1348">javascriptContext</text><line style="stroke: #A80036; stroke-width: 1.5;" x1="1010.5" x2="1129.5" y1="204.4551" y2="204.4551"/><ellipse cx="1020.5" cy="216.4326" fill="#84BE84" rx="3" ry="3" style="stroke: #038048; stroke-width: 1.0;"/><text fill="#000000" font-family="sans-serif" font-size="11" lengthAdjust="spacingAndGlyphs" textLength="33" x="1029.5" y="219.0898">start()</text><rect fill="#FEFECE" filter="url(#f1)" height="60.9551" style="stroke: #A80036; stroke-width: 1.5;" width="121" x="1011.5" y="309"/><ellipse cx="1044.5" cy="325" fill="#ADD1B2" rx="11" ry="11" style="stroke: #A80036; stroke-width: 1.0;"/><path d="M1047.4731,330.6431 Q1046.8921,330.9419 1046.2529,331.0913 Q1045.6138,331.2407 1044.9082,331.2407 Q1042.4014,331.2407 1041.0815,329.5889 Q1039.7617,327.937 1039.7617,324.8159 Q1039.7617,321.6865 1041.0815,320.0347 Q1042.4014,318.3828 1044.9082,318.3828 Q1045.6138,318.3828 1046.2612,318.5322 Q1046.9087,318.6816 1047.4731,318.9805 L1047.4731,321.7031 Q1046.8423,321.1221 1046.2488,320.8523 Q1045.6553,320.5825 1045.0244,320.5825 Q1043.6797,320.5825 1042.9949,321.6492 Q1042.3101,322.7158 1042.3101,324.8159 Q1042.3101,326.9077 1042.9949,327.9744 Q1043.6797,329.041 1045.0244,329.041 Q1045.6553,329.041 1046.2488,328.7712 Q1046.8423,328.5015 1047.4731,327.9204 Z "/><text fill="#000000" font-family="sans-serif" font-size="12" lengthAdjust="spacingAndGlyphs" textLength="49" x="1062.5" y="329.5352">BThread</text><line style="stroke: #A80036; stroke-width: 1.5;" x1="1012.5" x2="1131.5" y1="341" y2="341"/><rect fill="none" height="6" style="stroke: #C82930; stroke-width: 1.0;" width="6" x="1019.5" y="349.9775"/><text fill="#000000" font-family="sans-serif" font-size="11" lengthAdjust="spacingAndGlyphs" textLength="95" x="1031.5" y="355.6348">javascriptContext</text><line style="stroke: #A80036; stroke-width: 1.5;" x1="1012.5" x2="1131.5" y1="361.9551" y2="361.9551"/><rect fill="#FEFECE" filter="url(#f1)" height="73.9102" style="stroke: #A80036; stroke-width: 1.5;" width="105" x="871.5" y="302.5"/><ellipse cx="892.35" cy="318.5" fill="#ADD1B2" rx="11" ry="11" style="stroke: #A80036; stroke-width: 1.0;"/><path d="M895.3231,324.1431 Q894.7421,324.4419 894.1029,324.5913 Q893.4638,324.7407 892.7582,324.7407 Q890.2514,324.7407 888.9315,323.0889 Q887.6117,321.437 887.6117,318.3159 Q887.6117,315.1865 888.9315,313.5347 Q890.2514,311.8828 892.7582,311.8828 Q893.4638,311.8828 894.1112,312.0322 Q894.7587,312.1816 895.3231,312.4805 L895.3231,315.2031 Q894.6923,314.6221 894.0988,314.3523 Q893.5053,314.0825 892.8744,314.0825 Q891.5297,314.0825 890.8449,315.1492 Q890.1601,316.2158 890.1601,318.3159 Q890.1601,320.4077 890.8449,321.4744 Q891.5297,322.541 892.8744,322.541 Q893.5053,322.541 894.0988,322.2712 Q894.6923,322.0015 895.3231,321.4204 Z "/><text fill="#000000" font-family="sans-serif" font-size="12" lengthAdjust="spacingAndGlyphs" textLength="60" x="907.65" y="323.0352">BSyncState</text><line style="stroke: #A80036; stroke-width: 1.5;" x1="872.5" x2="975.5" y1="334.5" y2="334.5"/><ellipse cx="882.5" cy="346.4775" fill="none" rx="3" ry="3" style="stroke: #038048; stroke-width: 1.0;"/><text fill="#000000" font-family="sans-serif" font-size="11" lengthAdjust="spacingAndGlyphs" textLength="59" x="891.5" y="349.1348">statements</text><ellipse cx="882.5" cy="359.4326" fill="none" rx="3" ry="3" style="stroke: #038048; stroke-width: 1.0;"/><text fill="#000000" font-family="sans-serif" font-size="11" lengthAdjust="spacingAndGlyphs" textLength="79" x="891.5" y="362.0898">externalEvents</text><line style="stroke: #A80036; stroke-width: 1.5;" x1="872.5" x2="975.5" y1="368.4102" y2="368.4102"/><rect fill="#FEFECE" filter="url(#f1)" height="48" style="stroke: #A80036; stroke-width: 1.5;" width="114" x="907" y="493.5"/><ellipse cx="922" cy="509.5" fill="#ADD1B2" rx="11" ry="11" style="stroke: #A80036; stroke-width: 1.0;"/><path d="M924.9731,515.1431 Q924.3921,515.4419 923.7529,515.5913 Q923.1138,515.7407 922.4082,515.7407 Q919.9014,515.7407 918.5815,514.0889 Q917.2617,512.437 917.2617,509.3159 Q917.2617,506.1865 918.5815,504.5347 Q919.9014,502.8828 922.4082,502.8828 Q923.1138,502.8828 923.7612,503.0322 Q924.4087,503.1816 924.9731,503.4805 L924.9731,506.2031 Q924.3423,505.6221 923.7488,505.3523 Q923.1553,505.0825 922.5244,505.0825 Q921.1797,505.0825 920.4949,506.1492 Q919.8101,507.2158 919.8101,509.3159 Q919.8101,511.4077 920.4949,512.4744 Q921.1797,513.541 922.5244,513.541 Q923.1553,513.541 923.7488,513.2712 Q924.3423,513.0015 924.9731,512.4204 Z "/><text fill="#000000" font-family="sans-serif" font-size="12" lengthAdjust="spacingAndGlyphs" textLength="82" x="936" y="514.0352">RWBStatement</text><line style="stroke: #A80036; stroke-width: 1.5;" x1="908" x2="1020" y1="525.5" y2="525.5"/><line style="stroke: #A80036; stroke-width: 1.5;" x1="908" x2="1020" y1="533.5" y2="533.5"/><rect fill="#FEFECE" filter="url(#f1)" height="48" style="stroke: #A80036; stroke-width: 1.5;" width="133" x="1167.5" y="315.5"/><ellipse cx="1182.5" cy="331.5" fill="#B4A7E5" rx="11" ry="11" style="stroke: #A80036; stroke-width: 1.0;"/><path d="M1178.4277,327.2651 L1178.4277,325.1069 L1185.8071,325.1069 L1185.8071,327.2651 L1183.3418,327.2651 L1183.3418,335.3418 L1185.8071,335.3418 L1185.8071,337.5 L1178.4277,337.5 L1178.4277,335.3418 L1180.8931,335.3418 L1180.8931,327.2651 Z "/><text fill="#000000" font-family="sans-serif" font-size="12" font-style="italic" lengthAdjust="spacingAndGlyphs" textLength="101" x="1196.5" y="336.0352">BProgramListener</text><line style="stroke: #A80036; stroke-width: 1.5;" x1="1168.5" x2="1299.5" y1="347.5" y2="347.5"/><line style="stroke: #A80036; stroke-width: 1.5;" x1="1168.5" x2="1299.5" y1="355.5" y2="355.5"/><rect fill="#FEFECE" filter="url(#f1)" height="48" style="stroke: #A80036; stroke-width: 1.5;" width="158" x="1312" y="164.5"/><ellipse cx="1327" cy="180.5" fill="#ADD1B2" rx="11" ry="11" style="stroke: #A80036; stroke-width: 1.0;"/><path d="M1329.9731,186.1431 Q1329.3921,186.4419 1328.7529,186.5913 Q1328.1138,186.7407 1327.4082,186.7407 Q1324.9014,186.7407 1323.5815,185.0889 Q1322.2617,183.437 1322.2617,180.3159 Q1322.2617,177.1865 1323.5815,175.5347 Q1324.9014,173.8828 1327.4082,173.8828 Q1328.1138,173.8828 1328.7612,174.0322 Q1329.4087,174.1816 1329.9731,174.4805 L1329.9731,177.2031 Q1329.3423,176.6221 1328.7488,176.3523 Q1328.1553,176.0825 1327.5244,176.0825 Q1326.1797,176.0825 1325.4949,177.1492 Q1324.8101,178.2158 1324.8101,180.3159 Q1324.8101,182.4077 1325.4949,183.4744 Q1326.1797,184.541 1327.5244,184.541 Q1328.1553,184.541 1328.7488,184.2712 Q1329.3423,184.0015 1329.9731,183.4204 Z "/><text fill="#000000" font-family="sans-serif" font-size="12" lengthAdjust="spacingAndGlyphs" textLength="126" x="1341" y="185.0352">InMemoryEventLogger</text><line style="stroke: #A80036; stroke-width: 1.5;" x1="1313" x2="1469" y1="196.5" y2="196.5"/><line style="stroke: #A80036; stroke-width: 1.5;" x1="1313" x2="1469" y1="204.5" y2="204.5"/><rect fill="#FEFECE" filter="url(#f1)" height="48" style="stroke: #A80036; stroke-width: 1.5;" width="111" x="1165.5" y="164.5"/><ellipse cx="1180.5" cy="180.5" fill="#ADD1B2" rx="11" ry="11" style="stroke: #A80036; stroke-width: 1.0;"/><path d="M1183.4731,186.1431 Q1182.8921,186.4419 1182.2529,186.5913 Q1181.6138,186.7407 1180.9082,186.7407 Q1178.4014,186.7407 1177.0815,185.0889 Q1175.7617,183.437 1175.7617,180.3159 Q1175.7617,177.1865 1177.0815,175.5347 Q1178.4014,173.8828 1180.9082,173.8828 Q1181.6138,173.8828 1182.2612,174.0322 Q1182.9087,174.1816 1183.4731,174.4805 L1183.4731,177.2031 Q1182.8423,176.6221 1182.2488,176.3523 Q1181.6553,176.0825 1181.0244,176.0825 Q1179.6797,176.0825 1178.9949,177.1492 Q1178.3101,178.2158 1178.3101,180.3159 Q1178.3101,182.4077 1178.9949,183.4744 Q1179.6797,184.541 1181.0244,184.541 Q1181.6553,184.541 1182.2488,184.2712 Q1182.8423,184.0015 1183.4731,183.4204 Z "/><text fill="#000000" font-family="sans-serif" font-size="12" lengthAdjust="spacingAndGlyphs" textLength="79" x="1194.5" y="185.0352">StreamLogger</text><line style="stroke: #A80036; stroke-width: 1.5;" x1="1166.5" x2="1275.5" y1="196.5" y2="196.5"/><line style="stroke: #A80036; stroke-width: 1.5;" x1="1166.5" x2="1275.5" y1="204.5" y2="204.5"/><rect fill="#FEFECE" filter="url(#f1)" height="48" style="stroke: #A80036; stroke-width: 1.5;" width="70" x="745" y="493.5"/><ellipse cx="760" cy="509.5" fill="#ADD1B2" rx="11" ry="11" style="stroke: #A80036; stroke-width: 1.0;"/><path d="M762.9731,515.1431 Q762.3921,515.4419 761.7529,515.5913 Q761.1138,515.7407 760.4082,515.7407 Q757.9014,515.7407 756.5815,514.0889 Q755.2617,512.437 755.2617,509.3159 Q755.2617,506.1865 756.5815,504.5347 Q757.9014,502.8828 760.4082,502.8828 Q761.1138,502.8828 761.7612,503.0322 Q762.4087,503.1816 762.9731,503.4805 L762.9731,506.2031 Q762.3423,505.6221 761.7488,505.3523 Q761.1553,505.0825 760.5244,505.0825 Q759.1797,505.0825 758.4949,506.1492 Q757.8101,507.2158 757.8101,509.3159 Q757.8101,511.4077 758.4949,512.4744 Q759.1797,513.541 760.5244,513.541 Q761.1553,513.541 761.7488,513.2712 Q762.3423,513.0015 762.9731,512.4204 Z "/><text fill="#000000" font-family="sans-serif" font-size="12" lengthAdjust="spacingAndGlyphs" textLength="38" x="774" y="514.0352">BEvent</text><line style="stroke: #A80036; stroke-width: 1.5;" x1="746" x2="814" y1="525.5" y2="525.5"/><line style="stroke: #A80036; stroke-width: 1.5;" x1="746" x2="814" y1="533.5" y2="533.5"/><rect fill="#FEFECE" filter="url(#f1)" height="60.9551" style="stroke: #A80036; stroke-width: 1.5;" width="101" x="835.5" y="683"/><ellipse cx="859.95" cy="699" fill="#B4A7E5" rx="11" ry="11" style="stroke: #A80036; stroke-width: 1.0;"/><path d="M855.8777,694.7651 L855.8777,692.6069 L863.2571,692.6069 L863.2571,694.7651 L860.7918,694.7651 L860.7918,702.8418 L863.2571,702.8418 L863.2571,705 L855.8777,705 L855.8777,702.8418 L858.3431,702.8418 L858.3431,694.7651 Z "/><text fill="#000000" font-family="sans-serif" font-size="12" font-style="italic" lengthAdjust="spacingAndGlyphs" textLength="48" x="876.05" y="703.5352">EventSet</text><line style="stroke: #A80036; stroke-width: 1.5;" x1="836.5" x2="935.5" y1="715" y2="715"/><line style="stroke: #A80036; stroke-width: 1.5;" x1="836.5" x2="935.5" y1="723" y2="723"/><text fill="#000000" font-family="sans-serif" font-size="11" lengthAdjust="spacingAndGlyphs" textLength="89" x="841.5" y="737.6348">contains(BEvent)</text><rect fill="#FEFECE" filter="url(#f1)" height="60.9551" style="stroke: #A80036; stroke-width: 1.5;" width="127" x="809.5" y="818"/><ellipse cx="827.2" cy="834" fill="#ADD1B2" rx="11" ry="11" style="stroke: #A80036; stroke-width: 1.0;"/><path d="M830.1731,839.6431 Q829.5921,839.9419 828.9529,840.0913 Q828.3138,840.2407 827.6082,840.2407 Q825.1014,840.2407 823.7815,838.5889 Q822.4617,836.937 822.4617,833.8159 Q822.4617,830.6865 823.7815,829.0347 Q825.1014,827.3828 827.6082,827.3828 Q828.3138,827.3828 828.9612,827.5322 Q829.6087,827.6816 830.1731,827.9805 L830.1731,830.7031 Q829.5423,830.1221 828.9488,829.8523 Q828.3553,829.5825 827.7244,829.5825 Q826.3797,829.5825 825.6949,830.6492 Q825.0101,831.7158 825.0101,833.8159 Q825.0101,835.9077 825.6949,836.9744 Q826.3797,838.041 827.7244,838.041 Q828.3553,838.041 828.9488,837.7712 Q829.5423,837.5015 830.1731,836.9204 Z "/><text fill="#000000" font-family="sans-serif" font-size="12" lengthAdjust="spacingAndGlyphs" textLength="89" x="841.8" y="838.5352">ExplicitEventSet</text><line style="stroke: #A80036; stroke-width: 1.5;" x1="810.5" x2="935.5" y1="850" y2="850"/><ellipse cx="820.5" cy="861.9775" fill="none" rx="3" ry="3" style="stroke: #038048; stroke-width: 1.0;"/><text fill="#000000" font-family="sans-serif" font-size="11" lengthAdjust="spacingAndGlyphs" textLength="101" x="829.5" y="864.6348">events:Set&lt;Event&gt;</text><line style="stroke: #A80036; stroke-width: 1.5;" x1="810.5" x2="935.5" y1="870.9551" y2="870.9551"/><rect fill="#FEFECE" filter="url(#f1)" height="86.8652" style="stroke: #A80036; stroke-width: 1.5;" width="136" x="664" y="670"/><ellipse cx="679" cy="686" fill="#ADD1B2" rx="11" ry="11" style="stroke: #A80036; stroke-width: 1.0;"/><path d="M681.9731,691.6431 Q681.3921,691.9419 680.7529,692.0913 Q680.1138,692.2407 679.4082,692.2407 Q676.9014,692.2407 675.5815,690.5889 Q674.2617,688.937 674.2617,685.8159 Q674.2617,682.6865 675.5815,681.0347 Q676.9014,679.3828 679.4082,679.3828 Q680.1138,679.3828 680.7612,679.5322 Q681.4087,679.6816 681.9731,679.9805 L681.9731,682.7031 Q681.3423,682.1221 680.7488,681.8523 Q680.1553,681.5825 679.5244,681.5825 Q678.1797,681.5825 677.4949,682.6492 Q676.8101,683.7158 676.8101,685.8159 Q676.8101,687.9077 677.4949,688.9744 Q678.1797,690.041 679.5244,690.041 Q680.1553,690.041 680.7488,689.7712 Q681.3423,689.5015 681.9731,688.9204 Z "/><text fill="#000000" font-family="sans-serif" font-size="12" lengthAdjust="spacingAndGlyphs" textLength="104" x="693" y="690.5352">EventSetConstants</text><line style="stroke: #A80036; stroke-width: 1.5;" x1="665" x2="799" y1="702" y2="702"/><text fill="#000000" font-family="sans-serif" font-size="11" lengthAdjust="spacingAndGlyphs" text-decoration="underline" textLength="100" x="670" y="716.6348">emptySet: EventSet</text><line style="stroke: #000000; stroke-width: 1.0;" x1="670" x2="770" y1="718.6348" y2="718.6348"/><text fill="#000000" font-family="sans-serif" font-size="11" lengthAdjust="spacingAndGlyphs" text-decoration="underline" textLength="79" x="670" y="729.5898">allSet: EventSet</text><line style="stroke: #000000; stroke-width: 1.0;" x1="670" x2="749" y1="731.5898" y2="731.5898"/><text fill="#000000" font-family="sans-serif" font-size="11" lengthAdjust="spacingAndGlyphs" text-decoration="underline" textLength="124" x="670" y="742.5449">noEvents: Set&lt;BEvent&gt;</text><line style="stroke: #000000; stroke-width: 1.0;" x1="670" x2="794" y1="744.5449" y2="744.5449"/><line style="stroke: #A80036; stroke-width: 1.5;" x1="665" x2="799" y1="748.8652" y2="748.8652"/><rect fill="#FEFECE" filter="url(#f1)" height="60.9551" style="stroke: #A80036; stroke-width: 1.5;" width="226" x="62" y="309"/><ellipse cx="107.25" cy="325" fill="#B4A7E5" rx="11" ry="11" style="stroke: #A80036; stroke-width: 1.0;"/><path d="M103.1777,320.7651 L103.1777,318.6069 L110.5571,318.6069 L110.5571,320.7651 L108.0918,320.7651 L108.0918,328.8418 L110.5571,328.8418 L110.5571,331 L103.1777,331 L103.1777,328.8418 L105.6431,328.8418 L105.6431,320.7651 Z "/><text fill="#000000" font-family="sans-serif" font-size="12" font-style="italic" lengthAdjust="spacingAndGlyphs" textLength="127" x="127.75" y="329.5352">EventSelectionStrategy</text><line style="stroke: #A80036; stroke-width: 1.5;" x1="63" x2="287" y1="341" y2="341"/><line style="stroke: #A80036; stroke-width: 1.5;" x1="63" x2="287" y1="349" y2="349"/><text fill="#000000" font-family="sans-serif" font-size="11" lengthAdjust="spacingAndGlyphs" textLength="214" x="68" y="363.6348">EventSelectionResult select(statements);</text><rect fill="#FEFECE" filter="url(#f1)" height="60.9551" style="stroke: #A80036; stroke-width: 1.5;" width="197" x="76.5" y="158"/><ellipse cx="91.5" cy="174" fill="#ADD1B2" rx="11" ry="11" style="stroke: #A80036; stroke-width: 1.0;"/><path d="M94.4731,179.6431 Q93.8921,179.9419 93.2529,180.0913 Q92.6138,180.2407 91.9082,180.2407 Q89.4014,180.2407 88.0815,178.5889 Q86.7617,176.937 86.7617,173.8159 Q86.7617,170.6865 88.0815,169.0347 Q89.4014,167.3828 91.9082,167.3828 Q92.6138,167.3828 93.2612,167.5322 Q93.9087,167.6816 94.4731,167.9805 L94.4731,170.7031 Q93.8423,170.1221 93.2488,169.8523 Q92.6553,169.5825 92.0244,169.5825 Q90.6797,169.5825 89.9949,170.6492 Q89.3101,171.7158 89.3101,173.8159 Q89.3101,175.9077 89.9949,176.9744 Q90.6797,178.041 92.0244,178.041 Q92.6553,178.041 93.2488,177.7712 Q93.8423,177.5015 94.4731,176.9204 Z "/><text fill="#000000" font-family="sans-serif" font-size="12" lengthAdjust="spacingAndGlyphs" textLength="165" x="105.5" y="178.5352">SimpleEventSelectionStrategy</text><line style="stroke: #A80036; stroke-width: 1.5;" x1="77.5" x2="272.5" y1="190" y2="190"/><ellipse cx="87.5" cy="201.9775" fill="none" rx="3" ry="3" style="stroke: #038048; stroke-width: 1.0;"/><text fill="#000000" font-family="sans-serif" font-size="11" lengthAdjust="spacingAndGlyphs" textLength="84" x="96.5" y="204.6348">randomSeed:int</text><line style="stroke: #A80036; stroke-width: 1.5;" x1="77.5" x2="272.5" y1="210.9551" y2="210.9551"/><rect fill="#FEFECE" filter="url(#f1)" height="60.9551" style="stroke: #A80036; stroke-width: 1.5;" width="80" x="609" y="309"/><ellipse cx="624" cy="325" fill="#ADD1B2" rx="11" ry="11" style="stroke: #A80036; stroke-width: 1.0;"/><path d="M626.9731,330.6431 Q626.3921,330.9419 625.7529,331.0913 Q625.1138,331.2407 624.4082,331.2407 Q621.9014,331.2407 620.5815,329.5889 Q619.2617,327.937 619.2617,324.8159 Q619.2617,321.6865 620.5815,320.0347 Q621.9014,318.3828 624.4082,318.3828 Q625.1138,318.3828 625.7612,318.5322 Q626.4087,318.6816 626.9731,318.9805 L626.9731,321.7031 Q626.3423,321.1221 625.7488,320.8523 Q625.1553,320.5825 624.5244,320.5825 Q623.1797,320.5825 622.4949,321.6492 Q621.8101,322.7158 621.8101,324.8159 Q621.8101,326.9077 622.4949,327.9744 Q623.1797,329.041 624.5244,329.041 Q625.1553,329.041 625.7488,328.7712 Q626.3423,328.5015 626.9731,327.9204 Z "/><text fill="#000000" font-family="sans-serif" font-size="12" lengthAdjust="spacingAndGlyphs" textLength="48" x="638" y="329.5352">Selected</text><line style="stroke: #A80036; stroke-width: 1.5;" x1="610" x2="688" y1="341" y2="341"/><ellipse cx="620" cy="352.9775" fill="none" rx="3" ry="3" style="stroke: #038048; stroke-width: 1.0;"/><text fill="#000000" font-family="sans-serif" font-size="11" lengthAdjust="spacingAndGlyphs" textLength="29" x="629" y="355.6348">event</text><line style="stroke: #A80036; stroke-width: 1.5;" x1="610" x2="688" y1="361.9551" y2="361.9551"/><rect fill="#FEFECE" filter="url(#f1)" height="60.9551" style="stroke: #A80036; stroke-width: 1.5;" width="127" x="538.5" y="158"/><ellipse cx="553.5" cy="174" fill="#ADD1B2" rx="11" ry="11" style="stroke: #A80036; stroke-width: 1.0;"/><path d="M556.4731,179.6431 Q555.8921,179.9419 555.2529,180.0913 Q554.6138,180.2407 553.9082,180.2407 Q551.4014,180.2407 550.0815,178.5889 Q548.7617,176.937 548.7617,173.8159 Q548.7617,170.6865 550.0815,169.0347 Q551.4014,167.3828 553.9082,167.3828 Q554.6138,167.3828 555.2612,167.5322 Q555.9087,167.6816 556.4731,167.9805 L556.4731,170.7031 Q555.8423,170.1221 555.2488,169.8523 Q554.6553,169.5825 554.0244,169.5825 Q552.6797,169.5825 551.9949,170.6492 Q551.3101,171.7158 551.3101,173.8159 Q551.3101,175.9077 551.9949,176.9744 Q552.6797,178.041 554.0244,178.041 Q554.6553,178.041 555.2488,177.7712 Q555.8423,177.5015 556.4731,176.9204 Z "/><text fill="#000000" font-family="sans-serif" font-size="12" lengthAdjust="spacingAndGlyphs" textLength="95" x="567.5" y="178.5352">SelectedExternal</text><line style="stroke: #A80036; stroke-width: 1.5;" x1="539.5" x2="664.5" y1="190" y2="190"/><ellipse cx="549.5" cy="201.9775" fill="none" rx="3" ry="3" style="stroke: #038048; stroke-width: 1.0;"/><text fill="#000000" font-family="sans-serif" font-size="11" lengthAdjust="spacingAndGlyphs" textLength="30" x="558.5" y="204.6348">index</text><line style="stroke: #A80036; stroke-width: 1.5;" x1="539.5" x2="664.5" y1="210.9551" y2="210.9551"/><rect fill="#FEFECE" filter="url(#f1)" height="67.2207" style="stroke: #A80036; stroke-width: 1.5;" width="151" x="363.5" y="484"/><ellipse cx="379.85" cy="503.1328" fill="#ADD1B2" rx="11" ry="11" style="stroke: #A80036; stroke-width: 1.0;"/><path d="M382.8231,508.7759 Q382.2421,509.0747 381.6029,509.2241 Q380.9638,509.3735 380.2582,509.3735 Q377.7514,509.3735 376.4315,507.7217 Q375.1117,506.0698 375.1117,502.9487 Q375.1117,499.8193 376.4315,498.1675 Q377.7514,496.5156 380.2582,496.5156 Q380.9638,496.5156 381.6112,496.665 Q382.2587,496.8145 382.8231,497.1133 L382.8231,499.8359 Q382.1923,499.2549 381.5988,498.9851 Q381.0053,498.7153 380.3744,498.7153 Q379.0297,498.7153 378.3449,499.782 Q377.6601,500.8486 377.6601,502.9487 Q377.6601,505.0405 378.3449,506.1072 Q379.0297,507.1738 380.3744,507.1738 Q381.0053,507.1738 381.5988,506.9041 Q382.1923,506.6343 382.8231,506.0532 Z "/><text fill="#000000" font-family="sans-serif" font-size="12" font-style="italic" lengthAdjust="spacingAndGlyphs" textLength="59" x="422.65" y="500.6016">«abstract»</text><text fill="#000000" font-family="sans-serif" font-size="12" lengthAdjust="spacingAndGlyphs" textLength="116" x="394.15" y="514.7344">EventSelectionResult</text><line style="stroke: #A80036; stroke-width: 1.5;" x1="364.5" x2="513.5" y1="522.2656" y2="522.2656"/><line style="stroke: #A80036; stroke-width: 1.5;" x1="364.5" x2="513.5" y1="530.2656" y2="530.2656"/><ellipse cx="374.5" cy="542.2432" fill="#84BE84" rx="3" ry="3" style="stroke: #038048; stroke-width: 1.0;"/><text fill="#000000" font-family="sans-serif" font-size="11" lengthAdjust="spacingAndGlyphs" textLength="125" x="383.5" y="544.9004">accept( Visitor&lt;R&gt; ) : R</text><rect fill="#FEFECE" filter="url(#f1)" height="54.2656" style="stroke: #A80036; stroke-width: 1.5;" width="91" x="482.5" y="312.5"/><ellipse cx="497.5" cy="331.6328" fill="#ADD1B2" rx="11" ry="11" style="stroke: #A80036; stroke-width: 1.0;"/><path d="M500.4731,337.2759 Q499.8921,337.5747 499.2529,337.7241 Q498.6138,337.8735 497.9082,337.8735 Q495.4014,337.8735 494.0815,336.2217 Q492.7617,334.5698 492.7617,331.4487 Q492.7617,328.3193 494.0815,326.6675 Q495.4014,325.0156 497.9082,325.0156 Q498.6138,325.0156 499.2612,325.165 Q499.9087,325.3145 500.4731,325.6133 L500.4731,328.3359 Q499.8423,327.7549 499.2488,327.4851 Q498.6553,327.2153 498.0244,327.2153 Q496.6797,327.2153 495.9949,328.282 Q495.3101,329.3486 495.3101,331.4487 Q495.3101,333.5405 495.9949,334.6072 Q496.6797,335.6738 498.0244,335.6738 Q498.6553,335.6738 499.2488,335.4041 Q499.8423,335.1343 500.4731,334.5532 Z "/><text fill="#000000" font-family="sans-serif" font-size="12" font-style="italic" lengthAdjust="spacingAndGlyphs" textLength="63" x="509.5" y="329.1016">«Singleton»</text><text fill="#000000" font-family="sans-serif" font-size="12" lengthAdjust="spacingAndGlyphs" textLength="54" x="514" y="343.2344">Deadlock</text><line style="stroke: #A80036; stroke-width: 1.5;" x1="483.5" x2="572.5" y1="350.7656" y2="350.7656"/><line style="stroke: #A80036; stroke-width: 1.5;" x1="483.5" x2="572.5" y1="358.7656" y2="358.7656"/><rect fill="#FEFECE" filter="url(#f1)" height="54.2656" style="stroke: #A80036; stroke-width: 1.5;" width="124" x="323" y="312.5"/><ellipse cx="338" cy="331.6328" fill="#ADD1B2" rx="11" ry="11" style="stroke: #A80036; stroke-width: 1.0;"/><path d="M340.9731,337.2759 Q340.3921,337.5747 339.7529,337.7241 Q339.1138,337.8735 338.4082,337.8735 Q335.9014,337.8735 334.5815,336.2217 Q333.2617,334.5698 333.2617,331.4487 Q333.2617,328.3193 334.5815,326.6675 Q335.9014,325.0156 338.4082,325.0156 Q339.1138,325.0156 339.7612,325.165 Q340.4087,325.3145 340.9731,325.6133 L340.9731,328.3359 Q340.3423,327.7549 339.7488,327.4851 Q339.1553,327.2153 338.5244,327.2153 Q337.1797,327.2153 336.4949,328.282 Q335.8101,329.3486 335.8101,331.4487 Q335.8101,333.5405 336.4949,334.6072 Q337.1797,335.6738 338.5244,335.6738 Q339.1553,335.6738 339.7488,335.4041 Q340.3423,335.1343 340.9731,334.5532 Z "/><text fill="#000000" font-family="sans-serif" font-size="12" font-style="italic" lengthAdjust="spacingAndGlyphs" textLength="63" x="366.5" y="329.1016">«Singleton»</text><text fill="#000000" font-family="sans-serif" font-size="12" lengthAdjust="spacingAndGlyphs" textLength="92" x="352" y="343.2344">NoneRequested</text><line style="stroke: #A80036; stroke-width: 1.5;" x1="324" x2="446" y1="350.7656" y2="350.7656"/><line style="stroke: #A80036; stroke-width: 1.5;" x1="324" x2="446" y1="358.7656" y2="358.7656"/><path d="M1366.47,212.781 C1341.47,236.509 1302.31,273.671 1273.04,301.448 " fill="none" style="stroke: #A80036; stroke-width: 1.0; stroke-dasharray: 7.0,7.0;"/><polygon fill="none" points="1277.68,306.692,1258.36,315.382,1268.05,296.537,1277.68,306.692" style="stroke: #A80036; stroke-width: 1.0;"/><path d="M1223.03,212.781 C1224.95,234.759 1227.87,268.264 1230.22,295.16 " fill="none" style="stroke: #A80036; stroke-width: 1.0; stroke-dasharray: 7.0,7.0;"/><polygon fill="none" points="1237.22,294.849,1231.98,315.382,1223.27,296.066,1237.22,294.849" style="stroke: #A80036; stroke-width: 1.0;"/><path d="M1046.8,381.561 C1028.06,412.1 1002.781,453.301 985.101,482.113 " fill="none" style="stroke: #A80036; stroke-width: 1.0;"/><polygon fill="#A80036" points="978.263,493.256,986.3794,487.6772,980.8781,488.9944,979.5609,483.493,978.263,493.256" style="stroke: #A80036; stroke-width: 1.0;"/><line style="stroke: #A80036; stroke-width: 1.0;" x1="980.8781" x2="985.0625" y1="488.9944" y2="482.176"/><polygon fill="#A80036" points="1053.68,370.356,1047.1331,373.379,1047.4055,380.5849,1053.9524,377.562,1053.68,370.356" style="stroke: #A80036; stroke-width: 1.0;"/><text fill="#000000" font-family="sans-serif" font-size="13" lengthAdjust="spacingAndGlyphs" textLength="24" x="954.8429" y="482.7297">0..1</text><path d="M1070.66,238.704 C1070.91,257.079 1071.19,277.783 1071.42,295.551 " fill="none" style="stroke: #A80036; stroke-width: 1.0;"/><polygon fill="#A80036" points="1071.6,308.773,1075.479,299.7202,1071.533,303.7734,1067.4797,299.8274,1071.6,308.773" style="stroke: #A80036; stroke-width: 1.0;"/><line style="stroke: #A80036; stroke-width: 1.0;" x1="1071.533" x2="1071.43" y1="303.7734" y2="295.774"/><polygon fill="#A80036" points="1070.48,225.569,1066.5615,231.6225,1070.6422,237.5679,1074.5607,231.5144,1070.48,225.569" style="stroke: #A80036; stroke-width: 1.0;"/><text fill="#000000" font-family="sans-serif" font-size="13" lengthAdjust="spacingAndGlyphs" textLength="22" x="1047.2488" y="298.4937">1..*</text><path d="M1119.37,234.353 C1144.93,257.575 1175.54,285.39 1198.7,306.431 " fill="none" style="stroke: #A80036; stroke-width: 1.0;"/><polygon fill="#A80036" points="1208.45,315.29,1204.4792,306.2771,1204.7496,311.9275,1199.0992,312.1978,1208.45,315.29" style="stroke: #A80036; stroke-width: 1.0;"/><line style="stroke: #A80036; stroke-width: 1.0;" x1="1204.7496" x2="1198.83" y1="311.9275" y2="306.5485"/><polygon fill="#A80036" points="1109.7,225.569,1111.4505,232.5644,1118.5811,233.6391,1116.8306,226.6437,1109.7,225.569" style="stroke: #A80036; stroke-width: 1.0;"/><text fill="#000000" font-family="sans-serif" font-size="13" lengthAdjust="spacingAndGlyphs" textLength="54" x="1163" y="269.0684">listeners</text><text fill="#000000" font-family="sans-serif" font-size="13" lengthAdjust="spacingAndGlyphs" textLength="22" x="1177.0841" y="304.7725">1..*</text><path d="M935.133,389.485 C941.704,418.399 949.877,454.358 955.847,480.627 " fill="none" style="stroke: #A80036; stroke-width: 1.0;"/><polygon fill="#A80036" points="958.748,493.392,960.6538,483.7293,957.6398,488.5164,952.8527,485.5024,958.748,493.392" style="stroke: #A80036; stroke-width: 1.0;"/><line style="stroke: #A80036; stroke-width: 1.0;" x1="957.6398" x2="955.867" y1="488.5164" y2="480.7155"/><polygon fill="#FFFFFF" points="932.191,376.541,929.6203,383.2783,934.8507,388.2425,937.4214,381.5052,932.191,376.541" style="stroke: #A80036; stroke-width: 1.0;"/><text fill="#000000" font-family="sans-serif" font-size="13" lengthAdjust="spacingAndGlyphs" textLength="22" x="932.5834" y="482.9006">1..*</text><path d="M881.162,763.998 C879.401,782.012 877.466,801.81 875.922,817.606 " fill="none" style="stroke: #A80036; stroke-width: 1.0; stroke-dasharray: 7.0,7.0;"/><polygon fill="none" points="874.202,763.241,883.115,744.017,888.136,764.603,874.202,763.241" style="stroke: #A80036; stroke-width: 1.0;"/><path d="M796.593,839.0071 C744.635,828.81 679.467,806.371 646,757 C608.843,702.185 612.499,665.123 646,608 C661.2,582.083 679.832,591.41 705,575 C716.901,567.24 729.391,558.216 740.689,549.688 " fill="none" style="stroke: #A80036; stroke-width: 1.0;"/><polygon fill="#A80036" points="751.099,541.72,741.5209,544.0134,747.1284,544.7588,746.383,550.3663,751.099,541.72" style="stroke: #A80036; stroke-width: 1.0;"/><line style="stroke: #A80036; stroke-width: 1.0;" x1="747.1284" x2="740.7755" y1="544.7588" y2="549.6215"/><polygon fill="#A80036" points="809.491,841.3448,804.3006,836.3388,797.6834,839.2046,802.8738,844.2106,809.491,841.3448" style="stroke: #A80036; stroke-width: 1.0;"/><text fill="#000000" font-family="sans-serif" font-size="13" lengthAdjust="spacingAndGlyphs" textLength="22" x="719.3731" y="562.058">0..*</text><path d="M613.376,370.356 C580.509,397.902 531.225,439.207 493.427,470.885 " fill="none" style="stroke: #A80036; stroke-width: 1.0;"/><polygon fill="none" points="497.838,476.322,478.013,483.803,488.845,465.592,497.838,476.322" style="stroke: #A80036; stroke-width: 1.0;"/><path d="M600.215,219.363 C600.135,235.466 601.481,255.472 607,272.5 C609.105,278.995 612.004,285.485 615.302,291.72 " fill="none" style="stroke: #A80036; stroke-width: 1.0;"/><polygon fill="none" points="621.333,288.167,625.663,308.909,609.343,295.394,621.333,288.167" style="stroke: #A80036; stroke-width: 1.0;"/><path d="M514.676,366.849 C501.461,392.982 480.875,433.692 464.508,466.058 " fill="none" style="stroke: #A80036; stroke-width: 1.0;"/><polygon fill="none" points="470.718,469.288,455.446,483.977,458.225,462.97,470.718,469.288" style="stroke: #A80036; stroke-width: 1.0;"/><path d="M393.084,366.849 C400.99,392.615 413.244,432.553 423.104,464.692 " fill="none" style="stroke: #A80036; stroke-width: 1.0;"/><polygon fill="none" points="429.847,462.803,429.021,483.977,416.463,466.91,429.847,462.803" style="stroke: #A80036; stroke-width: 1.0;"/><path d="M175,219.294 C175,239.089 175,265.566 175,288.539 " fill="none" style="stroke: #A80036; stroke-width: 1.0; stroke-dasharray: 7.0,7.0;"/><polygon fill="none" points="182,288.757,175,308.757,168,288.757,182,288.757" style="stroke: #A80036; stroke-width: 1.0;"/><path d="M219.485,370.157 C265.274,400.683 336.633,448.255 385.48,480.82 " fill="none" style="stroke: #A80036; stroke-width: 1.0; stroke-dasharray: 7.0,7.0;"/><polygon fill="#A80036" points="389.84,483.727,384.5697,475.4069,385.6795,480.9538,380.1326,482.0637,389.84,483.727" style="stroke: #A80036; stroke-width: 1.0;"/><text fill="#000000" font-family="sans-serif" font-size="13" lengthAdjust="spacingAndGlyphs" textLength="85" x="301" y="420.0684">&lt;&lt;creates&gt;&gt;</text><path d="M274.975,308.986 C285.057,306.53 295.192,304.305 305,302.5 C491.909,268.11 541.132,273.73 731,265.5 C778.067,263.46 792.784,249.239 837,265.5 C855.882,272.444 873.463,285.508 887.808,298.749 " fill="none" style="stroke: #A80036; stroke-width: 1.0; stroke-dasharray: 7.0,7.0;"/><polygon fill="#A80036" points="891.767,302.484,887.9656,293.3984,888.1301,299.0528,882.4757,299.2174,891.767,302.484" style="stroke: #A80036; stroke-width: 1.0;"/><text fill="#000000" font-family="sans-serif" font-size="13" lengthAdjust="spacingAndGlyphs" textLength="104" x="732" y="269.0684">&lt;&lt;consumes&gt;&gt;</text><path d="M995.902,197.362 C858.668,212.605 556.054,249.409 305,302.5 C300.051,303.547 295.011,304.673 289.931,305.858 " fill="none" style="stroke: #A80036; stroke-width: 1.0;"/><polygon fill="#A80036" points="277.251,308.913,286.9377,310.6929,282.1118,307.7415,285.0633,302.9156,277.251,308.913" style="stroke: #A80036; stroke-width: 1.0;"/><line style="stroke: #A80036; stroke-width: 1.0;" x1="282.1118" x2="289.89" y1="307.7415" y2="305.868"/><polygon fill="#A80036" points="1009.05,195.911,1002.6479,192.5924,997.1222,197.2256,1003.5243,200.5442,1009.05,195.911" style="stroke: #A80036; stroke-width: 1.0;"/><text fill="#000000" font-family="sans-serif" font-size="13" lengthAdjust="spacingAndGlyphs" textLength="81" x="557" y="269.0684">&lt;&lt;arbiter&gt;&gt;</text><path d="M792.576,541.516 C809.156,571.86 838.729,625.986 860.171,665.228 " fill="none" style="stroke: #A80036; stroke-width: 1.0; stroke-dasharray: 7.0,7.0;"/><polygon fill="none" points="866.359,661.955,869.806,682.862,854.074,668.668,866.359,661.955" style="stroke: #A80036; stroke-width: 1.0;"/><path d="M903.31,549.183 C891.127,558.319 879.946,569.562 873,583 C859.153,609.787 863.276,643.838 870.396,670.3 " fill="none" style="stroke: #A80036; stroke-width: 1.0;"/><polygon fill="#A80036" points="874.189,682.991,875.4441,673.2224,872.7572,678.2004,867.7792,675.5134,874.189,682.991" style="stroke: #A80036; stroke-width: 1.0;"/><line style="stroke: #A80036; stroke-width: 1.0;" x1="872.7572" x2="870.4665" y1="678.2004" y2="670.536"/><polygon fill="#A80036" points="914.194,541.695,906.9837,541.8011,904.3085,548.4977,911.5188,548.3915,914.194,541.695" style="stroke: #A80036; stroke-width: 1.0;"/><text fill="#000000" font-family="sans-serif" font-size="13" lengthAdjust="spacingAndGlyphs" textLength="46" x="874" y="596.5684">waitFor</text><path d="M949.863,553.662 C936.628,586.579 916.841,635.793 902.805,670.704 " fill="none" style="stroke: #A80036; stroke-width: 1.0;"/><polygon fill="#A80036" points="897.916,682.862,904.9849,676.0041,899.7814,678.223,897.5625,673.0195,897.916,682.862" style="stroke: #A80036; stroke-width: 1.0;"/><line style="stroke: #A80036; stroke-width: 1.0;" x1="899.7814" x2="902.7655" y1="678.223" y2="670.8005"/><polygon fill="#A80036" points="954.746,541.516,948.7963,545.5905,950.2691,552.6496,956.2187,548.5751,954.746,541.516" style="stroke: #A80036; stroke-width: 1.0;"/><text fill="#000000" font-family="sans-serif" font-size="13" lengthAdjust="spacingAndGlyphs" textLength="35" x="938" y="596.5684">block</text><path d="M975.916,554.534 C978.435,563.715 980.718,573.636 982,583 C990.432,644.587 994.445,673.968 954,757 C944.922,775.637 930.871,793.306 917.004,808.003 " fill="none" style="stroke: #A80036; stroke-width: 1.0;"/><polygon fill="#A80036" points="907.498,817.678,916.659,814.0619,911.0024,814.1116,910.9527,808.4549,907.498,817.678" style="stroke: #A80036; stroke-width: 1.0;"/><line style="stroke: #A80036; stroke-width: 1.0;" x1="911.0024" x2="916.6095" y1="814.1116" y2="808.405"/><polygon fill="#A80036" points="972.146,541.765,970.0088,548.6521,975.5441,553.2738,977.6813,546.3867,972.146,541.765" style="stroke: #A80036; stroke-width: 1.0;"/><text fill="#000000" font-family="sans-serif" font-size="13" lengthAdjust="spacingAndGlyphs" textLength="47" x="989" y="718.5684">request</text><path d="M679.226,381.109 C702.077,411.81 733.092,453.478 754.653,482.447 " fill="none" style="stroke: #A80036; stroke-width: 1.0;"/><polygon fill="#A80036" points="762.699,493.256,760.5336,483.6481,759.7134,489.2452,754.1164,488.425,762.699,493.256" style="stroke: #A80036; stroke-width: 1.0;"/><line style="stroke: #A80036; stroke-width: 1.0;" x1="759.7134" x2="754.937" y1="489.2452" y2="482.828"/><polygon fill="#FFFFFF" points="671.222,370.356,671.5954,377.5574,678.3865,379.9825,678.0131,372.7811,671.222,370.356" style="stroke: #A80036; stroke-width: 1.0;"/><text fill="#000000" font-family="sans-serif" font-size="13" lengthAdjust="spacingAndGlyphs" textLength="90" x="712" y="420.0684">selected event</text><polygon fill="#DDDDDD" points="592,953,592,1061.9297,975,1061.9297,975,953,592,953" style="stroke: #000000; stroke-width: 1.0;"/><text fill="#000000" font-family="sans-serif" font-size="14" font-weight="bold" lengthAdjust="spacingAndGlyphs" textLength="245" x="598" y="971.5352">Main classes and methods for the</text><text fill="#000000" font-family="sans-serif" font-size="14" font-style="italic" font-weight="bold" lengthAdjust="spacingAndGlyphs" textLength="18" x="848" y="971.5352">bp</text><text fill="#000000" font-family="sans-serif" font-size="14" font-weight="bold" lengthAdjust="spacingAndGlyphs" textLength="98" x="871" y="971.5352">package. This</text><text fill="#000000" font-family="sans-serif" font-size="14" font-weight="bold" lengthAdjust="spacingAndGlyphs" textLength="279" x="598" y="988.0234">is not an exhaustive list of everything,</text><text fill="#000000" font-family="sans-serif" font-size="14" font-weight="bold" lengthAdjust="spacingAndGlyphs" textLength="309" x="598" y="1004.5117">just what you need to know to get started.</text><text fill="#000000" font-family="sans-serif" font-size="14" lengthAdjust="spacingAndGlyphs" textLength="0" x="602" y="1021"/><text fill="#000000" font-family="sans-serif" font-size="14" lengthAdjust="spacingAndGlyphs" textLength="316" x="598" y="1037.4883">The main class, from client code point of view,</text><text fill="#000000" font-family="sans-serif" font-size="14" lengthAdjust="spacingAndGlyphs" textLength="11" x="598" y="1053.9766">is</text><text fill="#000000" font-family="sans-serif" font-size="14" font-style="italic" lengthAdjust="spacingAndGlyphs" textLength="67" x="613" y="1053.9766">BProgram</text><text fill="#000000" font-family="sans-serif" font-size="14" lengthAdjust="spacingAndGlyphs" textLength="4" x="680" y="1053.9766">.</text></g></svg>