<?xml version="1.0" encoding="UTF-8" standalone="yes"?><svg xmlns="http://www.w3.org/2000/svg" xmlns:xlink="http://www.w3.org/1999/xlink" height="949px" style="width:1459px;height:949px;" version="1.1" viewBox="0 0 1459 949" width="1459px"><defs><filter height="300%" id="f1" width="300%" x="-1" y="-1"><feGaussianBlur result="blurOut" stdDeviation="2.0"/><feColorMatrix in="blurOut" result="blurOut2" type="matrix" values="0 0 0 0 0 0 0 0 0 0 0 0 0 0 0 0 0 0 .4 0"/><feOffset dx="4.0" dy="4.0" in="blurOut2" result="blurOut3"/><feBlend in="SourceGraphic" in2="blurOut3" mode="normal"/></filter></defs><g><polygon fill="#FFFFFF" filter="url(#f1)" points="22,24,46,24,53,46.4883,1452,46.4883,1452,942,22,942,22,24" style="stroke: #000000; stroke-width: 2.0;"/><line style="stroke: #000000; stroke-width: 2.0;" x1="22" x2="53" y1="46.4883" y2="46.4883"/><text fill="#000000" font-family="sans-serif" font-size="14" font-weight="bold" lengthAdjust="spacingAndGlyphs" textLength="18" x="26" y="39.5352">bp</text><polygon fill="#FFFFFF" filter="url(#f1)" points="813,67,889,67,896,89.4883,1428,89.4883,1428,636.5,813,636.5,813,67" style="stroke: #000000; stroke-width: 2.0;"/><line style="stroke: #000000; stroke-width: 2.0;" x1="813" x2="896" y1="89.4883" y2="89.4883"/><text fill="#000000" font-family="sans-serif" font-size="14" font-weight="bold" lengthAdjust="spacingAndGlyphs" textLength="70" x="817" y="82.5352">bprogram</text><polygon fill="#FFFFFF" filter="url(#f1)" points="1067,245.5,1142,245.5,1149,267.9883,1404,267.9883,1404,489,1067,489,1067,245.5" style="stroke: #000000; stroke-width: 2.0;"/><line style="stroke: #000000; stroke-width: 2.0;" x1="1067" x2="1149" y1="267.9883" y2="267.9883"/><text fill="#000000" font-family="sans-serif" font-size="14" font-weight="bold" lengthAdjust="spacingAndGlyphs" textLength="69" x="1071" y="261.0352">listenters</text><polygon fill="#FFFFFF" filter="url(#f1)" points="532,695,585,695,592,717.4883,634,717.4883,634,794,532,794,532,695" style="stroke: #000000; stroke-width: 2.0;"/><line style="stroke: #000000; stroke-width: 2.0;" x1="532" x2="592" y1="717.4883" y2="717.4883"/><text fill="#000000" font-family="sans-serif" font-size="14" font-weight="bold" lengthAdjust="spacingAndGlyphs" textLength="47" x="536" y="710.5352">events</text><polygon fill="#FFFFFF" filter="url(#f1)" points="743,695,818,695,825,717.4883,897,717.4883,897,918,743,918,743,695" style="stroke: #000000; stroke-width: 2.0;"/><line style="stroke: #000000; stroke-width: 2.0;" x1="743" x2="825" y1="717.4883" y2="717.4883"/><text fill="#000000" font-family="sans-serif" font-size="14" font-weight="bold" lengthAdjust="spacingAndGlyphs" textLength="69" x="747" y="710.5352">eventsets</text><polygon fill="#FFFFFF" filter="url(#f1)" points="46,239,156,239,163,261.4883,705,261.4883,705,646,46,646,46,239" style="stroke: #000000; stroke-width: 2.0;"/><line style="stroke: #000000; stroke-width: 2.0;" x1="46" x2="163" y1="261.4883" y2="261.4883"/><text fill="#000000" font-family="sans-serif" font-size="14" font-weight="bold" lengthAdjust="spacingAndGlyphs" textLength="104" x="50" y="254.5352">eventselection</text><polygon fill="#FBFB77" filter="url(#f1)" points="232.5,60,232.5,192.4844,599.5,192.4844,599.5,70,589.5,60,232.5,60" style="stroke: #A80036; stroke-width: 1.0;"/><line style="stroke: #A80036; stroke-width: 1.0;" x1="589.5" x2="589.5" y1="60" y2="70"/><line style="stroke: #A80036; stroke-width: 1.0;" x1="599.5" x2="589.5" y1="70" y2="70"/><text fill="#000000" font-family="sans-serif" font-size="13" font-weight="bold" lengthAdjust="spacingAndGlyphs" textLength="227" x="238.5" y="77.5684">Main classes and methods for the</text><text fill="#000000" font-family="sans-serif" font-size="13" font-style="italic" font-weight="bold" lengthAdjust="spacingAndGlyphs" textLength="18" x="469.5" y="77.5684">bp</text><text fill="#000000" font-family="sans-serif" font-size="13" font-weight="bold" lengthAdjust="spacingAndGlyphs" textLength="93" x="491.5" y="77.5684">package. This</text><text fill="#000000" font-family="sans-serif" font-size="13" font-weight="bold" lengthAdjust="spacingAndGlyphs" textLength="258" x="238.5" y="92.8789">is not an exhaustive list of everything,</text><text fill="#000000" font-family="sans-serif" font-size="13" font-weight="bold" lengthAdjust="spacingAndGlyphs" textLength="284" x="238.5" y="108.1895">just what you need to know to get started.</text><text fill="#000000" font-family="sans-serif" font-size="13" lengthAdjust="spacingAndGlyphs" textLength="0" x="242.5" y="123.5"/><text fill="#000000" font-family="sans-serif" font-size="13" lengthAdjust="spacingAndGlyphs" textLength="309" x="238.5" y="138.8105">The main classes, from client code point of view,</text><text fill="#000000" font-family="sans-serif" font-size="13" lengthAdjust="spacingAndGlyphs" textLength="19" x="238.5" y="154.1211">are</text><text fill="#000000" font-family="sans-serif" font-size="13" font-style="italic" lengthAdjust="spacingAndGlyphs" textLength="59" x="261.5" y="154.1211">BProgram</text><text fill="#000000" font-family="sans-serif" font-size="13" lengthAdjust="spacingAndGlyphs" textLength="23" x="324.5" y="154.1211">and</text><text fill="#000000" font-family="sans-serif" font-size="13" font-style="italic" lengthAdjust="spacingAndGlyphs" textLength="120" x="351.5" y="154.1211">BJavascriptProgram</text><text fill="#000000" font-family="sans-serif" font-size="13" lengthAdjust="spacingAndGlyphs" textLength="4" x="471.5" y="154.1211">.</text><text fill="#000000" font-family="sans-serif" font-size="13" lengthAdjust="spacingAndGlyphs" textLength="0" x="242.5" y="169.4316"/><text fill="#000000" font-family="sans-serif" font-size="13" lengthAdjust="spacingAndGlyphs" textLength="165" x="238.5" y="184.7422">They will be merged soon.</text><rect fill="#FEFECE" filter="url(#f1)" height="60.9551" style="stroke: #A80036; stroke-width: 1.5;" width="88" x="960" y="274"/><ellipse cx="975" cy="290" fill="#ADD1B2" rx="11" ry="11" style="stroke: #A80036; stroke-width: 1.0;"/><path d="M977.9731,295.6431 Q977.3921,295.9419 976.7529,296.0913 Q976.1138,296.2407 975.4082,296.2407 Q972.9014,296.2407 971.5815,294.5889 Q970.2617,292.937 970.2617,289.8159 Q970.2617,286.6865 971.5815,285.0347 Q972.9014,283.3828 975.4082,283.3828 Q976.1138,283.3828 976.7612,283.5322 Q977.4087,283.6816 977.9731,283.9805 L977.9731,286.7031 Q977.3423,286.1221 976.7488,285.8523 Q976.1553,285.5825 975.5244,285.5825 Q974.1797,285.5825 973.4949,286.6492 Q972.8101,287.7158 972.8101,289.8159 Q972.8101,291.9077 973.4949,292.9744 Q974.1797,294.041 975.5244,294.041 Q976.1553,294.041 976.7488,293.7712 Q977.3423,293.5015 977.9731,292.9204 Z "/><text fill="#000000" font-family="sans-serif" font-size="12" lengthAdjust="spacingAndGlyphs" textLength="56" x="989" y="294.5352">BProgram</text><line style="stroke: #A80036; stroke-width: 1.5;" x1="961" x2="1047" y1="306" y2="306"/><line style="stroke: #A80036; stroke-width: 1.5;" x1="961" x2="1047" y1="314" y2="314"/><ellipse cx="971" cy="325.9775" fill="#84BE84" rx="3" ry="3" style="stroke: #038048; stroke-width: 1.0;"/><text fill="#000000" font-family="sans-serif" font-size="11" lengthAdjust="spacingAndGlyphs" textLength="33" x="980" y="328.6348">start()</text><rect fill="#FEFECE" filter="url(#f1)" height="48" style="stroke: #A80036; stroke-width: 1.5;" width="144" x="1011" y="102"/><ellipse cx="1026" cy="118" fill="#ADD1B2" rx="11" ry="11" style="stroke: #A80036; stroke-width: 1.0;"/><path d="M1028.9731,123.6431 Q1028.3921,123.9419 1027.7529,124.0913 Q1027.1138,124.2407 1026.4082,124.2407 Q1023.9014,124.2407 1022.5815,122.5889 Q1021.2617,120.937 1021.2617,117.8159 Q1021.2617,114.6865 1022.5815,113.0347 Q1023.9014,111.3828 1026.4082,111.3828 Q1027.1138,111.3828 1027.7612,111.5322 Q1028.4087,111.6816 1028.9731,111.9805 L1028.9731,114.7031 Q1028.3423,114.1221 1027.7488,113.8523 Q1027.1553,113.5825 1026.5244,113.5825 Q1025.1797,113.5825 1024.4949,114.6492 Q1023.8101,115.7158 1023.8101,117.8159 Q1023.8101,119.9077 1024.4949,120.9744 Q1025.1797,122.041 1026.5244,122.041 Q1027.1553,122.041 1027.7488,121.7712 Q1028.3423,121.5015 1028.9731,120.9204 Z "/><text fill="#000000" font-family="sans-serif" font-size="12" lengthAdjust="spacingAndGlyphs" textLength="112" x="1040" y="122.5352">BJavascriptProgram</text><line style="stroke: #A80036; stroke-width: 1.5;" x1="1012" x2="1154" y1="134" y2="134"/><line style="stroke: #A80036; stroke-width: 1.5;" x1="1012" x2="1154" y1="142" y2="142"/><polygon fill="#FBFB77" filter="url(#f1)" points="829,113.5,829,138.8105,941,138.8105,941,123.5,931,113.5,829,113.5" style="stroke: #A80036; stroke-width: 1.0;"/><polygon fill="#FBFB77" points="829,113.5,829,138.8105,941,138.8105,941,131.5,1010.93,126,941,123.5,941,123.5,931,113.5,829,113.5" style="stroke: #A80036; stroke-width: 1.0;"/><line style="stroke: #A80036; stroke-width: 1.0;" x1="931" x2="931" y1="113.5" y2="123.5"/><line style="stroke: #A80036; stroke-width: 1.0;" x1="941" x2="931" y1="123.5" y2="123.5"/><text fill="#000000" font-family="sans-serif" font-size="13" lengthAdjust="spacingAndGlyphs" textLength="91" x="835" y="131.0684">Has JS content</text><rect fill="#FEFECE" filter="url(#f1)" height="48" style="stroke: #A80036; stroke-width: 1.5;" width="81" x="969.5" y="425"/><ellipse cx="984.5" cy="441" fill="#ADD1B2" rx="11" ry="11" style="stroke: #A80036; stroke-width: 1.0;"/><path d="M987.4731,446.6431 Q986.8921,446.9419 986.2529,447.0913 Q985.6138,447.2407 984.9082,447.2407 Q982.4014,447.2407 981.0815,445.5889 Q979.7617,443.937 979.7617,440.8159 Q979.7617,437.6865 981.0815,436.0347 Q982.4014,434.3828 984.9082,434.3828 Q985.6138,434.3828 986.2612,434.5322 Q986.9087,434.6816 987.4731,434.9805 L987.4731,437.7031 Q986.8423,437.1221 986.2488,436.8523 Q985.6553,436.5825 985.0244,436.5825 Q983.6797,436.5825 982.9949,437.6492 Q982.3101,438.7158 982.3101,440.8159 Q982.3101,442.9077 982.9949,443.9744 Q983.6797,445.041 985.0244,445.041 Q985.6553,445.041 986.2488,444.7712 Q986.8423,444.5015 987.4731,443.9204 Z "/><text fill="#000000" font-family="sans-serif" font-size="12" lengthAdjust="spacingAndGlyphs" textLength="49" x="998.5" y="445.5352">BThread</text><line style="stroke: #A80036; stroke-width: 1.5;" x1="970.5" x2="1049.5" y1="457" y2="457"/><line style="stroke: #A80036; stroke-width: 1.5;" x1="970.5" x2="1049.5" y1="465" y2="465"/><polygon fill="#FBFB77" filter="url(#f1)" points="978,584,978,609.3105,1090,609.3105,1090,594,1080,584,978,584" style="stroke: #A80036; stroke-width: 1.0;"/><polygon fill="#FBFB77" points="978,584,978,609.3105,1090,609.3105,1090,594,1080,584,1036.05,584,1013.8,473.055,1028.05,584,978,584" style="stroke: #A80036; stroke-width: 1.0;"/><line style="stroke: #A80036; stroke-width: 1.0;" x1="1080" x2="1080" y1="584" y2="594"/><line style="stroke: #A80036; stroke-width: 1.0;" x1="1090" x2="1080" y1="594" y2="594"/><text fill="#000000" font-family="sans-serif" font-size="13" lengthAdjust="spacingAndGlyphs" textLength="91" x="984" y="601.5684">Has JS content</text><rect fill="#FEFECE" filter="url(#f1)" height="73.9102" style="stroke: #A80036; stroke-width: 1.5;" width="105" x="829.5" y="412"/><ellipse cx="850.35" cy="428" fill="#ADD1B2" rx="11" ry="11" style="stroke: #A80036; stroke-width: 1.0;"/><path d="M853.3231,433.6431 Q852.7421,433.9419 852.1029,434.0913 Q851.4638,434.2407 850.7582,434.2407 Q848.2514,434.2407 846.9315,432.5889 Q845.6117,430.937 845.6117,427.8159 Q845.6117,424.6865 846.9315,423.0347 Q848.2514,421.3828 850.7582,421.3828 Q851.4638,421.3828 852.1112,421.5322 Q852.7587,421.6816 853.3231,421.9805 L853.3231,424.7031 Q852.6923,424.1221 852.0988,423.8523 Q851.5053,423.5825 850.8744,423.5825 Q849.5297,423.5825 848.8449,424.6492 Q848.1601,425.7158 848.1601,427.8159 Q848.1601,429.9077 848.8449,430.9744 Q849.5297,432.041 850.8744,432.041 Q851.5053,432.041 852.0988,431.7712 Q852.6923,431.5015 853.3231,430.9204 Z "/><text fill="#000000" font-family="sans-serif" font-size="12" lengthAdjust="spacingAndGlyphs" textLength="60" x="865.65" y="432.5352">BSyncState</text><line style="stroke: #A80036; stroke-width: 1.5;" x1="830.5" x2="933.5" y1="444" y2="444"/><ellipse cx="840.5" cy="455.9775" fill="none" rx="3" ry="3" style="stroke: #038048; stroke-width: 1.0;"/><text fill="#000000" font-family="sans-serif" font-size="11" lengthAdjust="spacingAndGlyphs" textLength="59" x="849.5" y="458.6348">statements</text><ellipse cx="840.5" cy="468.9326" fill="none" rx="3" ry="3" style="stroke: #038048; stroke-width: 1.0;"/><text fill="#000000" font-family="sans-serif" font-size="11" lengthAdjust="spacingAndGlyphs" textLength="79" x="849.5" y="471.5898">externalEvents</text><line style="stroke: #A80036; stroke-width: 1.5;" x1="830.5" x2="933.5" y1="477.9102" y2="477.9102"/><rect fill="#FEFECE" filter="url(#f1)" height="48" style="stroke: #A80036; stroke-width: 1.5;" width="114" x="829" y="572.5"/><ellipse cx="844" cy="588.5" fill="#ADD1B2" rx="11" ry="11" style="stroke: #A80036; stroke-width: 1.0;"/><path d="M846.9731,594.1431 Q846.3921,594.4419 845.7529,594.5913 Q845.1138,594.7407 844.4082,594.7407 Q841.9014,594.7407 840.5815,593.0889 Q839.2617,591.437 839.2617,588.3159 Q839.2617,585.1865 840.5815,583.5347 Q841.9014,581.8828 844.4082,581.8828 Q845.1138,581.8828 845.7612,582.0322 Q846.4087,582.1816 846.9731,582.4805 L846.9731,585.2031 Q846.3423,584.6221 845.7488,584.3523 Q845.1553,584.0825 844.5244,584.0825 Q843.1797,584.0825 842.4949,585.1492 Q841.8101,586.2158 841.8101,588.3159 Q841.8101,590.4077 842.4949,591.4744 Q843.1797,592.541 844.5244,592.541 Q845.1553,592.541 845.7488,592.2712 Q846.3423,592.0015 846.9731,591.4204 Z "/><text fill="#000000" font-family="sans-serif" font-size="12" lengthAdjust="spacingAndGlyphs" textLength="82" x="858" y="593.0352">RWBStatement</text><line style="stroke: #A80036; stroke-width: 1.5;" x1="830" x2="942" y1="604.5" y2="604.5"/><line style="stroke: #A80036; stroke-width: 1.5;" x1="830" x2="942" y1="612.5" y2="612.5"/><rect fill="#FEFECE" filter="url(#f1)" height="48" style="stroke: #A80036; stroke-width: 1.5;" width="133" x="1085.5" y="425"/><ellipse cx="1100.5" cy="441" fill="#B4A7E5" rx="11" ry="11" style="stroke: #A80036; stroke-width: 1.0;"/><path d="M1096.4277,436.7651 L1096.4277,434.6069 L1103.8071,434.6069 L1103.8071,436.7651 L1101.3418,436.7651 L1101.3418,444.8418 L1103.8071,444.8418 L1103.8071,447 L1096.4277,447 L1096.4277,444.8418 L1098.8931,444.8418 L1098.8931,436.7651 Z "/><text fill="#000000" font-family="sans-serif" font-size="12" font-style="italic" lengthAdjust="spacingAndGlyphs" textLength="101" x="1114.5" y="445.5352">BProgramListener</text><line style="stroke: #A80036; stroke-width: 1.5;" x1="1086.5" x2="1217.5" y1="457" y2="457"/><line style="stroke: #A80036; stroke-width: 1.5;" x1="1086.5" x2="1217.5" y1="465" y2="465"/><rect fill="#FEFECE" filter="url(#f1)" height="48" style="stroke: #A80036; stroke-width: 1.5;" width="158" x="1230" y="280.5"/><ellipse cx="1245" cy="296.5" fill="#ADD1B2" rx="11" ry="11" style="stroke: #A80036; stroke-width: 1.0;"/><path d="M1247.9731,302.1431 Q1247.3921,302.4419 1246.7529,302.5913 Q1246.1138,302.7407 1245.4082,302.7407 Q1242.9014,302.7407 1241.5815,301.0889 Q1240.2617,299.437 1240.2617,296.3159 Q1240.2617,293.1865 1241.5815,291.5347 Q1242.9014,289.8828 1245.4082,289.8828 Q1246.1138,289.8828 1246.7612,290.0322 Q1247.4087,290.1816 1247.9731,290.4805 L1247.9731,293.2031 Q1247.3423,292.6221 1246.7488,292.3523 Q1246.1553,292.0825 1245.5244,292.0825 Q1244.1797,292.0825 1243.4949,293.1492 Q1242.8101,294.2158 1242.8101,296.3159 Q1242.8101,298.4077 1243.4949,299.4744 Q1244.1797,300.541 1245.5244,300.541 Q1246.1553,300.541 1246.7488,300.2712 Q1247.3423,300.0015 1247.9731,299.4204 Z "/><text fill="#000000" font-family="sans-serif" font-size="12" lengthAdjust="spacingAndGlyphs" textLength="126" x="1259" y="301.0352">InMemoryEventLogger</text><line style="stroke: #A80036; stroke-width: 1.5;" x1="1231" x2="1387" y1="312.5" y2="312.5"/><line style="stroke: #A80036; stroke-width: 1.5;" x1="1231" x2="1387" y1="320.5" y2="320.5"/><rect fill="#FEFECE" filter="url(#f1)" height="48" style="stroke: #A80036; stroke-width: 1.5;" width="111" x="1083.5" y="280.5"/><ellipse cx="1098.5" cy="296.5" fill="#ADD1B2" rx="11" ry="11" style="stroke: #A80036; stroke-width: 1.0;"/><path d="M1101.4731,302.1431 Q1100.8921,302.4419 1100.2529,302.5913 Q1099.6138,302.7407 1098.9082,302.7407 Q1096.4014,302.7407 1095.0815,301.0889 Q1093.7617,299.437 1093.7617,296.3159 Q1093.7617,293.1865 1095.0815,291.5347 Q1096.4014,289.8828 1098.9082,289.8828 Q1099.6138,289.8828 1100.2612,290.0322 Q1100.9087,290.1816 1101.4731,290.4805 L1101.4731,293.2031 Q1100.8423,292.6221 1100.2488,292.3523 Q1099.6553,292.0825 1099.0244,292.0825 Q1097.6797,292.0825 1096.9949,293.1492 Q1096.3101,294.2158 1096.3101,296.3159 Q1096.3101,298.4077 1096.9949,299.4744 Q1097.6797,300.541 1099.0244,300.541 Q1099.6553,300.541 1100.2488,300.2712 Q1100.8423,300.0015 1101.4731,299.4204 Z "/><text fill="#000000" font-family="sans-serif" font-size="12" lengthAdjust="spacingAndGlyphs" textLength="79" x="1112.5" y="301.0352">StreamLogger</text><line style="stroke: #A80036; stroke-width: 1.5;" x1="1084.5" x2="1193.5" y1="312.5" y2="312.5"/><line style="stroke: #A80036; stroke-width: 1.5;" x1="1084.5" x2="1193.5" y1="320.5" y2="320.5"/><rect fill="#FEFECE" filter="url(#f1)" height="48" style="stroke: #A80036; stroke-width: 1.5;" width="70" x="548" y="730"/><ellipse cx="563" cy="746" fill="#ADD1B2" rx="11" ry="11" style="stroke: #A80036; stroke-width: 1.0;"/><path d="M565.9731,751.6431 Q565.3921,751.9419 564.7529,752.0913 Q564.1138,752.2407 563.4082,752.2407 Q560.9014,752.2407 559.5815,750.5889 Q558.2617,748.937 558.2617,745.8159 Q558.2617,742.6865 559.5815,741.0347 Q560.9014,739.3828 563.4082,739.3828 Q564.1138,739.3828 564.7612,739.5322 Q565.4087,739.6816 565.9731,739.9805 L565.9731,742.7031 Q565.3423,742.1221 564.7488,741.8523 Q564.1553,741.5825 563.5244,741.5825 Q562.1797,741.5825 561.4949,742.6492 Q560.8101,743.7158 560.8101,745.8159 Q560.8101,747.9077 561.4949,748.9744 Q562.1797,750.041 563.5244,750.041 Q564.1553,750.041 564.7488,749.7712 Q565.3423,749.5015 565.9731,748.9204 Z "/><text fill="#000000" font-family="sans-serif" font-size="12" lengthAdjust="spacingAndGlyphs" textLength="38" x="577" y="750.5352">BEvent</text><line style="stroke: #A80036; stroke-width: 1.5;" x1="549" x2="617" y1="762" y2="762"/><line style="stroke: #A80036; stroke-width: 1.5;" x1="549" x2="617" y1="770" y2="770"/><rect fill="#FEFECE" filter="url(#f1)" height="60.9551" style="stroke: #A80036; stroke-width: 1.5;" width="101" x="761.5" y="841"/><ellipse cx="785.95" cy="857" fill="#B4A7E5" rx="11" ry="11" style="stroke: #A80036; stroke-width: 1.0;"/><path d="M781.8777,852.7651 L781.8777,850.6069 L789.2571,850.6069 L789.2571,852.7651 L786.7918,852.7651 L786.7918,860.8418 L789.2571,860.8418 L789.2571,863 L781.8777,863 L781.8777,860.8418 L784.3431,860.8418 L784.3431,852.7651 Z "/><text fill="#000000" font-family="sans-serif" font-size="12" font-style="italic" lengthAdjust="spacingAndGlyphs" textLength="48" x="802.05" y="861.5352">EventSet</text><line style="stroke: #A80036; stroke-width: 1.5;" x1="762.5" x2="861.5" y1="873" y2="873"/><line style="stroke: #A80036; stroke-width: 1.5;" x1="762.5" x2="861.5" y1="881" y2="881"/><text fill="#000000" font-family="sans-serif" font-size="11" lengthAdjust="spacingAndGlyphs" textLength="89" x="767.5" y="895.6348">contains(BEvent)</text><rect fill="#FEFECE" filter="url(#f1)" height="48" style="stroke: #A80036; stroke-width: 1.5;" width="121" x="759.5" y="730"/><ellipse cx="774.5" cy="746" fill="#ADD1B2" rx="11" ry="11" style="stroke: #A80036; stroke-width: 1.0;"/><path d="M777.4731,751.6431 Q776.8921,751.9419 776.2529,752.0913 Q775.6138,752.2407 774.9082,752.2407 Q772.4014,752.2407 771.0815,750.5889 Q769.7617,748.937 769.7617,745.8159 Q769.7617,742.6865 771.0815,741.0347 Q772.4014,739.3828 774.9082,739.3828 Q775.6138,739.3828 776.2612,739.5322 Q776.9087,739.6816 777.4731,739.9805 L777.4731,742.7031 Q776.8423,742.1221 776.2488,741.8523 Q775.6553,741.5825 775.0244,741.5825 Q773.6797,741.5825 772.9949,742.6492 Q772.3101,743.7158 772.3101,745.8159 Q772.3101,747.9077 772.9949,748.9744 Q773.6797,750.041 775.0244,750.041 Q775.6553,750.041 776.2488,749.7712 Q776.8423,749.5015 777.4731,748.9204 Z "/><text fill="#000000" font-family="sans-serif" font-size="12" lengthAdjust="spacingAndGlyphs" textLength="89" x="788.5" y="750.5352">ExplicitEventSet</text><line style="stroke: #A80036; stroke-width: 1.5;" x1="760.5" x2="879.5" y1="762" y2="762"/><line style="stroke: #A80036; stroke-width: 1.5;" x1="760.5" x2="879.5" y1="770" y2="770"/><rect fill="#FEFECE" filter="url(#f1)" height="60.9551" style="stroke: #A80036; stroke-width: 1.5;" width="226" x="463" y="418.5"/><ellipse cx="508.25" cy="434.5" fill="#B4A7E5" rx="11" ry="11" style="stroke: #A80036; stroke-width: 1.0;"/><path d="M504.1777,430.2651 L504.1777,428.1069 L511.5571,428.1069 L511.5571,430.2651 L509.0918,430.2651 L509.0918,438.3418 L511.5571,438.3418 L511.5571,440.5 L504.1777,440.5 L504.1777,438.3418 L506.6431,438.3418 L506.6431,430.2651 Z "/><text fill="#000000" font-family="sans-serif" font-size="12" font-style="italic" lengthAdjust="spacingAndGlyphs" textLength="127" x="528.75" y="439.0352">EventSelectionStrategy</text><line style="stroke: #A80036; stroke-width: 1.5;" x1="464" x2="688" y1="450.5" y2="450.5"/><line style="stroke: #A80036; stroke-width: 1.5;" x1="464" x2="688" y1="458.5" y2="458.5"/><text fill="#000000" font-family="sans-serif" font-size="11" lengthAdjust="spacingAndGlyphs" textLength="214" x="469" y="473.1348">EventSelectionResult select(statements);</text><rect fill="#FEFECE" filter="url(#f1)" height="48" style="stroke: #A80036; stroke-width: 1.5;" width="197" x="477.5" y="280.5"/><ellipse cx="492.5" cy="296.5" fill="#ADD1B2" rx="11" ry="11" style="stroke: #A80036; stroke-width: 1.0;"/><path d="M495.4731,302.1431 Q494.8921,302.4419 494.2529,302.5913 Q493.6138,302.7407 492.9082,302.7407 Q490.4014,302.7407 489.0815,301.0889 Q487.7617,299.437 487.7617,296.3159 Q487.7617,293.1865 489.0815,291.5347 Q490.4014,289.8828 492.9082,289.8828 Q493.6138,289.8828 494.2612,290.0322 Q494.9087,290.1816 495.4731,290.4805 L495.4731,293.2031 Q494.8423,292.6221 494.2488,292.3523 Q493.6553,292.0825 493.0244,292.0825 Q491.6797,292.0825 490.9949,293.1492 Q490.3101,294.2158 490.3101,296.3159 Q490.3101,298.4077 490.9949,299.4744 Q491.6797,300.541 493.0244,300.541 Q493.6553,300.541 494.2488,300.2712 Q494.8423,300.0015 495.4731,299.4204 Z "/><text fill="#000000" font-family="sans-serif" font-size="12" lengthAdjust="spacingAndGlyphs" textLength="165" x="506.5" y="301.0352">SimpleEventSelectionStrategy</text><line style="stroke: #A80036; stroke-width: 1.5;" x1="478.5" x2="673.5" y1="312.5" y2="312.5"/><line style="stroke: #A80036; stroke-width: 1.5;" x1="478.5" x2="673.5" y1="320.5" y2="320.5"/><rect fill="#FEFECE" filter="url(#f1)" height="60.9551" style="stroke: #A80036; stroke-width: 1.5;" width="80" x="62" y="418.5"/><ellipse cx="77" cy="434.5" fill="#ADD1B2" rx="11" ry="11" style="stroke: #A80036; stroke-width: 1.0;"/><path d="M79.9731,440.1431 Q79.3921,440.4419 78.7529,440.5913 Q78.1138,440.7407 77.4082,440.7407 Q74.9014,440.7407 73.5815,439.0889 Q72.2617,437.437 72.2617,434.3159 Q72.2617,431.1865 73.5815,429.5347 Q74.9014,427.8828 77.4082,427.8828 Q78.1138,427.8828 78.7612,428.0322 Q79.4087,428.1816 79.9731,428.4805 L79.9731,431.2031 Q79.3423,430.6221 78.7488,430.3523 Q78.1553,430.0825 77.5244,430.0825 Q76.1797,430.0825 75.4949,431.1492 Q74.8101,432.2158 74.8101,434.3159 Q74.8101,436.4077 75.4949,437.4744 Q76.1797,438.541 77.5244,438.541 Q78.1553,438.541 78.7488,438.2712 Q79.3423,438.0015 79.9731,437.4204 Z "/><text fill="#000000" font-family="sans-serif" font-size="12" lengthAdjust="spacingAndGlyphs" textLength="48" x="91" y="439.0352">Selected</text><line style="stroke: #A80036; stroke-width: 1.5;" x1="63" x2="141" y1="450.5" y2="450.5"/><ellipse cx="73" cy="462.4775" fill="none" rx="3" ry="3" style="stroke: #038048; stroke-width: 1.0;"/><text fill="#000000" font-family="sans-serif" font-size="11" lengthAdjust="spacingAndGlyphs" textLength="29" x="82" y="465.1348">event</text><line style="stroke: #A80036; stroke-width: 1.5;" x1="63" x2="141" y1="471.4551" y2="471.4551"/><rect fill="#FEFECE" filter="url(#f1)" height="60.9551" style="stroke: #A80036; stroke-width: 1.5;" width="127" x="62.5" y="274"/><ellipse cx="77.5" cy="290" fill="#ADD1B2" rx="11" ry="11" style="stroke: #A80036; stroke-width: 1.0;"/><path d="M80.4731,295.6431 Q79.8921,295.9419 79.2529,296.0913 Q78.6138,296.2407 77.9082,296.2407 Q75.4014,296.2407 74.0815,294.5889 Q72.7617,292.937 72.7617,289.8159 Q72.7617,286.6865 74.0815,285.0347 Q75.4014,283.3828 77.9082,283.3828 Q78.6138,283.3828 79.2612,283.5322 Q79.9087,283.6816 80.4731,283.9805 L80.4731,286.7031 Q79.8423,286.1221 79.2488,285.8523 Q78.6553,285.5825 78.0244,285.5825 Q76.6797,285.5825 75.9949,286.6492 Q75.3101,287.7158 75.3101,289.8159 Q75.3101,291.9077 75.9949,292.9744 Q76.6797,294.041 78.0244,294.041 Q78.6553,294.041 79.2488,293.7712 Q79.8423,293.5015 80.4731,292.9204 Z "/><text fill="#000000" font-family="sans-serif" font-size="12" lengthAdjust="spacingAndGlyphs" textLength="95" x="91.5" y="294.5352">SelectedExternal</text><line style="stroke: #A80036; stroke-width: 1.5;" x1="63.5" x2="188.5" y1="306" y2="306"/><ellipse cx="73.5" cy="317.9775" fill="none" rx="3" ry="3" style="stroke: #038048; stroke-width: 1.0;"/><text fill="#000000" font-family="sans-serif" font-size="11" lengthAdjust="spacingAndGlyphs" textLength="30" x="82.5" y="320.6348">index</text><line style="stroke: #A80036; stroke-width: 1.5;" x1="63.5" x2="188.5" y1="326.9551" y2="326.9551"/><rect fill="#FEFECE" filter="url(#f1)" height="67.2207" style="stroke: #A80036; stroke-width: 1.5;" width="151" x="258.5" y="563"/><ellipse cx="274.85" cy="582.1328" fill="#ADD1B2" rx="11" ry="11" style="stroke: #A80036; stroke-width: 1.0;"/><path d="M277.8231,587.7759 Q277.2421,588.0747 276.6029,588.2241 Q275.9638,588.3735 275.2582,588.3735 Q272.7514,588.3735 271.4315,586.7217 Q270.1117,585.0698 270.1117,581.9487 Q270.1117,578.8193 271.4315,577.1675 Q272.7514,575.5156 275.2582,575.5156 Q275.9638,575.5156 276.6112,575.665 Q277.2587,575.8145 277.8231,576.1133 L277.8231,578.8359 Q277.1923,578.2549 276.5988,577.9851 Q276.0053,577.7153 275.3744,577.7153 Q274.0297,577.7153 273.3449,578.782 Q272.6601,579.8486 272.6601,581.9487 Q272.6601,584.0405 273.3449,585.1072 Q274.0297,586.1738 275.3744,586.1738 Q276.0053,586.1738 276.5988,585.9041 Q277.1923,585.6343 277.8231,585.0532 Z "/><text fill="#000000" font-family="sans-serif" font-size="12" font-style="italic" lengthAdjust="spacingAndGlyphs" textLength="59" x="317.65" y="579.6016">«abstract»</text><text fill="#000000" font-family="sans-serif" font-size="12" lengthAdjust="spacingAndGlyphs" textLength="116" x="289.15" y="593.7344">EventSelectionResult</text><line style="stroke: #A80036; stroke-width: 1.5;" x1="259.5" x2="408.5" y1="601.2656" y2="601.2656"/><line style="stroke: #A80036; stroke-width: 1.5;" x1="259.5" x2="408.5" y1="609.2656" y2="609.2656"/><ellipse cx="269.5" cy="621.2432" fill="#84BE84" rx="3" ry="3" style="stroke: #038048; stroke-width: 1.0;"/><text fill="#000000" font-family="sans-serif" font-size="11" lengthAdjust="spacingAndGlyphs" textLength="125" x="278.5" y="623.9004">accept( Visitor&lt;R&gt; ) : R</text><rect fill="#FEFECE" filter="url(#f1)" height="54.2656" style="stroke: #A80036; stroke-width: 1.5;" width="91" x="336.5" y="422"/><ellipse cx="351.5" cy="441.1328" fill="#ADD1B2" rx="11" ry="11" style="stroke: #A80036; stroke-width: 1.0;"/><path d="M354.4731,446.7759 Q353.8921,447.0747 353.2529,447.2241 Q352.6138,447.3735 351.9082,447.3735 Q349.4014,447.3735 348.0815,445.7217 Q346.7617,444.0698 346.7617,440.9487 Q346.7617,437.8193 348.0815,436.1675 Q349.4014,434.5156 351.9082,434.5156 Q352.6138,434.5156 353.2612,434.665 Q353.9087,434.8145 354.4731,435.1133 L354.4731,437.8359 Q353.8423,437.2549 353.2488,436.9851 Q352.6553,436.7153 352.0244,436.7153 Q350.6797,436.7153 349.9949,437.782 Q349.3101,438.8486 349.3101,440.9487 Q349.3101,443.0405 349.9949,444.1072 Q350.6797,445.1738 352.0244,445.1738 Q352.6553,445.1738 353.2488,444.9041 Q353.8423,444.6343 354.4731,444.0532 Z "/><text fill="#000000" font-family="sans-serif" font-size="12" font-style="italic" lengthAdjust="spacingAndGlyphs" textLength="63" x="363.5" y="438.6016">«Singleton»</text><text fill="#000000" font-family="sans-serif" font-size="12" lengthAdjust="spacingAndGlyphs" textLength="54" x="368" y="452.7344">Deadlock</text><line style="stroke: #A80036; stroke-width: 1.5;" x1="337.5" x2="426.5" y1="460.2656" y2="460.2656"/><line style="stroke: #A80036; stroke-width: 1.5;" x1="337.5" x2="426.5" y1="468.2656" y2="468.2656"/><rect fill="#FEFECE" filter="url(#f1)" height="54.2656" style="stroke: #A80036; stroke-width: 1.5;" width="124" x="177" y="422"/><ellipse cx="192" cy="441.1328" fill="#ADD1B2" rx="11" ry="11" style="stroke: #A80036; stroke-width: 1.0;"/><path d="M194.9731,446.7759 Q194.3921,447.0747 193.7529,447.2241 Q193.1138,447.3735 192.4082,447.3735 Q189.9014,447.3735 188.5815,445.7217 Q187.2617,444.0698 187.2617,440.9487 Q187.2617,437.8193 188.5815,436.1675 Q189.9014,434.5156 192.4082,434.5156 Q193.1138,434.5156 193.7612,434.665 Q194.4087,434.8145 194.9731,435.1133 L194.9731,437.8359 Q194.3423,437.2549 193.7488,436.9851 Q193.1553,436.7153 192.5244,436.7153 Q191.1797,436.7153 190.4949,437.782 Q189.8101,438.8486 189.8101,440.9487 Q189.8101,443.0405 190.4949,444.1072 Q191.1797,445.1738 192.5244,445.1738 Q193.1553,445.1738 193.7488,444.9041 Q194.3423,444.6343 194.9731,444.0532 Z "/><text fill="#000000" font-family="sans-serif" font-size="12" font-style="italic" lengthAdjust="spacingAndGlyphs" textLength="63" x="220.5" y="438.6016">«Singleton»</text><text fill="#000000" font-family="sans-serif" font-size="12" lengthAdjust="spacingAndGlyphs" textLength="92" x="206" y="452.7344">NoneRequested</text><line style="stroke: #A80036; stroke-width: 1.5;" x1="178" x2="300" y1="460.2656" y2="460.2656"/><line style="stroke: #A80036; stroke-width: 1.5;" x1="178" x2="300" y1="468.2656" y2="468.2656"/><path d="M1283.43,328.712 C1258.79,351.071 1221.14,385.242 1192.45,411.289 " fill="none" style="stroke: #A80036; stroke-width: 1.0; stroke-dasharray: 7.0,7.0;"/><polygon fill="none" points="1197.08,416.539,1177.56,424.798,1187.67,406.173,1197.08,416.539" style="stroke: #A80036; stroke-width: 1.0;"/><path d="M1141.12,328.712 C1142.99,349.207 1145.76,379.629 1148.04,404.62 " fill="none" style="stroke: #A80036; stroke-width: 1.0; stroke-dasharray: 7.0,7.0;"/><polygon fill="none" points="1155.04,404.244,1149.88,424.798,1141.1,405.516,1155.04,404.244" style="stroke: #A80036; stroke-width: 1.0;"/><path d="M981.667,483.246 C961.528,506.876 934.587,538.488 914.427,562.144 " fill="none" style="stroke: #A80036; stroke-width: 1.0;"/><polygon fill="#A80036" points="905.967,572.071,914.8489,567.8152,909.21,568.2653,908.7599,562.6264,905.967,572.071" style="stroke: #A80036; stroke-width: 1.0;"/><line style="stroke: #A80036; stroke-width: 1.0;" x1="909.21" x2="914.399" y1="568.2653" y2="562.177"/><polygon fill="#A80036" points="990.352,473.055,983.4157,475.0268,982.5681,482.1879,989.5043,480.2161,990.352,473.055" style="stroke: #A80036; stroke-width: 1.0;"/><text fill="#000000" font-family="sans-serif" font-size="13" lengthAdjust="spacingAndGlyphs" textLength="24" x="883.909" y="561.8945">0..1</text><path d="M1005.8,348.26 C1006.65,368.41 1007.65,392.2 1008.46,411.491 " fill="none" style="stroke: #A80036; stroke-width: 1.0;"/><polygon fill="#A80036" points="1009.02,424.626,1012.6375,415.4655,1008.8094,419.6304,1004.6446,415.8024,1009.02,424.626" style="stroke: #A80036; stroke-width: 1.0;"/><line style="stroke: #A80036; stroke-width: 1.0;" x1="1008.8094" x2="1008.4665" y1="419.6304" y2="411.6375"/><polygon fill="#A80036" points="1005.243,335.026,1001.499,341.189,1005.7478,347.0154,1009.4919,340.8524,1005.243,335.026" style="stroke: #A80036; stroke-width: 1.0;"/><text fill="#000000" font-family="sans-serif" font-size="13" lengthAdjust="spacingAndGlyphs" textLength="22" x="983.9451" y="414.0664">1..*</text><path d="M1042.19,344.645 C1054.18,356.74 1067.54,370.027 1080,382 C1091.63,393.175 1104.56,405.159 1116.22,415.808 " fill="none" style="stroke: #A80036; stroke-width: 1.0;"/><polygon fill="#A80036" points="1126.07,424.767,1122.1086,415.75,1122.373,421.4006,1116.7224,421.6651,1126.07,424.767" style="stroke: #A80036; stroke-width: 1.0;"/><line style="stroke: #A80036; stroke-width: 1.0;" x1="1122.373" x2="1116.455" y1="421.4006" y2="416.02"/><polygon fill="#A80036" points="1032.92,335.248,1034.2864,342.3285,1041.3477,343.7904,1039.9813,336.71,1032.92,335.248" style="stroke: #A80036; stroke-width: 1.0;"/><text fill="#000000" font-family="sans-serif" font-size="13" lengthAdjust="spacingAndGlyphs" textLength="54" x="1081" y="378.5684">listeners</text><text fill="#000000" font-family="sans-serif" font-size="13" lengthAdjust="spacingAndGlyphs" textLength="22" x="1094.6067" y="414.2436">1..*</text><path d="M883.362,499.54 C883.899,519.083 884.505,541.121 885.001,559.144 " fill="none" style="stroke: #A80036; stroke-width: 1.0;"/><polygon fill="#A80036" points="885.363,572.324,889.1142,563.2175,885.2256,567.3259,881.1173,563.4373,885.363,572.324" style="stroke: #A80036; stroke-width: 1.0;"/><line style="stroke: #A80036; stroke-width: 1.0;" x1="885.2256" x2="885.0055" y1="567.3259" y2="559.329"/><polygon fill="#FFFFFF" points="882.999,486.34,879.166,492.448,883.33,498.3354,887.163,492.2274,882.999,486.34" style="stroke: #A80036; stroke-width: 1.0;"/><text fill="#000000" font-family="sans-serif" font-size="13" lengthAdjust="spacingAndGlyphs" textLength="22" x="860.381" y="561.8152">1..*</text><path d="M818.4,778.096 C817.551,790.356 816.473,805.923 815.445,820.768 " fill="none" style="stroke: #A80036; stroke-width: 1.0; stroke-dasharray: 7.0,7.0;"/><polygon fill="none" points="822.419,821.387,814.053,840.856,808.452,820.42,822.419,821.387" style="stroke: #A80036; stroke-width: 1.0;"/><path d="M789.078,720.237 C769.706,701.668 743.056,680.433 714.5,670.5 C692.672,662.907 683.98,661.971 662.5,670.5 C638.818,679.904 619.03,700.603 605.12,719.038 " fill="none" style="stroke: #A80036; stroke-width: 1.0;"/><polygon fill="#A80036" points="597.43,729.815,605.9132,724.8115,600.3339,725.7447,599.4007,720.1653,597.43,729.815" style="stroke: #A80036; stroke-width: 1.0;"/><line style="stroke: #A80036; stroke-width: 1.0;" x1="600.3339" x2="604.981" y1="725.7447" y2="719.2325"/><polygon fill="#A80036" points="798.515,729.63,797.0843,722.5622,790.01,721.1645,791.4407,728.2323,798.515,729.63" style="stroke: #A80036; stroke-width: 1.0;"/><text fill="#000000" font-family="sans-serif" font-size="13" lengthAdjust="spacingAndGlyphs" textLength="22" x="576.3089" y="719.3039">0..*</text><path d="M135.901,479.597 C143.325,485.608 151.278,491.705 159,497 C188.306,517.097 222.016,536.804 251.979,553.248 " fill="none" style="stroke: #A80036; stroke-width: 1.0;"/><polygon fill="none" points="255.341,547.108,269.599,562.783,248.678,559.421,255.341,547.108" style="stroke: #A80036; stroke-width: 1.0;"/><path d="M121.027,335.026 C117.959,353.246 113.943,377.087 110.393,398.169 " fill="none" style="stroke: #A80036; stroke-width: 1.0;"/><polygon fill="none" points="117.274,399.462,107.049,418.021,103.468,397.137,117.274,399.462" style="stroke: #A80036; stroke-width: 1.0;"/><path d="M373.419,476.012 C367.224,494.789 358.654,520.769 351.086,543.709 " fill="none" style="stroke: #A80036; stroke-width: 1.0;"/><polygon fill="none" points="357.692,546.028,344.778,562.829,344.396,541.642,357.692,546.028" style="stroke: #A80036; stroke-width: 1.0;"/><path d="M255.984,476.012 C268.615,495.358 286.239,522.35 301.541,545.786 " fill="none" style="stroke: #A80036; stroke-width: 1.0;"/><polygon fill="none" points="307.595,542.255,312.668,562.829,295.873,549.909,307.595,542.255" style="stroke: #A80036; stroke-width: 1.0;"/><path d="M576,328.712 C576,347.43 576,374.428 576,398.007 " fill="none" style="stroke: #A80036; stroke-width: 1.0; stroke-dasharray: 7.0,7.0;"/><polygon fill="none" points="583,398.364,576,418.364,569,398.364,583,398.364" style="stroke: #A80036; stroke-width: 1.0;"/><path d="M526.736,479.619 C487.934,502.949 433.729,535.539 392.683,560.217 " fill="none" style="stroke: #A80036; stroke-width: 1.0; stroke-dasharray: 7.0,7.0;"/><polygon fill="#A80036" points="388.25,562.883,398.0242,561.6729,392.5349,560.3063,393.9016,554.817,388.25,562.883" style="stroke: #A80036; stroke-width: 1.0;"/><text fill="#000000" font-family="sans-serif" font-size="13" lengthAdjust="spacingAndGlyphs" textLength="85" x="464" y="529.5684">&lt;&lt;creates&gt;&gt;</text><path d="M689.074,449 C735.021,449 786.134,449 824.2,449 " fill="none" style="stroke: #A80036; stroke-width: 1.0; stroke-dasharray: 7.0,7.0;"/><polygon fill="#A80036" points="829.247,449,820.247,445,824.247,449,820.247,453,829.247,449" style="stroke: #A80036; stroke-width: 1.0;"/><text fill="#000000" font-family="sans-serif" font-size="13" lengthAdjust="spacingAndGlyphs" textLength="104" x="707.25" y="442.5684">&lt;&lt;consumes&gt;&gt;</text><path d="M947.414,324.34 C878.735,347.206 761.665,386.184 677.296,414.274 " fill="none" style="stroke: #A80036; stroke-width: 1.0;"/><polygon fill="#A80036" points="664.834,418.423,674.6368,419.3747,669.5779,416.8433,672.1093,411.7845,664.834,418.423" style="stroke: #A80036; stroke-width: 1.0;"/><line style="stroke: #A80036; stroke-width: 1.0;" x1="669.5779" x2="677.1685" y1="416.8433" y2="414.317"/><polygon fill="#A80036" points="959.809,320.213,952.8526,318.3135,948.4236,324.0042,955.38,325.9037,959.809,320.213" style="stroke: #A80036; stroke-width: 1.0;"/><text fill="#000000" font-family="sans-serif" font-size="13" lengthAdjust="spacingAndGlyphs" textLength="81" x="817" y="378.5684">&lt;&lt;arbiter&gt;&gt;</text><path d="M1072.67,150.074 C1060.73,176.756 1040.75,221.398 1025.41,255.668 " fill="none" style="stroke: #A80036; stroke-width: 1.0;"/><polygon fill="none" points="1031.79,258.55,1017.23,273.945,1019.01,252.831,1031.79,258.55" style="stroke: #A80036; stroke-width: 1.0;"/><path d="M610.328,778.143 C620.764,786.318 633.037,795.167 645,802 C675.727,819.55 711.838,834.945 742.606,846.672 " fill="none" style="stroke: #A80036; stroke-width: 1.0; stroke-dasharray: 7.0,7.0;"/><polygon fill="none" points="745.138,840.145,761.458,853.659,740.272,853.272,745.138,840.145" style="stroke: #A80036; stroke-width: 1.0;"/><path d="M906.24,632.368 C910.67,641.695 914.716,651.977 917,662 C926.946,705.654 944.328,722.149 898,802 C891.39,813.392 882.096,823.62 872.045,832.482 " fill="none" style="stroke: #A80036; stroke-width: 1.0;"/><polygon fill="#A80036" points="861.812,840.883,871.3064,838.2644,865.6767,837.7106,866.2305,832.0809,861.812,840.883" style="stroke: #A80036; stroke-width: 1.0;"/><line style="stroke: #A80036; stroke-width: 1.0;" x1="865.6767" x2="871.86" y1="837.7106" y2="832.634"/><polygon fill="#A80036" points="900.31,620.76,899.4768,627.9228,905.7681,631.4468,906.6014,624.284,900.31,620.76" style="stroke: #A80036; stroke-width: 1.0;"/><text fill="#000000" font-family="sans-serif" font-size="13" lengthAdjust="spacingAndGlyphs" textLength="47" x="930" y="759.0684">WaitFor</text><path d="M816.24,612.926 C776.535,625.666 730.05,648.184 706,687 C679.081,730.448 681.562,757.11 706,802 C715.797,819.996 732.581,833.985 749.941,844.493 " fill="none" style="stroke: #A80036; stroke-width: 1.0;"/><polygon fill="#A80036" points="761.363,850.903,755.4715,843.0105,757.0025,848.4563,751.5568,849.9873,761.363,850.903" style="stroke: #A80036; stroke-width: 1.0;"/><line style="stroke: #A80036; stroke-width: 1.0;" x1="757.0025" x2="750.0265" y1="848.4563" y2="844.541"/><polygon fill="#A80036" points="828.856,609.125,821.9572,607.0258,817.3661,612.5866,824.2649,614.6858,828.856,609.125" style="stroke: #A80036; stroke-width: 1.0;"/><text fill="#000000" font-family="sans-serif" font-size="13" lengthAdjust="spacingAndGlyphs" textLength="34" x="707" y="759.0684">Block</text><path d="M870.89,633.101 C860.108,658.503 845.675,692.509 834.933,717.816 " fill="none" style="stroke: #A80036; stroke-width: 1.0;"/><polygon fill="#A80036" points="829.84,729.815,837.038,723.0928,831.7933,725.2123,829.6737,719.9675,829.84,729.815" style="stroke: #A80036; stroke-width: 1.0;"/><line style="stroke: #A80036; stroke-width: 1.0;" x1="831.7933" x2="834.9195" y1="725.2123" y2="717.8485"/><polygon fill="#A80036" points="876.119,620.78,870.0928,624.7403,871.4307,631.8262,877.4569,627.8659,876.119,620.78" style="stroke: #A80036; stroke-width: 1.0;"/><text fill="#000000" font-family="sans-serif" font-size="13" lengthAdjust="spacingAndGlyphs" textLength="50" x="858" y="675.5684">Request</text><path d="M99.5038,492.703 C99.2703,538.883 106.475,611.567 149,654 C203.198,708.081 433.493,737.753 534.821,748.402 " fill="none" style="stroke: #A80036; stroke-width: 1.0;"/><polygon fill="#A80036" points="547.946,749.751,539.4019,744.8521,542.9722,749.24,538.5843,752.8102,547.946,749.751" style="stroke: #A80036; stroke-width: 1.0;"/><line style="stroke: #A80036; stroke-width: 1.0;" x1="542.9722" x2="535.014" y1="749.24" y2="748.422"/><polygon fill="#FFFFFF" points="99.7738,479.571,95.6513,485.4875,99.5272,491.5685,103.6497,485.6519,99.7738,479.571" style="stroke: #A80036; stroke-width: 1.0;"/><text fill="#000000" font-family="sans-serif" font-size="13" lengthAdjust="spacingAndGlyphs" textLength="90" x="150" y="601.5684">selected event</text></g></svg>