<?xml version="1.0" encoding="UTF-8" standalone="yes"?><svg xmlns="http://www.w3.org/2000/svg" xmlns:xlink="http://www.w3.org/1999/xlink" height="1205px" style="width:1602px;height:1205px;" version="1.1" viewBox="0 0 1602 1205" width="1602px"><defs><filter height="300%" id="f1" width="300%" x="-1" y="-1"><feGaussianBlur result="blurOut" stdDeviation="2.0"/><feColorMatrix in="blurOut" result="blurOut2" type="matrix" values="0 0 0 0 0 0 0 0 0 0 0 0 0 0 0 0 0 0 .4 0"/><feOffset dx="4.0" dy="4.0" in="blurOut2" result="blurOut3"/><feBlend in="SourceGraphic" in2="blurOut3" mode="normal"/></filter></defs><g><polygon fill="#FFFFFF" filter="url(#f1)" points="22,24.5,46,24.5,53,46.9883,1595,46.9883,1595,1045,22,1045,22,24.5" style="stroke: #000000; stroke-width: 2.0;"/><line style="stroke: #000000; stroke-width: 2.0;" x1="22" x2="53" y1="46.9883" y2="46.9883"/><text fill="#000000" font-family="sans-serif" font-size="14" font-weight="bold" lengthAdjust="spacingAndGlyphs" textLength="18" x="26" y="40.0352">bp</text><polygon fill="#FFFFFF" filter="url(#f1)" points="855,67.5,931,67.5,938,89.9883,1571,89.9883,1571,696,855,696,855,67.5" style="stroke: #000000; stroke-width: 2.0;"/><line style="stroke: #000000; stroke-width: 2.0;" x1="855" x2="938" y1="89.9883" y2="89.9883"/><text fill="#000000" font-family="sans-serif" font-size="14" font-weight="bold" lengthAdjust="spacingAndGlyphs" textLength="70" x="859" y="83.0352">bprogram</text><polygon fill="#FFFFFF" filter="url(#f1)" points="1096,223,1171,223,1178,245.4883,1433,245.4883,1433,492,1096,492,1096,223" style="stroke: #000000; stroke-width: 2.0;"/><line style="stroke: #000000; stroke-width: 2.0;" x1="1096" x2="1178" y1="245.4883" y2="245.4883"/><text fill="#000000" font-family="sans-serif" font-size="14" font-weight="bold" lengthAdjust="spacingAndGlyphs" textLength="69" x="1100" y="238.5352">listenters</text><polygon fill="#FFFFFF" filter="url(#f1)" points="46,552,99,552,106,574.4883,148,574.4883,148,670,46,670,46,552" style="stroke: #000000; stroke-width: 2.0;"/><line style="stroke: #000000; stroke-width: 2.0;" x1="46" x2="106" y1="574.4883" y2="574.4883"/><text fill="#000000" font-family="sans-serif" font-size="14" font-weight="bold" lengthAdjust="spacingAndGlyphs" textLength="47" x="50" y="567.5352">events</text><polygon fill="#FFFFFF" filter="url(#f1)" points="472,729,547,729,554,751.4883,811,751.4883,811,1021,472,1021,472,729" style="stroke: #000000; stroke-width: 2.0;"/><line style="stroke: #000000; stroke-width: 2.0;" x1="472" x2="554" y1="751.4883" y2="751.4883"/><text fill="#000000" font-family="sans-serif" font-size="14" font-weight="bold" lengthAdjust="spacingAndGlyphs" textLength="69" x="476" y="744.5352">eventsets</text><polygon fill="#FFFFFF" filter="url(#f1)" points="172,216.5,282,216.5,289,238.9883,831,238.9883,831,679.5,172,679.5,172,216.5" style="stroke: #000000; stroke-width: 2.0;"/><line style="stroke: #000000; stroke-width: 2.0;" x1="172" x2="289" y1="238.9883" y2="238.9883"/><text fill="#000000" font-family="sans-serif" font-size="14" font-weight="bold" lengthAdjust="spacingAndGlyphs" textLength="104" x="176" y="232.0352">eventselection</text><rect fill="#FEFECE" filter="url(#f1)" height="73.9102" style="stroke: #A80036; stroke-width: 1.5;" width="121" x="871.5" y="264"/><ellipse cx="901.35" cy="280" fill="#ADD1B2" rx="11" ry="11" style="stroke: #A80036; stroke-width: 1.0;"/><path d="M904.3231,285.6431 Q903.7421,285.9419 903.1029,286.0913 Q902.4638,286.2407 901.7582,286.2407 Q899.2514,286.2407 897.9315,284.5889 Q896.6117,282.937 896.6117,279.8159 Q896.6117,276.6865 897.9315,275.0347 Q899.2514,273.3828 901.7582,273.3828 Q902.4638,273.3828 903.1112,273.5322 Q903.7587,273.6816 904.3231,273.9805 L904.3231,276.7031 Q903.6923,276.1221 903.0988,275.8523 Q902.5053,275.5825 901.8744,275.5825 Q900.5297,275.5825 899.8449,276.6492 Q899.1601,277.7158 899.1601,279.8159 Q899.1601,281.9077 899.8449,282.9744 Q900.5297,284.041 901.8744,284.041 Q902.5053,284.041 903.0988,283.7712 Q903.6923,283.5015 904.3231,282.9204 Z "/><text fill="#000000" font-family="sans-serif" font-size="12" lengthAdjust="spacingAndGlyphs" textLength="56" x="918.65" y="284.5352">BProgram</text><line style="stroke: #A80036; stroke-width: 1.5;" x1="872.5" x2="991.5" y1="296" y2="296"/><rect fill="none" height="6" style="stroke: #C82930; stroke-width: 1.0;" width="6" x="879.5" y="304.9775"/><text fill="#000000" font-family="sans-serif" font-size="11" lengthAdjust="spacingAndGlyphs" textLength="95" x="891.5" y="310.6348">javascriptContext</text><line style="stroke: #A80036; stroke-width: 1.5;" x1="872.5" x2="991.5" y1="316.9551" y2="316.9551"/><ellipse cx="882.5" cy="328.9326" fill="#84BE84" rx="3" ry="3" style="stroke: #038048; stroke-width: 1.0;"/><text fill="#000000" font-family="sans-serif" font-size="11" lengthAdjust="spacingAndGlyphs" textLength="33" x="891.5" y="331.5898">start()</text><rect fill="#FEFECE" filter="url(#f1)" height="60.9551" style="stroke: #A80036; stroke-width: 1.5;" width="121" x="877.5" y="421.5"/><ellipse cx="910.5" cy="437.5" fill="#ADD1B2" rx="11" ry="11" style="stroke: #A80036; stroke-width: 1.0;"/><path d="M913.4731,443.1431 Q912.8921,443.4419 912.2529,443.5913 Q911.6138,443.7407 910.9082,443.7407 Q908.4014,443.7407 907.0815,442.0889 Q905.7617,440.437 905.7617,437.3159 Q905.7617,434.1865 907.0815,432.5347 Q908.4014,430.8828 910.9082,430.8828 Q911.6138,430.8828 912.2612,431.0322 Q912.9087,431.1816 913.4731,431.4805 L913.4731,434.2031 Q912.8423,433.6221 912.2488,433.3523 Q911.6553,433.0825 911.0244,433.0825 Q909.6797,433.0825 908.9949,434.1492 Q908.3101,435.2158 908.3101,437.3159 Q908.3101,439.4077 908.9949,440.4744 Q909.6797,441.541 911.0244,441.541 Q911.6553,441.541 912.2488,441.2712 Q912.8423,441.0015 913.4731,440.4204 Z "/><text fill="#000000" font-family="sans-serif" font-size="12" lengthAdjust="spacingAndGlyphs" textLength="49" x="928.5" y="442.0352">BThread</text><line style="stroke: #A80036; stroke-width: 1.5;" x1="878.5" x2="997.5" y1="453.5" y2="453.5"/><rect fill="none" height="6" style="stroke: #C82930; stroke-width: 1.0;" width="6" x="885.5" y="462.4775"/><text fill="#000000" font-family="sans-serif" font-size="11" lengthAdjust="spacingAndGlyphs" textLength="95" x="897.5" y="468.1348">javascriptContext</text><line style="stroke: #A80036; stroke-width: 1.5;" x1="878.5" x2="997.5" y1="474.4551" y2="474.4551"/><rect fill="#FEFECE" filter="url(#f1)" height="73.9102" style="stroke: #A80036; stroke-width: 1.5;" width="105" x="1449.5" y="415"/><ellipse cx="1470.35" cy="431" fill="#ADD1B2" rx="11" ry="11" style="stroke: #A80036; stroke-width: 1.0;"/><path d="M1473.3231,436.6431 Q1472.7421,436.9419 1472.1029,437.0913 Q1471.4638,437.2407 1470.7582,437.2407 Q1468.2514,437.2407 1466.9315,435.5889 Q1465.6117,433.937 1465.6117,430.8159 Q1465.6117,427.6865 1466.9315,426.0347 Q1468.2514,424.3828 1470.7582,424.3828 Q1471.4638,424.3828 1472.1112,424.5322 Q1472.7587,424.6816 1473.3231,424.9805 L1473.3231,427.7031 Q1472.6923,427.1221 1472.0988,426.8523 Q1471.5053,426.5825 1470.8744,426.5825 Q1469.5297,426.5825 1468.8449,427.6492 Q1468.1601,428.7158 1468.1601,430.8159 Q1468.1601,432.9077 1468.8449,433.9744 Q1469.5297,435.041 1470.8744,435.041 Q1471.5053,435.041 1472.0988,434.7712 Q1472.6923,434.5015 1473.3231,433.9204 Z "/><text fill="#000000" font-family="sans-serif" font-size="12" lengthAdjust="spacingAndGlyphs" textLength="60" x="1485.65" y="435.5352">BSyncState</text><line style="stroke: #A80036; stroke-width: 1.5;" x1="1450.5" x2="1553.5" y1="447" y2="447"/><ellipse cx="1460.5" cy="458.9775" fill="none" rx="3" ry="3" style="stroke: #038048; stroke-width: 1.0;"/><text fill="#000000" font-family="sans-serif" font-size="11" lengthAdjust="spacingAndGlyphs" textLength="59" x="1469.5" y="461.6348">statements</text><ellipse cx="1460.5" cy="471.9326" fill="none" rx="3" ry="3" style="stroke: #038048; stroke-width: 1.0;"/><text fill="#000000" font-family="sans-serif" font-size="11" lengthAdjust="spacingAndGlyphs" textLength="79" x="1469.5" y="474.5898">externalEvents</text><line style="stroke: #A80036; stroke-width: 1.5;" x1="1450.5" x2="1553.5" y1="480.9102" y2="480.9102"/><rect fill="#FEFECE" filter="url(#f1)" height="99.8203" style="stroke: #A80036; stroke-width: 1.5;" width="157" x="871.5" y="580"/><ellipse cx="905.85" cy="596" fill="#ADD1B2" rx="11" ry="11" style="stroke: #A80036; stroke-width: 1.0;"/><path d="M908.8231,601.6431 Q908.2421,601.9419 907.6029,602.0913 Q906.9638,602.2407 906.2582,602.2407 Q903.7514,602.2407 902.4315,600.5889 Q901.1117,598.937 901.1117,595.8159 Q901.1117,592.6865 902.4315,591.0347 Q903.7514,589.3828 906.2582,589.3828 Q906.9638,589.3828 907.6112,589.5322 Q908.2587,589.6816 908.8231,589.9805 L908.8231,592.7031 Q908.1923,592.1221 907.5988,591.8523 Q907.0053,591.5825 906.3744,591.5825 Q905.0297,591.5825 904.3449,592.6492 Q903.6601,593.7158 903.6601,595.8159 Q903.6601,597.9077 904.3449,598.9744 Q905.0297,600.041 906.3744,600.041 Q907.0053,600.041 907.5988,599.7712 Q908.1923,599.5015 908.8231,598.9204 Z "/><text fill="#000000" font-family="sans-serif" font-size="12" lengthAdjust="spacingAndGlyphs" textLength="82" x="924.15" y="600.5352">RWBStatement</text><line style="stroke: #A80036; stroke-width: 1.5;" x1="872.5" x2="1027.5" y1="612" y2="612"/><ellipse cx="882.5" cy="623.9775" fill="none" rx="3" ry="3" style="stroke: #038048; stroke-width: 1.0;"/><text fill="#000000" font-family="sans-serif" font-size="11" lengthAdjust="spacingAndGlyphs" textLength="131" x="891.5" y="626.6348">request: ExplicitEventSet</text><ellipse cx="882.5" cy="636.9326" fill="none" rx="3" ry="3" style="stroke: #038048; stroke-width: 1.0;"/><text fill="#000000" font-family="sans-serif" font-size="11" lengthAdjust="spacingAndGlyphs" textLength="90" x="891.5" y="639.5898">waitFor: EventSet</text><ellipse cx="882.5" cy="649.8877" fill="none" rx="3" ry="3" style="stroke: #038048; stroke-width: 1.0;"/><text fill="#000000" font-family="sans-serif" font-size="11" lengthAdjust="spacingAndGlyphs" textLength="80" x="891.5" y="652.5449">block: EventSet</text><ellipse cx="882.5" cy="662.8428" fill="none" rx="3" ry="3" style="stroke: #038048; stroke-width: 1.0;"/><text fill="#000000" font-family="sans-serif" font-size="11" lengthAdjust="spacingAndGlyphs" textLength="110" x="891.5" y="665.5">breakUpon: EventSet</text><line style="stroke: #A80036; stroke-width: 1.5;" x1="872.5" x2="1027.5" y1="671.8203" y2="671.8203"/><rect fill="#FEFECE" filter="url(#f1)" height="48" style="stroke: #A80036; stroke-width: 1.5;" width="174" x="871" y="121.5"/><ellipse cx="886" cy="137.5" fill="#ADD1B2" rx="11" ry="11" style="stroke: #A80036; stroke-width: 1.0;"/><path d="M888.9731,143.1431 Q888.3921,143.4419 887.7529,143.5913 Q887.1138,143.7407 886.4082,143.7407 Q883.9014,143.7407 882.5815,142.0889 Q881.2617,140.437 881.2617,137.3159 Q881.2617,134.1865 882.5815,132.5347 Q883.9014,130.8828 886.4082,130.8828 Q887.1138,130.8828 887.7612,131.0322 Q888.4087,131.1816 888.9731,131.4805 L888.9731,134.2031 Q888.3423,133.6221 887.7488,133.3523 Q887.1553,133.0825 886.5244,133.0825 Q885.1797,133.0825 884.4949,134.1492 Q883.8101,135.2158 883.8101,137.3159 Q883.8101,139.4077 884.4949,140.4744 Q885.1797,141.541 886.5244,141.541 Q887.1553,141.541 887.7488,141.2712 Q888.3423,141.0015 888.9731,140.4204 Z "/><text fill="#000000" font-family="sans-serif" font-size="12" lengthAdjust="spacingAndGlyphs" textLength="142" x="900" y="142.0352">SingleResourceBProgram</text><line style="stroke: #A80036; stroke-width: 1.5;" x1="872" x2="1044" y1="153.5" y2="153.5"/><line style="stroke: #A80036; stroke-width: 1.5;" x1="872" x2="1044" y1="161.5" y2="161.5"/><rect fill="#FEFECE" filter="url(#f1)" height="48" style="stroke: #A80036; stroke-width: 1.5;" width="133" x="1112.5" y="428"/><ellipse cx="1127.5" cy="444" fill="#B4A7E5" rx="11" ry="11" style="stroke: #A80036; stroke-width: 1.0;"/><path d="M1123.4277,439.7651 L1123.4277,437.6069 L1130.8071,437.6069 L1130.8071,439.7651 L1128.3418,439.7651 L1128.3418,447.8418 L1130.8071,447.8418 L1130.8071,450 L1123.4277,450 L1123.4277,447.8418 L1125.8931,447.8418 L1125.8931,439.7651 Z "/><text fill="#000000" font-family="sans-serif" font-size="12" font-style="italic" lengthAdjust="spacingAndGlyphs" textLength="101" x="1141.5" y="448.5352">BProgramListener</text><line style="stroke: #A80036; stroke-width: 1.5;" x1="1113.5" x2="1244.5" y1="460" y2="460"/><line style="stroke: #A80036; stroke-width: 1.5;" x1="1113.5" x2="1244.5" y1="468" y2="468"/><rect fill="#FEFECE" filter="url(#f1)" height="48" style="stroke: #A80036; stroke-width: 1.5;" width="158" x="1259" y="277"/><ellipse cx="1274" cy="293" fill="#ADD1B2" rx="11" ry="11" style="stroke: #A80036; stroke-width: 1.0;"/><path d="M1276.9731,298.6431 Q1276.3921,298.9419 1275.7529,299.0913 Q1275.1138,299.2407 1274.4082,299.2407 Q1271.9014,299.2407 1270.5815,297.5889 Q1269.2617,295.937 1269.2617,292.8159 Q1269.2617,289.6865 1270.5815,288.0347 Q1271.9014,286.3828 1274.4082,286.3828 Q1275.1138,286.3828 1275.7612,286.5322 Q1276.4087,286.6816 1276.9731,286.9805 L1276.9731,289.7031 Q1276.3423,289.1221 1275.7488,288.8523 Q1275.1553,288.5825 1274.5244,288.5825 Q1273.1797,288.5825 1272.4949,289.6492 Q1271.8101,290.7158 1271.8101,292.8159 Q1271.8101,294.9077 1272.4949,295.9744 Q1273.1797,297.041 1274.5244,297.041 Q1275.1553,297.041 1275.7488,296.7712 Q1276.3423,296.5015 1276.9731,295.9204 Z "/><text fill="#000000" font-family="sans-serif" font-size="12" lengthAdjust="spacingAndGlyphs" textLength="126" x="1288" y="297.5352">InMemoryEventLogger</text><line style="stroke: #A80036; stroke-width: 1.5;" x1="1260" x2="1416" y1="309" y2="309"/><line style="stroke: #A80036; stroke-width: 1.5;" x1="1260" x2="1416" y1="317" y2="317"/><rect fill="#FEFECE" filter="url(#f1)" height="48" style="stroke: #A80036; stroke-width: 1.5;" width="111" x="1112.5" y="277"/><ellipse cx="1127.5" cy="293" fill="#ADD1B2" rx="11" ry="11" style="stroke: #A80036; stroke-width: 1.0;"/><path d="M1130.4731,298.6431 Q1129.8921,298.9419 1129.2529,299.0913 Q1128.6138,299.2407 1127.9082,299.2407 Q1125.4014,299.2407 1124.0815,297.5889 Q1122.7617,295.937 1122.7617,292.8159 Q1122.7617,289.6865 1124.0815,288.0347 Q1125.4014,286.3828 1127.9082,286.3828 Q1128.6138,286.3828 1129.2612,286.5322 Q1129.9087,286.6816 1130.4731,286.9805 L1130.4731,289.7031 Q1129.8423,289.1221 1129.2488,288.8523 Q1128.6553,288.5825 1128.0244,288.5825 Q1126.6797,288.5825 1125.9949,289.6492 Q1125.3101,290.7158 1125.3101,292.8159 Q1125.3101,294.9077 1125.9949,295.9744 Q1126.6797,297.041 1128.0244,297.041 Q1128.6553,297.041 1129.2488,296.7712 Q1129.8423,296.5015 1130.4731,295.9204 Z "/><text fill="#000000" font-family="sans-serif" font-size="12" lengthAdjust="spacingAndGlyphs" textLength="79" x="1141.5" y="297.5352">StreamLogger</text><line style="stroke: #A80036; stroke-width: 1.5;" x1="1113.5" x2="1222.5" y1="309" y2="309"/><line style="stroke: #A80036; stroke-width: 1.5;" x1="1113.5" x2="1222.5" y1="317" y2="317"/><rect fill="#FEFECE" filter="url(#f1)" height="48" style="stroke: #A80036; stroke-width: 1.5;" width="70" x="62" y="606"/><ellipse cx="77" cy="622" fill="#ADD1B2" rx="11" ry="11" style="stroke: #A80036; stroke-width: 1.0;"/><path d="M79.9731,627.6431 Q79.3921,627.9419 78.7529,628.0913 Q78.1138,628.2407 77.4082,628.2407 Q74.9014,628.2407 73.5815,626.5889 Q72.2617,624.937 72.2617,621.8159 Q72.2617,618.6865 73.5815,617.0347 Q74.9014,615.3828 77.4082,615.3828 Q78.1138,615.3828 78.7612,615.5322 Q79.4087,615.6816 79.9731,615.9805 L79.9731,618.7031 Q79.3423,618.1221 78.7488,617.8523 Q78.1553,617.5825 77.5244,617.5825 Q76.1797,617.5825 75.4949,618.6492 Q74.8101,619.7158 74.8101,621.8159 Q74.8101,623.9077 75.4949,624.9744 Q76.1797,626.041 77.5244,626.041 Q78.1553,626.041 78.7488,625.7712 Q79.3423,625.5015 79.9731,624.9204 Z "/><text fill="#000000" font-family="sans-serif" font-size="12" lengthAdjust="spacingAndGlyphs" textLength="38" x="91" y="626.5352">BEvent</text><line style="stroke: #A80036; stroke-width: 1.5;" x1="63" x2="131" y1="638" y2="638"/><line style="stroke: #A80036; stroke-width: 1.5;" x1="63" x2="131" y1="646" y2="646"/><rect fill="#FEFECE" filter="url(#f1)" height="60.9551" style="stroke: #A80036; stroke-width: 1.5;" width="101" x="693.5" y="802.5"/><ellipse cx="717.95" cy="818.5" fill="#B4A7E5" rx="11" ry="11" style="stroke: #A80036; stroke-width: 1.0;"/><path d="M713.8777,814.2651 L713.8777,812.1069 L721.2571,812.1069 L721.2571,814.2651 L718.7918,814.2651 L718.7918,822.3418 L721.2571,822.3418 L721.2571,824.5 L713.8777,824.5 L713.8777,822.3418 L716.3431,822.3418 L716.3431,814.2651 Z "/><text fill="#000000" font-family="sans-serif" font-size="12" font-style="italic" lengthAdjust="spacingAndGlyphs" textLength="48" x="734.05" y="823.0352">EventSet</text><line style="stroke: #A80036; stroke-width: 1.5;" x1="694.5" x2="793.5" y1="834.5" y2="834.5"/><line style="stroke: #A80036; stroke-width: 1.5;" x1="694.5" x2="793.5" y1="842.5" y2="842.5"/><text fill="#000000" font-family="sans-serif" font-size="11" lengthAdjust="spacingAndGlyphs" textLength="89" x="699.5" y="857.1348">contains(BEvent)</text><rect fill="#FEFECE" filter="url(#f1)" height="60.9551" style="stroke: #A80036; stroke-width: 1.5;" width="127" x="667.5" y="944"/><ellipse cx="685.2" cy="960" fill="#ADD1B2" rx="11" ry="11" style="stroke: #A80036; stroke-width: 1.0;"/><path d="M688.1731,965.6431 Q687.5921,965.9419 686.9529,966.0913 Q686.3138,966.2407 685.6082,966.2407 Q683.1014,966.2407 681.7815,964.5889 Q680.4617,962.937 680.4617,959.8159 Q680.4617,956.6865 681.7815,955.0347 Q683.1014,953.3828 685.6082,953.3828 Q686.3138,953.3828 686.9612,953.5322 Q687.6087,953.6816 688.1731,953.9805 L688.1731,956.7031 Q687.5423,956.1221 686.9488,955.8523 Q686.3553,955.5825 685.7244,955.5825 Q684.3797,955.5825 683.6949,956.6492 Q683.0101,957.7158 683.0101,959.8159 Q683.0101,961.9077 683.6949,962.9744 Q684.3797,964.041 685.7244,964.041 Q686.3553,964.041 686.9488,963.7712 Q687.5423,963.5015 688.1731,962.9204 Z "/><text fill="#000000" font-family="sans-serif" font-size="12" lengthAdjust="spacingAndGlyphs" textLength="89" x="699.8" y="964.5352">ExplicitEventSet</text><line style="stroke: #A80036; stroke-width: 1.5;" x1="668.5" x2="793.5" y1="976" y2="976"/><ellipse cx="678.5" cy="987.9775" fill="none" rx="3" ry="3" style="stroke: #038048; stroke-width: 1.0;"/><text fill="#000000" font-family="sans-serif" font-size="11" lengthAdjust="spacingAndGlyphs" textLength="101" x="687.5" y="990.6348">events:Set&lt;Event&gt;</text><line style="stroke: #A80036; stroke-width: 1.5;" x1="668.5" x2="793.5" y1="996.9551" y2="996.9551"/><rect fill="#FEFECE" filter="url(#f1)" height="99.8203" style="stroke: #A80036; stroke-width: 1.5;" width="170" x="488" y="783"/><ellipse cx="550.25" cy="799" fill="#ADD1B2" rx="11" ry="11" style="stroke: #A80036; stroke-width: 1.0;"/><path d="M553.2231,804.6431 Q552.6421,804.9419 552.0029,805.0913 Q551.3638,805.2407 550.6582,805.2407 Q548.1514,805.2407 546.8315,803.5889 Q545.5117,801.937 545.5117,798.8159 Q545.5117,795.6865 546.8315,794.0347 Q548.1514,792.3828 550.6582,792.3828 Q551.3638,792.3828 552.0112,792.5322 Q552.6587,792.6816 553.2231,792.9805 L553.2231,795.7031 Q552.5923,795.1221 551.9988,794.8523 Q551.4053,794.5825 550.7744,794.5825 Q549.4297,794.5825 548.7449,795.6492 Q548.0601,796.7158 548.0601,798.8159 Q548.0601,800.9077 548.7449,801.9744 Q549.4297,803.041 550.7744,803.041 Q551.4053,803.041 551.9988,802.7712 Q552.5923,802.5015 553.2231,801.9204 Z "/><text fill="#000000" font-family="sans-serif" font-size="12" lengthAdjust="spacingAndGlyphs" textLength="37" x="570.75" y="803.5352">Events</text><line style="stroke: #A80036; stroke-width: 1.5;" x1="489" x2="657" y1="815" y2="815"/><text fill="#000000" font-family="sans-serif" font-size="11" lengthAdjust="spacingAndGlyphs" text-decoration="underline" textLength="100" x="494" y="829.6348">emptySet: EventSet</text><line style="stroke: #000000; stroke-width: 1.0;" x1="494" x2="594" y1="831.6348" y2="831.6348"/><text fill="#000000" font-family="sans-serif" font-size="11" lengthAdjust="spacingAndGlyphs" text-decoration="underline" textLength="79" x="494" y="842.5898">allSet: EventSet</text><line style="stroke: #000000; stroke-width: 1.0;" x1="494" x2="573" y1="844.5898" y2="844.5898"/><text fill="#000000" font-family="sans-serif" font-size="11" lengthAdjust="spacingAndGlyphs" text-decoration="underline" textLength="124" x="494" y="855.5449">noEvents: Set&lt;BEvent&gt;</text><line style="stroke: #000000; stroke-width: 1.0;" x1="494" x2="618" y1="857.5449" y2="857.5449"/><line style="stroke: #A80036; stroke-width: 1.5;" x1="489" x2="657" y1="861.8652" y2="861.8652"/><text fill="#000000" font-family="sans-serif" font-size="11" lengthAdjust="spacingAndGlyphs" text-decoration="underline" textLength="158" x="494" y="876.5">ofClass( Class ): Set&lt;BEvent&gt;</text><line style="stroke: #000000; stroke-width: 1.0;" x1="494" x2="652" y1="878.5" y2="878.5"/><rect fill="#FEFECE" filter="url(#f1)" height="60.9551" style="stroke: #A80036; stroke-width: 1.5;" width="226" x="589" y="421.5"/><ellipse cx="634.25" cy="437.5" fill="#B4A7E5" rx="11" ry="11" style="stroke: #A80036; stroke-width: 1.0;"/><path d="M630.1777,433.2651 L630.1777,431.1069 L637.5571,431.1069 L637.5571,433.2651 L635.0918,433.2651 L635.0918,441.3418 L637.5571,441.3418 L637.5571,443.5 L630.1777,443.5 L630.1777,441.3418 L632.6431,441.3418 L632.6431,433.2651 Z "/><text fill="#000000" font-family="sans-serif" font-size="12" font-style="italic" lengthAdjust="spacingAndGlyphs" textLength="127" x="654.75" y="442.0352">EventSelectionStrategy</text><line style="stroke: #A80036; stroke-width: 1.5;" x1="590" x2="814" y1="453.5" y2="453.5"/><line style="stroke: #A80036; stroke-width: 1.5;" x1="590" x2="814" y1="461.5" y2="461.5"/><text fill="#000000" font-family="sans-serif" font-size="11" lengthAdjust="spacingAndGlyphs" textLength="214" x="595" y="476.1348">EventSelectionResult select(statements);</text><rect fill="#FEFECE" filter="url(#f1)" height="60.9551" style="stroke: #A80036; stroke-width: 1.5;" width="197" x="603.5" y="270.5"/><ellipse cx="618.5" cy="286.5" fill="#ADD1B2" rx="11" ry="11" style="stroke: #A80036; stroke-width: 1.0;"/><path d="M621.4731,292.1431 Q620.8921,292.4419 620.2529,292.5913 Q619.6138,292.7407 618.9082,292.7407 Q616.4014,292.7407 615.0815,291.0889 Q613.7617,289.437 613.7617,286.3159 Q613.7617,283.1865 615.0815,281.5347 Q616.4014,279.8828 618.9082,279.8828 Q619.6138,279.8828 620.2612,280.0322 Q620.9087,280.1816 621.4731,280.4805 L621.4731,283.2031 Q620.8423,282.6221 620.2488,282.3523 Q619.6553,282.0825 619.0244,282.0825 Q617.6797,282.0825 616.9949,283.1492 Q616.3101,284.2158 616.3101,286.3159 Q616.3101,288.4077 616.9949,289.4744 Q617.6797,290.541 619.0244,290.541 Q619.6553,290.541 620.2488,290.2712 Q620.8423,290.0015 621.4731,289.4204 Z "/><text fill="#000000" font-family="sans-serif" font-size="12" lengthAdjust="spacingAndGlyphs" textLength="165" x="632.5" y="291.0352">SimpleEventSelectionStrategy</text><line style="stroke: #A80036; stroke-width: 1.5;" x1="604.5" x2="799.5" y1="302.5" y2="302.5"/><ellipse cx="614.5" cy="314.4775" fill="none" rx="3" ry="3" style="stroke: #038048; stroke-width: 1.0;"/><text fill="#000000" font-family="sans-serif" font-size="11" lengthAdjust="spacingAndGlyphs" textLength="84" x="623.5" y="317.1348">randomSeed:int</text><line style="stroke: #A80036; stroke-width: 1.5;" x1="604.5" x2="799.5" y1="323.4551" y2="323.4551"/><rect fill="#FEFECE" filter="url(#f1)" height="60.9551" style="stroke: #A80036; stroke-width: 1.5;" width="80" x="188" y="421.5"/><ellipse cx="203" cy="437.5" fill="#ADD1B2" rx="11" ry="11" style="stroke: #A80036; stroke-width: 1.0;"/><path d="M205.9731,443.1431 Q205.3921,443.4419 204.7529,443.5913 Q204.1138,443.7407 203.4082,443.7407 Q200.9014,443.7407 199.5815,442.0889 Q198.2617,440.437 198.2617,437.3159 Q198.2617,434.1865 199.5815,432.5347 Q200.9014,430.8828 203.4082,430.8828 Q204.1138,430.8828 204.7612,431.0322 Q205.4087,431.1816 205.9731,431.4805 L205.9731,434.2031 Q205.3423,433.6221 204.7488,433.3523 Q204.1553,433.0825 203.5244,433.0825 Q202.1797,433.0825 201.4949,434.1492 Q200.8101,435.2158 200.8101,437.3159 Q200.8101,439.4077 201.4949,440.4744 Q202.1797,441.541 203.5244,441.541 Q204.1553,441.541 204.7488,441.2712 Q205.3423,441.0015 205.9731,440.4204 Z "/><text fill="#000000" font-family="sans-serif" font-size="12" lengthAdjust="spacingAndGlyphs" textLength="48" x="217" y="442.0352">Selected</text><line style="stroke: #A80036; stroke-width: 1.5;" x1="189" x2="267" y1="453.5" y2="453.5"/><ellipse cx="199" cy="465.4775" fill="none" rx="3" ry="3" style="stroke: #038048; stroke-width: 1.0;"/><text fill="#000000" font-family="sans-serif" font-size="11" lengthAdjust="spacingAndGlyphs" textLength="29" x="208" y="468.1348">event</text><line style="stroke: #A80036; stroke-width: 1.5;" x1="189" x2="267" y1="474.4551" y2="474.4551"/><rect fill="#FEFECE" filter="url(#f1)" height="60.9551" style="stroke: #A80036; stroke-width: 1.5;" width="127" x="188.5" y="270.5"/><ellipse cx="203.5" cy="286.5" fill="#ADD1B2" rx="11" ry="11" style="stroke: #A80036; stroke-width: 1.0;"/><path d="M206.4731,292.1431 Q205.8921,292.4419 205.2529,292.5913 Q204.6138,292.7407 203.9082,292.7407 Q201.4014,292.7407 200.0815,291.0889 Q198.7617,289.437 198.7617,286.3159 Q198.7617,283.1865 200.0815,281.5347 Q201.4014,279.8828 203.9082,279.8828 Q204.6138,279.8828 205.2612,280.0322 Q205.9087,280.1816 206.4731,280.4805 L206.4731,283.2031 Q205.8423,282.6221 205.2488,282.3523 Q204.6553,282.0825 204.0244,282.0825 Q202.6797,282.0825 201.9949,283.1492 Q201.3101,284.2158 201.3101,286.3159 Q201.3101,288.4077 201.9949,289.4744 Q202.6797,290.541 204.0244,290.541 Q204.6553,290.541 205.2488,290.2712 Q205.8423,290.0015 206.4731,289.4204 Z "/><text fill="#000000" font-family="sans-serif" font-size="12" lengthAdjust="spacingAndGlyphs" textLength="95" x="217.5" y="291.0352">SelectedExternal</text><line style="stroke: #A80036; stroke-width: 1.5;" x1="189.5" x2="314.5" y1="302.5" y2="302.5"/><ellipse cx="199.5" cy="314.4775" fill="none" rx="3" ry="3" style="stroke: #038048; stroke-width: 1.0;"/><text fill="#000000" font-family="sans-serif" font-size="11" lengthAdjust="spacingAndGlyphs" textLength="30" x="208.5" y="317.1348">index</text><line style="stroke: #A80036; stroke-width: 1.5;" x1="189.5" x2="314.5" y1="323.4551" y2="323.4551"/><rect fill="#FEFECE" filter="url(#f1)" height="67.2207" style="stroke: #A80036; stroke-width: 1.5;" width="151" x="360.5" y="596.5"/><ellipse cx="376.85" cy="615.6328" fill="#ADD1B2" rx="11" ry="11" style="stroke: #A80036; stroke-width: 1.0;"/><path d="M379.8231,621.2759 Q379.2421,621.5747 378.6029,621.7241 Q377.9638,621.8735 377.2582,621.8735 Q374.7514,621.8735 373.4315,620.2217 Q372.1117,618.5698 372.1117,615.4487 Q372.1117,612.3193 373.4315,610.6675 Q374.7514,609.0156 377.2582,609.0156 Q377.9638,609.0156 378.6112,609.165 Q379.2587,609.3145 379.8231,609.6133 L379.8231,612.3359 Q379.1923,611.7549 378.5988,611.4851 Q378.0053,611.2153 377.3744,611.2153 Q376.0297,611.2153 375.3449,612.282 Q374.6601,613.3486 374.6601,615.4487 Q374.6601,617.5405 375.3449,618.6072 Q376.0297,619.6738 377.3744,619.6738 Q378.0053,619.6738 378.5988,619.4041 Q379.1923,619.1343 379.8231,618.5532 Z "/><text fill="#000000" font-family="sans-serif" font-size="12" font-style="italic" lengthAdjust="spacingAndGlyphs" textLength="59" x="419.65" y="613.1016">«abstract»</text><text fill="#000000" font-family="sans-serif" font-size="12" lengthAdjust="spacingAndGlyphs" textLength="116" x="391.15" y="627.2344">EventSelectionResult</text><line style="stroke: #A80036; stroke-width: 1.5;" x1="361.5" x2="510.5" y1="634.7656" y2="634.7656"/><line style="stroke: #A80036; stroke-width: 1.5;" x1="361.5" x2="510.5" y1="642.7656" y2="642.7656"/><ellipse cx="371.5" cy="654.7432" fill="#84BE84" rx="3" ry="3" style="stroke: #038048; stroke-width: 1.0;"/><text fill="#000000" font-family="sans-serif" font-size="11" lengthAdjust="spacingAndGlyphs" textLength="125" x="380.5" y="657.4004">accept( Visitor&lt;R&gt; ) : R</text><rect fill="#FEFECE" filter="url(#f1)" height="54.2656" style="stroke: #A80036; stroke-width: 1.5;" width="91" x="462.5" y="425"/><ellipse cx="477.5" cy="444.1328" fill="#ADD1B2" rx="11" ry="11" style="stroke: #A80036; stroke-width: 1.0;"/><path d="M480.4731,449.7759 Q479.8921,450.0747 479.2529,450.2241 Q478.6138,450.3735 477.9082,450.3735 Q475.4014,450.3735 474.0815,448.7217 Q472.7617,447.0698 472.7617,443.9487 Q472.7617,440.8193 474.0815,439.1675 Q475.4014,437.5156 477.9082,437.5156 Q478.6138,437.5156 479.2612,437.665 Q479.9087,437.8145 480.4731,438.1133 L480.4731,440.8359 Q479.8423,440.2549 479.2488,439.9851 Q478.6553,439.7153 478.0244,439.7153 Q476.6797,439.7153 475.9949,440.782 Q475.3101,441.8486 475.3101,443.9487 Q475.3101,446.0405 475.9949,447.1072 Q476.6797,448.1738 478.0244,448.1738 Q478.6553,448.1738 479.2488,447.9041 Q479.8423,447.6343 480.4731,447.0532 Z "/><text fill="#000000" font-family="sans-serif" font-size="12" font-style="italic" lengthAdjust="spacingAndGlyphs" textLength="63" x="489.5" y="441.6016">«Singleton»</text><text fill="#000000" font-family="sans-serif" font-size="12" lengthAdjust="spacingAndGlyphs" textLength="54" x="494" y="455.7344">Deadlock</text><line style="stroke: #A80036; stroke-width: 1.5;" x1="463.5" x2="552.5" y1="463.2656" y2="463.2656"/><line style="stroke: #A80036; stroke-width: 1.5;" x1="463.5" x2="552.5" y1="471.2656" y2="471.2656"/><rect fill="#FEFECE" filter="url(#f1)" height="54.2656" style="stroke: #A80036; stroke-width: 1.5;" width="124" x="303" y="425"/><ellipse cx="318" cy="444.1328" fill="#ADD1B2" rx="11" ry="11" style="stroke: #A80036; stroke-width: 1.0;"/><path d="M320.9731,449.7759 Q320.3921,450.0747 319.7529,450.2241 Q319.1138,450.3735 318.4082,450.3735 Q315.9014,450.3735 314.5815,448.7217 Q313.2617,447.0698 313.2617,443.9487 Q313.2617,440.8193 314.5815,439.1675 Q315.9014,437.5156 318.4082,437.5156 Q319.1138,437.5156 319.7612,437.665 Q320.4087,437.8145 320.9731,438.1133 L320.9731,440.8359 Q320.3423,440.2549 319.7488,439.9851 Q319.1553,439.7153 318.5244,439.7153 Q317.1797,439.7153 316.4949,440.782 Q315.8101,441.8486 315.8101,443.9487 Q315.8101,446.0405 316.4949,447.1072 Q317.1797,448.1738 318.5244,448.1738 Q319.1553,448.1738 319.7488,447.9041 Q320.3423,447.6343 320.9731,447.0532 Z "/><text fill="#000000" font-family="sans-serif" font-size="12" font-style="italic" lengthAdjust="spacingAndGlyphs" textLength="63" x="346.5" y="441.6016">«Singleton»</text><text fill="#000000" font-family="sans-serif" font-size="12" lengthAdjust="spacingAndGlyphs" textLength="92" x="332" y="455.7344">NoneRequested</text><line style="stroke: #A80036; stroke-width: 1.5;" x1="304" x2="426" y1="463.2656" y2="463.2656"/><line style="stroke: #A80036; stroke-width: 1.5;" x1="304" x2="426" y1="471.2656" y2="471.2656"/><path d="M1313.16,325.281 C1287.84,349.009 1248.18,386.171 1218.54,413.948 " fill="none" style="stroke: #A80036; stroke-width: 1.0; stroke-dasharray: 7.0,7.0;"/><polygon fill="none" points="1223.05,419.314,1203.67,427.882,1213.48,409.099,1223.05,419.314" style="stroke: #A80036; stroke-width: 1.0;"/><path d="M1169.72,325.281 C1171.34,347.259 1173.81,380.764 1175.8,407.66 " fill="none" style="stroke: #A80036; stroke-width: 1.0; stroke-dasharray: 7.0,7.0;"/><polygon fill="none" points="1182.8,407.421,1177.29,427.882,1168.84,408.452,1182.8,407.421" style="stroke: #A80036; stroke-width: 1.0;"/><path d="M940.94,496.12 C942.387,517.34 944.158,543.315 945.749,566.651 " fill="none" style="stroke: #A80036; stroke-width: 1.0;"/><polygon fill="#A80036" points="946.636,579.663,950.0145,570.4118,946.2959,574.6746,942.0331,570.9559,946.636,579.663" style="stroke: #A80036; stroke-width: 1.0;"/><line style="stroke: #A80036; stroke-width: 1.0;" x1="946.2959" x2="945.7515" y1="574.6746" y2="566.6935"/><polygon fill="#A80036" points="940.036,482.856,936.4534,489.1142,940.8523,494.8282,944.4349,488.57,940.036,482.856" style="stroke: #A80036; stroke-width: 1.0;"/><text fill="#000000" font-family="sans-serif" font-size="13" lengthAdjust="spacingAndGlyphs" textLength="24" x="920.4754" y="569.1325">0..1</text><path d="M881.691,349.031 C875.153,360.319 872.181,372.685 877,385 C880.718,394.501 886.517,403.455 893.091,411.52 " fill="none" style="stroke: #A80036; stroke-width: 1.0;"/><polygon fill="#A80036" points="901.734,421.237,898.7402,411.8542,898.4105,417.5014,892.7633,417.1718,901.734,421.237" style="stroke: #A80036; stroke-width: 1.0;"/><line style="stroke: #A80036; stroke-width: 1.0;" x1="898.4105" x2="893.0935" y1="417.5014" y2="411.5235"/><polygon fill="#A80036" points="889.26,338.145,882.5505,340.7875,882.4092,347.9972,889.1187,345.3547,889.26,338.145" style="stroke: #A80036; stroke-width: 1.0;"/><text fill="#000000" font-family="sans-serif" font-size="13" lengthAdjust="spacingAndGlyphs" textLength="22" x="869.9854" y="410.9503">1..*</text><path d="M904.563,350.934 C901.392,363.128 901.776,375.437 910,385 C939.015,418.743 1065.62,401.432 1108,415 C1114.34,417.028 1120.8,419.567 1127.12,422.352 " fill="none" style="stroke: #A80036; stroke-width: 1.0;"/><polygon fill="#A80036" points="1139.02,427.943,1132.5752,420.4955,1134.4946,425.8168,1129.1733,427.7362,1139.02,427.943" style="stroke: #A80036; stroke-width: 1.0;"/><line style="stroke: #A80036; stroke-width: 1.0;" x1="1134.4946" x2="1127.255" y1="425.8168" y2="422.4165"/><polygon fill="#A80036" points="908.975,338.388,903.2111,342.7212,904.9941,349.7084,910.758,345.3752,908.975,338.388" style="stroke: #A80036; stroke-width: 1.0;"/><text fill="#000000" font-family="sans-serif" font-size="13" lengthAdjust="spacingAndGlyphs" textLength="54" x="911" y="381.5684">listeners</text><text fill="#000000" font-family="sans-serif" font-size="13" lengthAdjust="spacingAndGlyphs" textLength="22" x="1103.3191" y="417.0721">1..*</text><path d="M1441.52,495.792 C1438.68,497.289 1435.84,498.701 1433,500 C1303.48,559.318 1141.5,595.6 1041.92,614.002 " fill="none" style="stroke: #A80036; stroke-width: 1.0;"/><polygon fill="#A80036" points="1028.9,616.373,1038.4709,618.6963,1033.8191,615.4774,1037.038,610.8256,1028.9,616.373" style="stroke: #A80036; stroke-width: 1.0;"/><line style="stroke: #A80036; stroke-width: 1.0;" x1="1033.8191" x2="1041.685" y1="615.4774" y2="614.0445"/><polygon fill="#FFFFFF" points="1453.05,489.226,1445.8564,488.7234,1442.6257,495.1703,1449.8193,495.6729,1453.05,489.226" style="stroke: #A80036; stroke-width: 1.0;"/><text fill="#000000" font-family="sans-serif" font-size="13" lengthAdjust="spacingAndGlyphs" textLength="22" x="1036.6258" y="612.1468">1..*</text><path d="M954.051,169.813 C950.727,189.437 945.836,218.313 941.505,243.886 " fill="none" style="stroke: #A80036; stroke-width: 1.0;"/><polygon fill="none" points="948.36,245.331,938.118,263.881,934.556,242.993,948.36,245.331" style="stroke: #A80036; stroke-width: 1.0;"/><path d="M739.363,883.76 C737.485,903.909 735.381,926.489 733.753,943.958 " fill="none" style="stroke: #A80036; stroke-width: 1.0; stroke-dasharray: 7.0,7.0;"/><polygon fill="none" points="732.417,882.849,741.243,863.584,746.357,884.148,732.417,882.849" style="stroke: #A80036; stroke-width: 1.0;"/><path d="M654.635,951.611 C601.707,935.34 530.204,911.148 470,883 C330.04,817.564 294.395,798.287 172,704 C156.4,691.983 140.567,677.057 127.494,663.84 " fill="none" style="stroke: #A80036; stroke-width: 1.0;"/><polygon fill="#A80036" points="118.085,654.142,121.4809,663.3869,121.5666,657.7307,127.2228,657.8164,118.085,654.142" style="stroke: #A80036; stroke-width: 1.0;"/><line style="stroke: #A80036; stroke-width: 1.0;" x1="121.5666" x2="127.137" y1="657.7307" y2="663.4715"/><polygon fill="#A80036" points="667.332,955.472,662.7556,949.8991,655.8513,951.9801,660.4277,957.5529,667.332,955.472" style="stroke: #A80036; stroke-width: 1.0;"/><text fill="#000000" font-family="sans-serif" font-size="13" lengthAdjust="spacingAndGlyphs" textLength="22" x="98.5426" y="674.4609">0..*</text><path d="M263.284,482.856 C295.766,510.341 344.436,551.523 381.84,583.172 " fill="none" style="stroke: #A80036; stroke-width: 1.0;"/><polygon fill="none" points="386.612,578.041,397.359,596.303,377.569,588.728,386.612,578.041" style="stroke: #A80036; stroke-width: 1.0;"/><path d="M247.201,331.794 C243.996,351.691 239.704,378.338 235.991,401.392 " fill="none" style="stroke: #A80036; stroke-width: 1.0;"/><polygon fill="none" points="242.882,402.625,232.791,421.257,229.06,400.399,242.882,402.625" style="stroke: #A80036; stroke-width: 1.0;"/><path d="M497.221,479.349 C486.63,505.238 470.187,545.432 457.008,577.648 " fill="none" style="stroke: #A80036; stroke-width: 1.0;"/><polygon fill="none" points="463.356,580.616,449.305,596.477,450.399,575.315,463.356,580.616" style="stroke: #A80036; stroke-width: 1.0;"/><path d="M375.629,479.349 C386.073,505.238 402.288,545.432 415.284,577.648 " fill="none" style="stroke: #A80036; stroke-width: 1.0;"/><polygon fill="none" points="421.889,575.31,422.88,596.477,408.906,580.548,421.889,575.31" style="stroke: #A80036; stroke-width: 1.0;"/><path d="M702,331.794 C702,351.589 702,378.066 702,401.039 " fill="none" style="stroke: #A80036; stroke-width: 1.0; stroke-dasharray: 7.0,7.0;"/><polygon fill="none" points="709,401.257,702,421.257,695,401.257,709,401.257" style="stroke: #A80036; stroke-width: 1.0;"/><path d="M657.178,482.657 C611.042,513.183 539.142,560.755 489.925,593.32 " fill="none" style="stroke: #A80036; stroke-width: 1.0; stroke-dasharray: 7.0,7.0;"/><polygon fill="#A80036" points="485.533,596.227,495.2461,594.5975,489.7031,593.4684,490.8323,587.9253,485.533,596.227" style="stroke: #A80036; stroke-width: 1.0;"/><text fill="#000000" font-family="sans-serif" font-size="13" lengthAdjust="spacingAndGlyphs" textLength="85" x="602" y="532.5684">&lt;&lt;creates&gt;&gt;</text><path d="M790.818,421.414 C843.379,404.94 911.668,386.328 974,378 C1111.48,359.633 1409.4,407.743 1433,415 C1436.84,416.18 1440.71,417.58 1444.55,419.133 " fill="none" style="stroke: #A80036; stroke-width: 1.0; stroke-dasharray: 7.0,7.0;"/><polygon fill="#A80036" points="1449.4,421.179,1442.6615,413.9962,1444.7929,419.2362,1439.5529,421.3676,1449.4,421.179" style="stroke: #A80036; stroke-width: 1.0;"/><text fill="#000000" font-family="sans-serif" font-size="13" lengthAdjust="spacingAndGlyphs" textLength="104" x="975" y="381.5684">&lt;&lt;consumes&gt;&gt;</text><path d="M858.976,328.198 C834.117,338.739 806.856,352.179 784,368 C766.408,380.177 749.373,396.435 735.431,411.334 " fill="none" style="stroke: #A80036; stroke-width: 1.0;"/><polygon fill="#A80036" points="726.304,421.365,735.32,417.4012,729.6694,417.6672,729.4035,412.0166,726.304,421.365" style="stroke: #A80036; stroke-width: 1.0;"/><line style="stroke: #A80036; stroke-width: 1.0;" x1="729.6694" x2="735.053" y1="417.6672" y2="411.7495"/><polygon fill="#A80036" points="871.338,323.107,864.2669,321.6931,860.2421,327.6765,867.3132,329.0904,871.338,323.107" style="stroke: #A80036; stroke-width: 1.0;"/><text fill="#000000" font-family="sans-serif" font-size="13" lengthAdjust="spacingAndGlyphs" textLength="81" x="785" y="381.5684">&lt;&lt;arbiter&gt;&gt;</text><path d="M113.124,654.091 C126.633,671.319 147.595,693.6 172,704 C197.722,714.961 650.794,707.005 675,721 C698.864,734.797 715.617,760.496 726.635,783.694 " fill="none" style="stroke: #A80036; stroke-width: 1.0; stroke-dasharray: 7.0,7.0;"/><polygon fill="none" points="733.153,781.134,734.57,802.276,720.278,786.632,733.153,781.134" style="stroke: #A80036; stroke-width: 1.0;"/><path d="M921.458,692.139 C895.805,744.656 855.553,821.414 812,883 C799.416,900.794 783.79,918.972 769.629,934.324 " fill="none" style="stroke: #A80036; stroke-width: 1.0;"/><polygon fill="#A80036" points="760.581,943.971,769.6552,940.1423,764.0013,940.3238,763.8197,934.6699,760.581,943.971" style="stroke: #A80036; stroke-width: 1.0;"/><line style="stroke: #A80036; stroke-width: 1.0;" x1="764.0013" x2="769.474" y1="940.3238" y2="934.4885"/><polygon fill="#A80036" points="927.182,680.326,920.966,683.9813,921.9493,691.125,928.1653,687.4697,927.182,680.326" style="stroke: #A80036; stroke-width: 1.0;"/><text fill="#000000" font-family="sans-serif" font-size="13" lengthAdjust="spacingAndGlyphs" textLength="8" x="758.1768" y="933.2594">1</text><path d="M890.184,689.364 C855.953,722.764 813.951,763.746 783.767,793.198 " fill="none" style="stroke: #A80036; stroke-width: 1.0;"/><polygon fill="#A80036" points="774.407,802.331,783.6424,798.9093,777.9859,798.8394,778.0558,793.183,774.407,802.331" style="stroke: #A80036; stroke-width: 1.0;"/><line style="stroke: #A80036; stroke-width: 1.0;" x1="777.9859" x2="783.7115" y1="798.8394" y2="793.252"/><polygon fill="#A80036" points="899.607,680.17,892.519,681.4967,891.0175,688.5498,898.1055,687.2231,899.607,680.17" style="stroke: #A80036; stroke-width: 1.0;"/><text fill="#000000" font-family="sans-serif" font-size="13" lengthAdjust="spacingAndGlyphs" textLength="8" x="772.1835" y="791.5888">3</text><path d="M197.774,493.609 C174.923,524.31 143.908,565.978 122.347,594.947 " fill="none" style="stroke: #A80036; stroke-width: 1.0;"/><polygon fill="#A80036" points="114.301,605.756,122.8836,600.925,117.2866,601.7452,116.4664,596.1481,114.301,605.756" style="stroke: #A80036; stroke-width: 1.0;"/><line style="stroke: #A80036; stroke-width: 1.0;" x1="117.2866" x2="122.063" y1="601.7452" y2="595.328"/><polygon fill="#FFFFFF" points="205.778,482.856,198.9869,485.2811,198.6135,492.4825,205.4046,490.0574,205.778,482.856" style="stroke: #A80036; stroke-width: 1.0;"/><text fill="#000000" font-family="sans-serif" font-size="13" lengthAdjust="spacingAndGlyphs" textLength="90" x="180" y="532.5684">selected event</text><polygon fill="#DDDDDD" points="549,1079,549,1204.418,1079,1204.418,1079,1079,549,1079" style="stroke: #000000; stroke-width: 1.0;"/><text fill="#000000" font-family="sans-serif" font-size="14" font-weight="bold" lengthAdjust="spacingAndGlyphs" textLength="245" x="555" y="1097.5352">Main classes and methods for the</text><text fill="#000000" font-family="sans-serif" font-size="14" font-style="italic" font-weight="bold" lengthAdjust="spacingAndGlyphs" textLength="18" x="805" y="1097.5352">bp</text><text fill="#000000" font-family="sans-serif" font-size="14" font-weight="bold" lengthAdjust="spacingAndGlyphs" textLength="98" x="828" y="1097.5352">package. This</text><text fill="#000000" font-family="sans-serif" font-size="14" font-weight="bold" lengthAdjust="spacingAndGlyphs" textLength="279" x="555" y="1114.0234">is not an exhaustive list of everything,</text><text fill="#000000" font-family="sans-serif" font-size="14" font-weight="bold" lengthAdjust="spacingAndGlyphs" textLength="309" x="555" y="1130.5117">just what you need to know to get started.</text><text fill="#000000" font-family="sans-serif" font-size="14" lengthAdjust="spacingAndGlyphs" textLength="0" x="559" y="1147"/><text fill="#000000" font-family="sans-serif" font-size="14" lengthAdjust="spacingAndGlyphs" textLength="331" x="555" y="1163.4883">The main class, from client code point of view, is</text><text fill="#000000" font-family="sans-serif" font-size="14" font-style="italic" lengthAdjust="spacingAndGlyphs" textLength="67" x="890" y="1163.4883">BProgram</text><text fill="#000000" font-family="sans-serif" font-size="14" lengthAdjust="spacingAndGlyphs" textLength="4" x="957" y="1163.4883">.</text><text fill="#000000" font-family="sans-serif" font-size="14" lengthAdjust="spacingAndGlyphs" textLength="304" x="555" y="1179.9766">Most cases could probably be handled using</text><text fill="#000000" font-family="sans-serif" font-size="14" font-style="italic" lengthAdjust="spacingAndGlyphs" textLength="172" x="863" y="1179.9766">SingleResourceBProgram</text><text fill="#000000" font-family="sans-serif" font-size="14" lengthAdjust="spacingAndGlyphs" textLength="4" x="1035" y="1179.9766">,</text><text fill="#000000" font-family="sans-serif" font-size="14" lengthAdjust="spacingAndGlyphs" textLength="518" x="555" y="1196.4648">which caters for the common case of a having all the code in a single .js file.</text></g></svg>