<?xml version="1.0" encoding="UTF-8" standalone="yes"?><svg xmlns="http://www.w3.org/2000/svg" xmlns:xlink="http://www.w3.org/1999/xlink" height="902px" style="width:1238px;height:902px;" version="1.1" viewBox="0 0 1238 902" width="1238px"><defs><filter height="300%" id="f1" width="300%" x="-1" y="-1"><feGaussianBlur result="blurOut" stdDeviation="2.0"/><feColorMatrix in="blurOut" result="blurOut2" type="matrix" values="0 0 0 0 0 0 0 0 0 0 0 0 0 0 0 0 0 0 .4 0"/><feOffset dx="4.0" dy="4.0" in="blurOut2" result="blurOut3"/><feBlend in="SourceGraphic" in2="blurOut3" mode="normal"/></filter></defs><g><polygon fill="#FFFFFF" filter="url(#f1)" points="22,24.5,46,24.5,53,46.9883,1231,46.9883,1231,895,22,895,22,24.5" style="stroke: #000000; stroke-width: 2.0;"/><line style="stroke: #000000; stroke-width: 2.0;" x1="22" x2="53" y1="46.9883" y2="46.9883"/><text fill="#000000" font-family="sans-serif" font-size="14" font-weight="bold" lengthAdjust="spacingAndGlyphs" textLength="18" x="26" y="40.0352">bp</text><polygon fill="#FFFFFF" filter="url(#f1)" points="723,67.5,799,67.5,806,89.9883,1207,89.9883,1207,596,723,596,723,67.5" style="stroke: #000000; stroke-width: 2.0;"/><line style="stroke: #000000; stroke-width: 2.0;" x1="723" x2="806" y1="89.9883" y2="89.9883"/><text fill="#000000" font-family="sans-serif" font-size="14" font-weight="bold" lengthAdjust="spacingAndGlyphs" textLength="70" x="727" y="83.0352">bprogram</text><polygon fill="#FFFFFF" filter="url(#f1)" points="846,224.5,921,224.5,928,246.9883,1183,246.9883,1183,461.5,846,461.5,846,224.5" style="stroke: #000000; stroke-width: 2.0;"/><line style="stroke: #000000; stroke-width: 2.0;" x1="846" x2="928" y1="246.9883" y2="246.9883"/><text fill="#000000" font-family="sans-serif" font-size="14" font-weight="bold" lengthAdjust="spacingAndGlyphs" textLength="69" x="850" y="240.0352">listenters</text><polygon fill="#FFFFFF" filter="url(#f1)" points="442,648,495,648,502,670.4883,544,670.4883,544,747,442,747,442,648" style="stroke: #000000; stroke-width: 2.0;"/><line style="stroke: #000000; stroke-width: 2.0;" x1="442" x2="502" y1="670.4883" y2="670.4883"/><text fill="#000000" font-family="sans-serif" font-size="14" font-weight="bold" lengthAdjust="spacingAndGlyphs" textLength="47" x="446" y="663.5352">events</text><polygon fill="#FFFFFF" filter="url(#f1)" points="653,648,728,648,735,670.4883,807,670.4883,807,871,653,871,653,648" style="stroke: #000000; stroke-width: 2.0;"/><line style="stroke: #000000; stroke-width: 2.0;" x1="653" x2="735" y1="670.4883" y2="670.4883"/><text fill="#000000" font-family="sans-serif" font-size="14" font-weight="bold" lengthAdjust="spacingAndGlyphs" textLength="69" x="657" y="663.5352">eventsets</text><polygon fill="#FFFFFF" filter="url(#f1)" points="46,224.5,156,224.5,163,246.9883,699,246.9883,699,599,46,599,46,224.5" style="stroke: #000000; stroke-width: 2.0;"/><line style="stroke: #000000; stroke-width: 2.0;" x1="46" x2="163" y1="246.9883" y2="246.9883"/><text fill="#000000" font-family="sans-serif" font-size="14" font-weight="bold" lengthAdjust="spacingAndGlyphs" textLength="104" x="50" y="240.0352">eventselection</text><polygon fill="#FBFB77" filter="url(#f1)" points="206,75.5,206,177.3633,536,177.3633,536,85.5,526,75.5,206,75.5" style="stroke: #A80036; stroke-width: 1.0;"/><line style="stroke: #A80036; stroke-width: 1.0;" x1="526" x2="526" y1="75.5" y2="85.5"/><line style="stroke: #A80036; stroke-width: 1.0;" x1="536" x2="526" y1="85.5" y2="85.5"/><text fill="#000000" font-family="sans-serif" font-size="13" lengthAdjust="spacingAndGlyphs" textLength="166" x="212" y="93.0684">Main classes and methods</text><text fill="#000000" font-family="sans-serif" font-size="13" lengthAdjust="spacingAndGlyphs" textLength="42" x="212" y="108.3789">for the</text><text fill="#000000" font-family="sans-serif" font-size="13" font-style="italic" lengthAdjust="spacingAndGlyphs" textLength="16" x="258" y="108.3789">bp</text><text fill="#000000" font-family="sans-serif" font-size="13" lengthAdjust="spacingAndGlyphs" textLength="56" x="278" y="108.3789">package.</text><text fill="#000000" font-family="sans-serif" font-size="13" lengthAdjust="spacingAndGlyphs" textLength="309" x="212" y="123.6895">The main classes, from client code point of view,</text><text fill="#000000" font-family="sans-serif" font-size="13" lengthAdjust="spacingAndGlyphs" textLength="19" x="212" y="139">are</text><text fill="#000000" font-family="sans-serif" font-size="13" font-style="italic" lengthAdjust="spacingAndGlyphs" textLength="59" x="235" y="139">BProgram</text><text fill="#000000" font-family="sans-serif" font-size="13" lengthAdjust="spacingAndGlyphs" textLength="23" x="298" y="139">and</text><text fill="#000000" font-family="sans-serif" font-size="13" font-style="italic" lengthAdjust="spacingAndGlyphs" textLength="120" x="325" y="139">BJavascriptProgram</text><text fill="#000000" font-family="sans-serif" font-size="13" lengthAdjust="spacingAndGlyphs" textLength="4" x="445" y="139">.</text><text fill="#000000" font-family="sans-serif" font-size="13" lengthAdjust="spacingAndGlyphs" textLength="0" x="216" y="154.3105"/><text fill="#000000" font-family="sans-serif" font-size="13" lengthAdjust="spacingAndGlyphs" textLength="165" x="212" y="169.6211">They will be merged soon.</text><rect fill="#FEFECE" filter="url(#f1)" height="60.9551" style="stroke: #A80036; stroke-width: 1.5;" width="88" x="739" y="253"/><ellipse cx="754" cy="269" fill="#ADD1B2" rx="11" ry="11" style="stroke: #A80036; stroke-width: 1.0;"/><path d="M756.9731,274.6431 Q756.3921,274.9419 755.7529,275.0913 Q755.1138,275.2407 754.4082,275.2407 Q751.9014,275.2407 750.5815,273.5889 Q749.2617,271.937 749.2617,268.8159 Q749.2617,265.6865 750.5815,264.0347 Q751.9014,262.3828 754.4082,262.3828 Q755.1138,262.3828 755.7612,262.5322 Q756.4087,262.6816 756.9731,262.9805 L756.9731,265.7031 Q756.3423,265.1221 755.7488,264.8523 Q755.1553,264.5825 754.5244,264.5825 Q753.1797,264.5825 752.4949,265.6492 Q751.8101,266.7158 751.8101,268.8159 Q751.8101,270.9077 752.4949,271.9744 Q753.1797,273.041 754.5244,273.041 Q755.1553,273.041 755.7488,272.7712 Q756.3423,272.5015 756.9731,271.9204 Z "/><text fill="#000000" font-family="sans-serif" font-size="12" lengthAdjust="spacingAndGlyphs" textLength="56" x="768" y="273.5352">BProgram</text><line style="stroke: #A80036; stroke-width: 1.5;" x1="740" x2="826" y1="285" y2="285"/><line style="stroke: #A80036; stroke-width: 1.5;" x1="740" x2="826" y1="293" y2="293"/><ellipse cx="750" cy="304.9775" fill="#84BE84" rx="3" ry="3" style="stroke: #038048; stroke-width: 1.0;"/><text fill="#000000" font-family="sans-serif" font-size="11" lengthAdjust="spacingAndGlyphs" textLength="33" x="759" y="307.6348">start()</text><rect fill="#FEFECE" filter="url(#f1)" height="48" style="stroke: #A80036; stroke-width: 1.5;" width="144" x="921" y="102.5"/><ellipse cx="936" cy="118.5" fill="#ADD1B2" rx="11" ry="11" style="stroke: #A80036; stroke-width: 1.0;"/><path d="M938.9731,124.1431 Q938.3921,124.4419 937.7529,124.5913 Q937.1138,124.7407 936.4082,124.7407 Q933.9014,124.7407 932.5815,123.0889 Q931.2617,121.437 931.2617,118.3159 Q931.2617,115.1865 932.5815,113.5347 Q933.9014,111.8828 936.4082,111.8828 Q937.1138,111.8828 937.7612,112.0322 Q938.4087,112.1816 938.9731,112.4805 L938.9731,115.2031 Q938.3423,114.6221 937.7488,114.3523 Q937.1553,114.0825 936.5244,114.0825 Q935.1797,114.0825 934.4949,115.1492 Q933.8101,116.2158 933.8101,118.3159 Q933.8101,120.4077 934.4949,121.4744 Q935.1797,122.541 936.5244,122.541 Q937.1553,122.541 937.7488,122.2712 Q938.3423,122.0015 938.9731,121.4204 Z "/><text fill="#000000" font-family="sans-serif" font-size="12" lengthAdjust="spacingAndGlyphs" textLength="112" x="950" y="123.0352">BJavascriptProgram</text><line style="stroke: #A80036; stroke-width: 1.5;" x1="922" x2="1064" y1="134.5" y2="134.5"/><line style="stroke: #A80036; stroke-width: 1.5;" x1="922" x2="1064" y1="142.5" y2="142.5"/><polygon fill="#FBFB77" filter="url(#f1)" points="739,114,739,139.3105,851,139.3105,851,124,841,114,739,114" style="stroke: #A80036; stroke-width: 1.0;"/><polygon fill="#FBFB77" points="739,114,739,139.3105,851,139.3105,851,132,920.928,126.5,851,124,851,124,841,114,739,114" style="stroke: #A80036; stroke-width: 1.0;"/><line style="stroke: #A80036; stroke-width: 1.0;" x1="841" x2="841" y1="114" y2="124"/><line style="stroke: #A80036; stroke-width: 1.0;" x1="851" x2="841" y1="124" y2="124"/><text fill="#000000" font-family="sans-serif" font-size="13" lengthAdjust="spacingAndGlyphs" textLength="91" x="745" y="131.5684">Has JS content</text><rect fill="#FEFECE" filter="url(#f1)" height="48" style="stroke: #A80036; stroke-width: 1.5;" width="81" x="747.5" y="397.5"/><ellipse cx="762.5" cy="413.5" fill="#ADD1B2" rx="11" ry="11" style="stroke: #A80036; stroke-width: 1.0;"/><path d="M765.4731,419.1431 Q764.8921,419.4419 764.2529,419.5913 Q763.6138,419.7407 762.9082,419.7407 Q760.4014,419.7407 759.0815,418.0889 Q757.7617,416.437 757.7617,413.3159 Q757.7617,410.1865 759.0815,408.5347 Q760.4014,406.8828 762.9082,406.8828 Q763.6138,406.8828 764.2612,407.0322 Q764.9087,407.1816 765.4731,407.4805 L765.4731,410.2031 Q764.8423,409.6221 764.2488,409.3523 Q763.6553,409.0825 763.0244,409.0825 Q761.6797,409.0825 760.9949,410.1492 Q760.3101,411.2158 760.3101,413.3159 Q760.3101,415.4077 760.9949,416.4744 Q761.6797,417.541 763.0244,417.541 Q763.6553,417.541 764.2488,417.2712 Q764.8423,417.0015 765.4731,416.4204 Z "/><text fill="#000000" font-family="sans-serif" font-size="12" lengthAdjust="spacingAndGlyphs" textLength="49" x="776.5" y="418.0352">BThread</text><line style="stroke: #A80036; stroke-width: 1.5;" x1="748.5" x2="827.5" y1="429.5" y2="429.5"/><line style="stroke: #A80036; stroke-width: 1.5;" x1="748.5" x2="827.5" y1="437.5" y2="437.5"/><polygon fill="#FBFB77" filter="url(#f1)" points="888,543.5,888,568.8105,1000,568.8105,1000,553.5,990,543.5,888,543.5" style="stroke: #A80036; stroke-width: 1.0;"/><polygon fill="#FBFB77" points="888,543.5,888,568.8105,1000,568.8105,1000,553.5,990,543.5,934.156,543.5,815.173,445.58,926.156,543.5,888,543.5" style="stroke: #A80036; stroke-width: 1.0;"/><line style="stroke: #A80036; stroke-width: 1.0;" x1="990" x2="990" y1="543.5" y2="553.5"/><line style="stroke: #A80036; stroke-width: 1.0;" x1="1000" x2="990" y1="553.5" y2="553.5"/><text fill="#000000" font-family="sans-serif" font-size="13" lengthAdjust="spacingAndGlyphs" textLength="91" x="894" y="561.0684">Has JS content</text><rect fill="#FEFECE" filter="url(#f1)" height="48" style="stroke: #A80036; stroke-width: 1.5;" width="114" x="739" y="532"/><ellipse cx="754" cy="548" fill="#ADD1B2" rx="11" ry="11" style="stroke: #A80036; stroke-width: 1.0;"/><path d="M756.9731,553.6431 Q756.3921,553.9419 755.7529,554.0913 Q755.1138,554.2407 754.4082,554.2407 Q751.9014,554.2407 750.5815,552.5889 Q749.2617,550.937 749.2617,547.8159 Q749.2617,544.6865 750.5815,543.0347 Q751.9014,541.3828 754.4082,541.3828 Q755.1138,541.3828 755.7612,541.5322 Q756.4087,541.6816 756.9731,541.9805 L756.9731,544.7031 Q756.3423,544.1221 755.7488,543.8523 Q755.1553,543.5825 754.5244,543.5825 Q753.1797,543.5825 752.4949,544.6492 Q751.8101,545.7158 751.8101,547.8159 Q751.8101,549.9077 752.4949,550.9744 Q753.1797,552.041 754.5244,552.041 Q755.1553,552.041 755.7488,551.7712 Q756.3423,551.5015 756.9731,550.9204 Z "/><text fill="#000000" font-family="sans-serif" font-size="12" lengthAdjust="spacingAndGlyphs" textLength="82" x="768" y="552.5352">RWBStatement</text><line style="stroke: #A80036; stroke-width: 1.5;" x1="740" x2="852" y1="564" y2="564"/><line style="stroke: #A80036; stroke-width: 1.5;" x1="740" x2="852" y1="572" y2="572"/><rect fill="#FEFECE" filter="url(#f1)" height="48" style="stroke: #A80036; stroke-width: 1.5;" width="133" x="863.5" y="397.5"/><ellipse cx="878.5" cy="413.5" fill="#B4A7E5" rx="11" ry="11" style="stroke: #A80036; stroke-width: 1.0;"/><path d="M874.4277,409.2651 L874.4277,407.1069 L881.8071,407.1069 L881.8071,409.2651 L879.3418,409.2651 L879.3418,417.3418 L881.8071,417.3418 L881.8071,419.5 L874.4277,419.5 L874.4277,417.3418 L876.8931,417.3418 L876.8931,409.2651 Z "/><text fill="#000000" font-family="sans-serif" font-size="12" font-style="italic" lengthAdjust="spacingAndGlyphs" textLength="101" x="892.5" y="418.0352">BProgramListener</text><line style="stroke: #A80036; stroke-width: 1.5;" x1="864.5" x2="995.5" y1="429.5" y2="429.5"/><line style="stroke: #A80036; stroke-width: 1.5;" x1="864.5" x2="995.5" y1="437.5" y2="437.5"/><rect fill="#FEFECE" filter="url(#f1)" height="48" style="stroke: #A80036; stroke-width: 1.5;" width="158" x="1009" y="259.5"/><ellipse cx="1024" cy="275.5" fill="#ADD1B2" rx="11" ry="11" style="stroke: #A80036; stroke-width: 1.0;"/><path d="M1026.9731,281.1431 Q1026.3921,281.4419 1025.7529,281.5913 Q1025.1138,281.7407 1024.4082,281.7407 Q1021.9014,281.7407 1020.5815,280.0889 Q1019.2617,278.437 1019.2617,275.3159 Q1019.2617,272.1865 1020.5815,270.5347 Q1021.9014,268.8828 1024.4082,268.8828 Q1025.1138,268.8828 1025.7612,269.0322 Q1026.4087,269.1816 1026.9731,269.4805 L1026.9731,272.2031 Q1026.3423,271.6221 1025.7488,271.3523 Q1025.1553,271.0825 1024.5244,271.0825 Q1023.1797,271.0825 1022.4949,272.1492 Q1021.8101,273.2158 1021.8101,275.3159 Q1021.8101,277.4077 1022.4949,278.4744 Q1023.1797,279.541 1024.5244,279.541 Q1025.1553,279.541 1025.7488,279.2712 Q1026.3423,279.0015 1026.9731,278.4204 Z "/><text fill="#000000" font-family="sans-serif" font-size="12" lengthAdjust="spacingAndGlyphs" textLength="126" x="1038" y="280.0352">InMemoryEventLogger</text><line style="stroke: #A80036; stroke-width: 1.5;" x1="1010" x2="1166" y1="291.5" y2="291.5"/><line style="stroke: #A80036; stroke-width: 1.5;" x1="1010" x2="1166" y1="299.5" y2="299.5"/><rect fill="#FEFECE" filter="url(#f1)" height="48" style="stroke: #A80036; stroke-width: 1.5;" width="111" x="862.5" y="259.5"/><ellipse cx="877.5" cy="275.5" fill="#ADD1B2" rx="11" ry="11" style="stroke: #A80036; stroke-width: 1.0;"/><path d="M880.4731,281.1431 Q879.8921,281.4419 879.2529,281.5913 Q878.6138,281.7407 877.9082,281.7407 Q875.4014,281.7407 874.0815,280.0889 Q872.7617,278.437 872.7617,275.3159 Q872.7617,272.1865 874.0815,270.5347 Q875.4014,268.8828 877.9082,268.8828 Q878.6138,268.8828 879.2612,269.0322 Q879.9087,269.1816 880.4731,269.4805 L880.4731,272.2031 Q879.8423,271.6221 879.2488,271.3523 Q878.6553,271.0825 878.0244,271.0825 Q876.6797,271.0825 875.9949,272.1492 Q875.3101,273.2158 875.3101,275.3159 Q875.3101,277.4077 875.9949,278.4744 Q876.6797,279.541 878.0244,279.541 Q878.6553,279.541 879.2488,279.2712 Q879.8423,279.0015 880.4731,278.4204 Z "/><text fill="#000000" font-family="sans-serif" font-size="12" lengthAdjust="spacingAndGlyphs" textLength="79" x="891.5" y="280.0352">StreamLogger</text><line style="stroke: #A80036; stroke-width: 1.5;" x1="863.5" x2="972.5" y1="291.5" y2="291.5"/><line style="stroke: #A80036; stroke-width: 1.5;" x1="863.5" x2="972.5" y1="299.5" y2="299.5"/><rect fill="#FEFECE" filter="url(#f1)" height="48" style="stroke: #A80036; stroke-width: 1.5;" width="70" x="458" y="683"/><ellipse cx="473" cy="699" fill="#ADD1B2" rx="11" ry="11" style="stroke: #A80036; stroke-width: 1.0;"/><path d="M475.9731,704.6431 Q475.3921,704.9419 474.7529,705.0913 Q474.1138,705.2407 473.4082,705.2407 Q470.9014,705.2407 469.5815,703.5889 Q468.2617,701.937 468.2617,698.8159 Q468.2617,695.6865 469.5815,694.0347 Q470.9014,692.3828 473.4082,692.3828 Q474.1138,692.3828 474.7612,692.5322 Q475.4087,692.6816 475.9731,692.9805 L475.9731,695.7031 Q475.3423,695.1221 474.7488,694.8523 Q474.1553,694.5825 473.5244,694.5825 Q472.1797,694.5825 471.4949,695.6492 Q470.8101,696.7158 470.8101,698.8159 Q470.8101,700.9077 471.4949,701.9744 Q472.1797,703.041 473.5244,703.041 Q474.1553,703.041 474.7488,702.7712 Q475.3423,702.5015 475.9731,701.9204 Z "/><text fill="#000000" font-family="sans-serif" font-size="12" lengthAdjust="spacingAndGlyphs" textLength="38" x="487" y="703.5352">BEvent</text><line style="stroke: #A80036; stroke-width: 1.5;" x1="459" x2="527" y1="715" y2="715"/><line style="stroke: #A80036; stroke-width: 1.5;" x1="459" x2="527" y1="723" y2="723"/><rect fill="#FEFECE" filter="url(#f1)" height="60.9551" style="stroke: #A80036; stroke-width: 1.5;" width="101" x="671.5" y="794"/><ellipse cx="695.95" cy="810" fill="#B4A7E5" rx="11" ry="11" style="stroke: #A80036; stroke-width: 1.0;"/><path d="M691.8777,805.7651 L691.8777,803.6069 L699.2571,803.6069 L699.2571,805.7651 L696.7918,805.7651 L696.7918,813.8418 L699.2571,813.8418 L699.2571,816 L691.8777,816 L691.8777,813.8418 L694.3431,813.8418 L694.3431,805.7651 Z "/><text fill="#000000" font-family="sans-serif" font-size="12" font-style="italic" lengthAdjust="spacingAndGlyphs" textLength="48" x="712.05" y="814.5352">EventSet</text><line style="stroke: #A80036; stroke-width: 1.5;" x1="672.5" x2="771.5" y1="826" y2="826"/><line style="stroke: #A80036; stroke-width: 1.5;" x1="672.5" x2="771.5" y1="834" y2="834"/><text fill="#000000" font-family="sans-serif" font-size="11" lengthAdjust="spacingAndGlyphs" textLength="89" x="677.5" y="848.6348">contains(BEvent)</text><rect fill="#FEFECE" filter="url(#f1)" height="48" style="stroke: #A80036; stroke-width: 1.5;" width="121" x="669.5" y="683"/><ellipse cx="684.5" cy="699" fill="#ADD1B2" rx="11" ry="11" style="stroke: #A80036; stroke-width: 1.0;"/><path d="M687.4731,704.6431 Q686.8921,704.9419 686.2529,705.0913 Q685.6138,705.2407 684.9082,705.2407 Q682.4014,705.2407 681.0815,703.5889 Q679.7617,701.937 679.7617,698.8159 Q679.7617,695.6865 681.0815,694.0347 Q682.4014,692.3828 684.9082,692.3828 Q685.6138,692.3828 686.2612,692.5322 Q686.9087,692.6816 687.4731,692.9805 L687.4731,695.7031 Q686.8423,695.1221 686.2488,694.8523 Q685.6553,694.5825 685.0244,694.5825 Q683.6797,694.5825 682.9949,695.6492 Q682.3101,696.7158 682.3101,698.8159 Q682.3101,700.9077 682.9949,701.9744 Q683.6797,703.041 685.0244,703.041 Q685.6553,703.041 686.2488,702.7712 Q686.8423,702.5015 687.4731,701.9204 Z "/><text fill="#000000" font-family="sans-serif" font-size="12" lengthAdjust="spacingAndGlyphs" textLength="89" x="698.5" y="703.5352">ExplicitEventSet</text><line style="stroke: #A80036; stroke-width: 1.5;" x1="670.5" x2="789.5" y1="715" y2="715"/><line style="stroke: #A80036; stroke-width: 1.5;" x1="670.5" x2="789.5" y1="723" y2="723"/><rect fill="#FEFECE" filter="url(#f1)" height="60.9551" style="stroke: #A80036; stroke-width: 1.5;" width="226" x="457" y="391"/><ellipse cx="502.25" cy="407" fill="#B4A7E5" rx="11" ry="11" style="stroke: #A80036; stroke-width: 1.0;"/><path d="M498.1777,402.7651 L498.1777,400.6069 L505.5571,400.6069 L505.5571,402.7651 L503.0918,402.7651 L503.0918,410.8418 L505.5571,410.8418 L505.5571,413 L498.1777,413 L498.1777,410.8418 L500.6431,410.8418 L500.6431,402.7651 Z "/><text fill="#000000" font-family="sans-serif" font-size="12" font-style="italic" lengthAdjust="spacingAndGlyphs" textLength="127" x="522.75" y="411.5352">EventSelectionStrategy</text><line style="stroke: #A80036; stroke-width: 1.5;" x1="458" x2="682" y1="423" y2="423"/><line style="stroke: #A80036; stroke-width: 1.5;" x1="458" x2="682" y1="431" y2="431"/><text fill="#000000" font-family="sans-serif" font-size="11" lengthAdjust="spacingAndGlyphs" textLength="214" x="463" y="445.6348">EventSelectionResult select(statements);</text><rect fill="#FEFECE" filter="url(#f1)" height="48" style="stroke: #A80036; stroke-width: 1.5;" width="197" x="471.5" y="259.5"/><ellipse cx="486.5" cy="275.5" fill="#ADD1B2" rx="11" ry="11" style="stroke: #A80036; stroke-width: 1.0;"/><path d="M489.4731,281.1431 Q488.8921,281.4419 488.2529,281.5913 Q487.6138,281.7407 486.9082,281.7407 Q484.4014,281.7407 483.0815,280.0889 Q481.7617,278.437 481.7617,275.3159 Q481.7617,272.1865 483.0815,270.5347 Q484.4014,268.8828 486.9082,268.8828 Q487.6138,268.8828 488.2612,269.0322 Q488.9087,269.1816 489.4731,269.4805 L489.4731,272.2031 Q488.8423,271.6221 488.2488,271.3523 Q487.6553,271.0825 487.0244,271.0825 Q485.6797,271.0825 484.9949,272.1492 Q484.3101,273.2158 484.3101,275.3159 Q484.3101,277.4077 484.9949,278.4744 Q485.6797,279.541 487.0244,279.541 Q487.6553,279.541 488.2488,279.2712 Q488.8423,279.0015 489.4731,278.4204 Z "/><text fill="#000000" font-family="sans-serif" font-size="12" lengthAdjust="spacingAndGlyphs" textLength="165" x="500.5" y="280.0352">SimpleEventSelectionStrategy</text><line style="stroke: #A80036; stroke-width: 1.5;" x1="472.5" x2="667.5" y1="291.5" y2="291.5"/><line style="stroke: #A80036; stroke-width: 1.5;" x1="472.5" x2="667.5" y1="299.5" y2="299.5"/><rect fill="#FEFECE" filter="url(#f1)" height="54.2656" style="stroke: #A80036; stroke-width: 1.5;" width="148" x="248" y="529"/><ellipse cx="263" cy="548.1328" fill="#ADD1B2" rx="11" ry="11" style="stroke: #A80036; stroke-width: 1.0;"/><path d="M265.9731,553.7759 Q265.3921,554.0747 264.7529,554.2241 Q264.1138,554.3735 263.4082,554.3735 Q260.9014,554.3735 259.5815,552.7217 Q258.2617,551.0698 258.2617,547.9487 Q258.2617,544.8193 259.5815,543.1675 Q260.9014,541.5156 263.4082,541.5156 Q264.1138,541.5156 264.7612,541.665 Q265.4087,541.8145 265.9731,542.1133 L265.9731,544.8359 Q265.3423,544.2549 264.7488,543.9851 Q264.1553,543.7153 263.5244,543.7153 Q262.1797,543.7153 261.4949,544.782 Q260.8101,545.8486 260.8101,547.9487 Q260.8101,550.0405 261.4949,551.1072 Q262.1797,552.1738 263.5244,552.1738 Q264.1553,552.1738 264.7488,551.9041 Q265.3423,551.6343 265.9731,551.0532 Z "/><text fill="#000000" font-family="sans-serif" font-size="12" font-style="italic" lengthAdjust="spacingAndGlyphs" textLength="59" x="305.5" y="545.6016">«abstract»</text><text fill="#000000" font-family="sans-serif" font-size="12" lengthAdjust="spacingAndGlyphs" textLength="116" x="277" y="559.7344">EventSelectionResult</text><line style="stroke: #A80036; stroke-width: 1.5;" x1="249" x2="395" y1="567.2656" y2="567.2656"/><line style="stroke: #A80036; stroke-width: 1.5;" x1="249" x2="395" y1="575.2656" y2="575.2656"/><rect fill="#FEFECE" filter="url(#f1)" height="48" style="stroke: #A80036; stroke-width: 1.5;" width="80" x="62" y="397.5"/><ellipse cx="77" cy="413.5" fill="#ADD1B2" rx="11" ry="11" style="stroke: #A80036; stroke-width: 1.0;"/><path d="M79.9731,419.1431 Q79.3921,419.4419 78.7529,419.5913 Q78.1138,419.7407 77.4082,419.7407 Q74.9014,419.7407 73.5815,418.0889 Q72.2617,416.437 72.2617,413.3159 Q72.2617,410.1865 73.5815,408.5347 Q74.9014,406.8828 77.4082,406.8828 Q78.1138,406.8828 78.7612,407.0322 Q79.4087,407.1816 79.9731,407.4805 L79.9731,410.2031 Q79.3423,409.6221 78.7488,409.3523 Q78.1553,409.0825 77.5244,409.0825 Q76.1797,409.0825 75.4949,410.1492 Q74.8101,411.2158 74.8101,413.3159 Q74.8101,415.4077 75.4949,416.4744 Q76.1797,417.541 77.5244,417.541 Q78.1553,417.541 78.7488,417.2712 Q79.3423,417.0015 79.9731,416.4204 Z "/><text fill="#000000" font-family="sans-serif" font-size="12" lengthAdjust="spacingAndGlyphs" textLength="48" x="91" y="418.0352">Selected</text><line style="stroke: #A80036; stroke-width: 1.5;" x1="63" x2="141" y1="429.5" y2="429.5"/><line style="stroke: #A80036; stroke-width: 1.5;" x1="63" x2="141" y1="437.5" y2="437.5"/><rect fill="#FEFECE" filter="url(#f1)" height="48" style="stroke: #A80036; stroke-width: 1.5;" width="86" x="336" y="397.5"/><ellipse cx="351" cy="413.5" fill="#ADD1B2" rx="11" ry="11" style="stroke: #A80036; stroke-width: 1.0;"/><path d="M353.9731,419.1431 Q353.3921,419.4419 352.7529,419.5913 Q352.1138,419.7407 351.4082,419.7407 Q348.9014,419.7407 347.5815,418.0889 Q346.2617,416.437 346.2617,413.3159 Q346.2617,410.1865 347.5815,408.5347 Q348.9014,406.8828 351.4082,406.8828 Q352.1138,406.8828 352.7612,407.0322 Q353.4087,407.1816 353.9731,407.4805 L353.9731,410.2031 Q353.3423,409.6221 352.7488,409.3523 Q352.1553,409.0825 351.5244,409.0825 Q350.1797,409.0825 349.4949,410.1492 Q348.8101,411.2158 348.8101,413.3159 Q348.8101,415.4077 349.4949,416.4744 Q350.1797,417.541 351.5244,417.541 Q352.1553,417.541 352.7488,417.2712 Q353.3423,417.0015 353.9731,416.4204 Z "/><text fill="#000000" font-family="sans-serif" font-size="12" lengthAdjust="spacingAndGlyphs" textLength="54" x="365" y="418.0352">Deadlock</text><line style="stroke: #A80036; stroke-width: 1.5;" x1="337" x2="421" y1="429.5" y2="429.5"/><line style="stroke: #A80036; stroke-width: 1.5;" x1="337" x2="421" y1="437.5" y2="437.5"/><rect fill="#FEFECE" filter="url(#f1)" height="48" style="stroke: #A80036; stroke-width: 1.5;" width="124" x="177" y="397.5"/><ellipse cx="192" cy="413.5" fill="#ADD1B2" rx="11" ry="11" style="stroke: #A80036; stroke-width: 1.0;"/><path d="M194.9731,419.1431 Q194.3921,419.4419 193.7529,419.5913 Q193.1138,419.7407 192.4082,419.7407 Q189.9014,419.7407 188.5815,418.0889 Q187.2617,416.437 187.2617,413.3159 Q187.2617,410.1865 188.5815,408.5347 Q189.9014,406.8828 192.4082,406.8828 Q193.1138,406.8828 193.7612,407.0322 Q194.4087,407.1816 194.9731,407.4805 L194.9731,410.2031 Q194.3423,409.6221 193.7488,409.3523 Q193.1553,409.0825 192.5244,409.0825 Q191.1797,409.0825 190.4949,410.1492 Q189.8101,411.2158 189.8101,413.3159 Q189.8101,415.4077 190.4949,416.4744 Q191.1797,417.541 192.5244,417.541 Q193.1553,417.541 193.7488,417.2712 Q194.3423,417.0015 194.9731,416.4204 Z "/><text fill="#000000" font-family="sans-serif" font-size="12" lengthAdjust="spacingAndGlyphs" textLength="92" x="206" y="418.0352">NoneRequested</text><line style="stroke: #A80036; stroke-width: 1.5;" x1="178" x2="300" y1="429.5" y2="429.5"/><line style="stroke: #A80036; stroke-width: 1.5;" x1="178" x2="300" y1="437.5" y2="437.5"/><path d="M1061.2,307.571 C1036.91,328.476 1000.708,359.637 972.482,383.934 " fill="none" style="stroke: #A80036; stroke-width: 1.0; stroke-dasharray: 7.0,7.0;"/><polygon fill="none" points="976.659,389.574,956.934,397.316,967.525,378.964,976.659,389.574" style="stroke: #A80036; stroke-width: 1.0;"/><path d="M920.036,307.571 C921.716,326.62 924.149,354.185 926.189,377.312 " fill="none" style="stroke: #A80036; stroke-width: 1.0; stroke-dasharray: 7.0,7.0;"/><polygon fill="none" points="933.169,376.778,927.954,397.316,919.224,378.009,933.169,376.778" style="stroke: #A80036; stroke-width: 1.0;"/><path d="M790.191,458.781 C791.316,477.416 792.683,500.059 793.808,518.697 " fill="none" style="stroke: #A80036; stroke-width: 1.0;"/><polygon fill="#A80036" points="794.596,531.74,798.0468,522.5155,794.2949,526.7491,790.0613,522.9972,794.596,531.74" style="stroke: #A80036; stroke-width: 1.0;"/><line style="stroke: #A80036; stroke-width: 1.0;" x1="794.2949" x2="793.812" y1="526.7491" y2="518.764"/><polygon fill="#A80036" points="789.393,445.58,785.7616,451.81,790.1156,457.5582,793.747,451.3282,789.393,445.58" style="stroke: #A80036; stroke-width: 1.0;"/><text fill="#000000" font-family="sans-serif" font-size="13" lengthAdjust="spacingAndGlyphs" textLength="24" x="767.1612" y="521.2096">0..1</text><path d="M784.564,327.05 C785.238,345.376 786.018,366.585 786.664,384.16 " fill="none" style="stroke: #A80036; stroke-width: 1.0;"/><polygon fill="#A80036" points="787.149,397.352,790.816,388.2113,786.9655,392.3554,782.8214,388.5049,787.149,397.352" style="stroke: #A80036; stroke-width: 1.0;"/><line style="stroke: #A80036; stroke-width: 1.0;" x1="786.9655" x2="786.671" y1="392.3554" y2="384.361"/><polygon fill="#A80036" points="784.085,314.01,780.3079,320.1528,784.5254,326.0019,788.3025,319.8591,784.085,314.01" style="stroke: #A80036; stroke-width: 1.0;"/><text fill="#000000" font-family="sans-serif" font-size="13" lengthAdjust="spacingAndGlyphs" textLength="22" x="762.1122" y="386.8503">1..*</text><path d="M820.562,323.678 C832.611,335.872 846.164,349.207 859,361 C869.126,370.303 880.407,380.029 890.944,388.858 " fill="none" style="stroke: #A80036; stroke-width: 1.0;"/><polygon fill="#A80036" points="901.161,397.338,896.7906,388.5119,897.3137,394.1445,891.6811,394.6676,901.161,397.338" style="stroke: #A80036; stroke-width: 1.0;"/><line style="stroke: #A80036; stroke-width: 1.0;" x1="897.3137" x2="891.158" y1="394.1445" y2="389.035"/><polygon fill="#A80036" points="811.263,314.194,812.6074,321.2787,819.6641,322.7626,818.3198,315.6779,811.263,314.194" style="stroke: #A80036; stroke-width: 1.0;"/><text fill="#000000" font-family="sans-serif" font-size="13" lengthAdjust="spacingAndGlyphs" textLength="54" x="860" y="357.5684">listeners</text><text fill="#000000" font-family="sans-serif" font-size="13" lengthAdjust="spacingAndGlyphs" textLength="22" x="868.9523" y="386.8328">1..*</text><path d="M728.4,731.096 C727.551,743.356 726.473,758.923 725.445,773.768 " fill="none" style="stroke: #A80036; stroke-width: 1.0; stroke-dasharray: 7.0,7.0;"/><polygon fill="none" points="732.419,774.387,724.053,793.856,718.452,773.42,732.419,774.387" style="stroke: #A80036; stroke-width: 1.0;"/><path d="M699.078,673.237 C679.706,654.668 653.056,633.433 624.5,623.5 C602.672,615.907 593.98,614.971 572.5,623.5 C548.818,632.904 529.03,653.603 515.12,672.038 " fill="none" style="stroke: #A80036; stroke-width: 1.0;"/><polygon fill="#A80036" points="507.43,682.815,515.9132,677.8115,510.3339,678.7447,509.4007,673.1653,507.43,682.815" style="stroke: #A80036; stroke-width: 1.0;"/><line style="stroke: #A80036; stroke-width: 1.0;" x1="510.3339" x2="514.981" y1="678.7447" y2="672.2325"/><polygon fill="#A80036" points="708.515,682.63,707.0843,675.5622,700.01,674.1645,701.4407,681.2323,708.515,682.63" style="stroke: #A80036; stroke-width: 1.0;"/><text fill="#000000" font-family="sans-serif" font-size="13" lengthAdjust="spacingAndGlyphs" textLength="22" x="486.3089" y="672.3039">0..*</text><path d="M127.8,445.682 C137.281,453.679 148.316,462.403 159,469.5 C186.731,487.92 218.886,505.507 247.272,519.889 " fill="none" style="stroke: #A80036; stroke-width: 1.0;"/><polygon fill="none" points="250.506,513.68,265.297,528.854,244.272,526.215,250.506,513.68" style="stroke: #A80036; stroke-width: 1.0;"/><path d="M369.071,445.58 C361.452,463.291 350.696,488.294 341.389,509.928 " fill="none" style="stroke: #A80036; stroke-width: 1.0;"/><polygon fill="none" points="347.715,512.939,333.381,528.545,334.854,507.406,347.715,512.939" style="stroke: #A80036; stroke-width: 1.0;"/><path d="M253.457,445.58 C264.835,463.743 281.016,489.574 294.799,511.577 " fill="none" style="stroke: #A80036; stroke-width: 1.0;"/><polygon fill="none" points="300.743,507.88,305.428,528.545,288.879,515.312,300.743,507.88" style="stroke: #A80036; stroke-width: 1.0;"/><path d="M570,307.571 C570,324.736 570,348.814 570,370.33 " fill="none" style="stroke: #A80036; stroke-width: 1.0; stroke-dasharray: 7.0,7.0;"/><polygon fill="none" points="577,370.641,570,390.641,563,370.641,577,370.641" style="stroke: #A80036; stroke-width: 1.0;"/><path d="M514.653,452.071 C473.056,474.295 416.408,504.56 375.313,526.516 " fill="none" style="stroke: #A80036; stroke-width: 1.0; stroke-dasharray: 7.0,7.0;"/><polygon fill="#A80036" points="370.885,528.882,380.7081,528.1697,375.2952,526.5262,376.9387,521.1133,370.885,528.882" style="stroke: #A80036; stroke-width: 1.0;"/><text fill="#000000" font-family="sans-serif" font-size="13" lengthAdjust="spacingAndGlyphs" textLength="85" x="455" y="495.5684">&lt;&lt;creates&gt;&gt;</text><path d="M608.409,452.165 C628.568,467.093 654.008,484.952 678,499 C696.851,510.038 718.225,520.698 737.553,529.703 " fill="none" style="stroke: #A80036; stroke-width: 1.0; stroke-dasharray: 7.0,7.0;"/><polygon fill="#A80036" points="742.42,531.956,735.9326,524.5456,737.8825,529.8558,732.5723,531.8057,742.42,531.956" style="stroke: #A80036; stroke-width: 1.0;"/><text fill="#000000" font-family="sans-serif" font-size="13" lengthAdjust="spacingAndGlyphs" textLength="104" x="679" y="495.5684">&lt;&lt;consumes&gt;&gt;</text><path d="M727.531,319.917 C696.737,339.579 658.49,363.999 627.393,383.854 " fill="none" style="stroke: #A80036; stroke-width: 1.0;"/><polygon fill="#A80036" points="616.288,390.945,626.0263,389.4732,620.5023,388.2543,621.7212,382.7304,616.288,390.945" style="stroke: #A80036; stroke-width: 1.0;"/><line style="stroke: #A80036; stroke-width: 1.0;" x1="620.5023" x2="627.2445" y1="388.2543" y2="383.949"/><polygon fill="#A80036" points="738.866,312.679,731.6563,312.5364,728.7517,319.1366,735.9614,319.2792,738.866,312.679" style="stroke: #A80036; stroke-width: 1.0;"/><text fill="#000000" font-family="sans-serif" font-size="13" lengthAdjust="spacingAndGlyphs" textLength="81" x="691" y="357.5684">&lt;&lt;arbiter&gt;&gt;</text><path d="M948.229,150.546 C918.02,167.048 877.987,190.817 846,216.5 C837.796,223.087 829.608,230.7 821.98,238.361 " fill="none" style="stroke: #A80036; stroke-width: 1.0;"/><polygon fill="none" points="827.003,243.237,808.145,252.9,816.861,233.586,827.003,243.237" style="stroke: #A80036; stroke-width: 1.0;"/><path d="M520.328,731.143 C530.764,739.318 543.037,748.167 555,755 C585.727,772.55 621.838,787.945 652.606,799.672 " fill="none" style="stroke: #A80036; stroke-width: 1.0; stroke-dasharray: 7.0,7.0;"/><polygon fill="none" points="655.138,793.145,671.458,806.659,650.272,806.272,655.138,793.145" style="stroke: #A80036; stroke-width: 1.0;"/><path d="M819.442,591.53 C823.389,598.972 826.886,607.011 829,615 C840.241,657.489 861.24,664.888 808,755 C801.3,766.339 791.965,776.543 781.901,785.398 " fill="none" style="stroke: #A80036; stroke-width: 1.0;"/><polygon fill="#A80036" points="771.664,793.797,781.1588,791.1799,775.5292,790.6252,776.0839,784.9956,771.664,793.797" style="stroke: #A80036; stroke-width: 1.0;"/><line style="stroke: #A80036; stroke-width: 1.0;" x1="775.5292" x2="781.7145" y1="790.6252" y2="785.5505"/><polygon fill="#A80036" points="812.777,580.056,812.3324,587.2534,818.8051,590.432,819.2497,583.2347,812.777,580.056" style="stroke: #A80036; stroke-width: 1.0;"/><text fill="#000000" font-family="sans-serif" font-size="13" lengthAdjust="spacingAndGlyphs" textLength="47" x="844" y="712.0684">WaitFor</text><path d="M741.676,586.182 C727.884,593.263 713.003,600.625 699,607 C662.87,623.447 638.29,607.151 616,640 C587.302,682.294 591.562,710.11 616,755 C625.797,772.996 642.581,786.985 659.941,797.493 " fill="none" style="stroke: #A80036; stroke-width: 1.0;"/><polygon fill="#A80036" points="671.363,803.903,665.4715,796.0105,667.0025,801.4563,661.5568,802.9873,671.363,803.903" style="stroke: #A80036; stroke-width: 1.0;"/><line style="stroke: #A80036; stroke-width: 1.0;" x1="667.0025" x2="660.0265" y1="801.4563" y2="797.541"/><polygon fill="#A80036" points="753.466,580.063,746.2979,579.2766,742.8151,585.5909,749.9832,586.3773,753.466,580.063" style="stroke: #A80036; stroke-width: 1.0;"/><text fill="#000000" font-family="sans-serif" font-size="13" lengthAdjust="spacingAndGlyphs" textLength="34" x="617" y="712.0684">Block</text><path d="M780.348,592.336 C769.832,616.077 756.031,647.233 745.539,670.921 " fill="none" style="stroke: #A80036; stroke-width: 1.0;"/><polygon fill="#A80036" points="740.24,682.882,747.5427,676.2736,742.2653,678.3105,740.2284,673.0331,740.24,682.882" style="stroke: #A80036; stroke-width: 1.0;"/><line style="stroke: #A80036; stroke-width: 1.0;" x1="742.2653" x2="745.505" y1="678.3105" y2="670.996"/><polygon fill="#A80036" points="785.688,580.281,779.6011,584.1474,780.8289,591.2532,786.9159,587.3868,785.688,580.281" style="stroke: #A80036; stroke-width: 1.0;"/><text fill="#000000" font-family="sans-serif" font-size="13" lengthAdjust="spacingAndGlyphs" textLength="50" x="770" y="628.5684">Request</text><path d="M98.6383,458.902 C96.9362,500.138 100.8769,566.811 138,607 C179.614,652.05 357.972,685.145 444.941,698.927 " fill="none" style="stroke: #A80036; stroke-width: 1.0;"/><polygon fill="#A80036" points="457.83,700.934,449.5525,695.5971,452.8895,700.1648,448.3218,703.5018,457.83,700.934" style="stroke: #A80036; stroke-width: 1.0;"/><line style="stroke: #A80036; stroke-width: 1.0;" x1="452.8895" x2="444.985" y1="700.1648" y2="698.934"/><polygon fill="#FFFFFF" points="99.4112,445.715,95.0666,451.4704,98.7083,457.6944,103.0529,451.939,99.4112,445.715" style="stroke: #A80036; stroke-width: 1.0;"/><text fill="#000000" font-family="sans-serif" font-size="13" lengthAdjust="spacingAndGlyphs" textLength="90" x="139" y="561.0684">selected event</text></g></svg>